<svg width="488" height="405" viewBox="0 0 488 405" fill="none" xmlns="http://www.w3.org/2000/svg">
<g clip-path="url(#clip0)">
<path d="M310.932 323.937C313.556 326.661 317.907 326.741 320.629 324.119C323.353 321.494 323.433 317.145 320.81 314.422C318.186 311.699 313.838 311.617 311.113 314.241C308.391 316.863 308.309 321.214 310.932 323.937ZM322.688 312.612C326.309 316.371 326.197 322.375 322.438 325.996C318.679 329.617 312.677 329.504 309.056 325.745C305.435 321.987 305.546 315.985 309.305 312.363C313.064 308.742 319.068 308.854 322.688 312.612Z" fill="#DCDCDC"/>
<path d="M425.105 353.37C426.869 355.2 429.792 355.256 431.625 353.491C433.455 351.728 433.509 348.804 431.745 346.973C429.982 345.143 427.058 345.087 425.228 346.85C423.396 348.615 423.342 351.539 425.105 353.37ZM433.008 345.757C435.442 348.284 435.366 352.32 432.84 354.753C430.313 357.187 426.277 357.113 423.843 354.586C421.409 352.059 421.485 348.023 424.012 345.588C426.537 343.156 430.574 343.23 433.008 345.757Z" fill="#DCDCDC"/>
<path d="M90.1254 346.197C92.4452 349.185 96.7617 349.724 99.7475 347.406C102.733 345.085 103.275 340.766 100.955 337.782C98.635 334.794 94.3186 334.255 91.3308 336.575C88.3469 338.895 87.8055 343.213 90.1254 346.197ZM103.013 336.183C106.216 340.303 105.468 346.262 101.349 349.463C97.2282 352.666 91.2698 351.918 88.0668 347.797C84.8638 343.676 85.6102 337.719 89.7311 334.516C93.8521 331.313 99.8104 332.062 103.013 336.183Z" fill="#DCDCDC"/>
<path d="M50.7614 200.434C52.3805 202.52 55.3932 202.896 57.4772 201.278C59.5612 199.658 59.939 196.644 58.3199 194.561C56.7007 192.476 53.688 192.099 51.6027 193.719C49.52 195.338 49.1422 198.352 50.7614 200.434ZM59.7567 193.445C61.9922 196.321 61.4699 200.48 58.595 202.714C55.7188 204.95 51.5602 204.427 49.3246 201.551C47.089 198.675 47.61 194.517 50.4862 192.282C53.3625 190.046 57.5211 190.569 59.7567 193.445Z" fill="#DCDCDC"/>
<path d="M112.949 317.699C115.275 315.894 118.621 316.315 120.426 318.637C122.232 320.959 121.813 324.307 119.489 326.114C117.165 327.917 113.819 327.497 112.013 325.174C110.208 322.852 110.627 319.504 112.949 317.699" fill="#DCDCDC"/>
<path d="M199.974 218.711C200.618 218.091 201.642 218.11 202.262 218.754C202.882 219.397 202.862 220.421 202.218 221.041C201.575 221.661 200.551 221.642 199.931 220.998C199.312 220.355 199.331 219.331 199.974 218.711Z" fill="#DCDCDC"/>
<path d="M144.959 333.393C145.877 332.508 147.338 332.535 148.222 333.453C149.106 334.371 149.078 335.831 148.16 336.716C147.243 337.599 145.782 337.573 144.898 336.655C144.014 335.737 144.042 334.276 144.959 333.393Z" fill="#DCDCDC"/>
<path d="M330.575 378.168C331.493 377.284 332.954 377.311 333.838 378.228C334.722 379.146 334.694 380.607 333.776 381.491C332.859 382.375 331.399 382.348 330.514 381.43C329.631 380.513 329.658 379.052 330.575 378.168Z" fill="#DCDCDC"/>
<path d="M-8.24939 299.16C-2.94965 294.055 5.48442 294.213 10.5891 299.512C15.6938 304.811 15.5362 313.245 10.2365 318.35C4.93868 323.454 -3.49539 323.296 -8.60006 317.997C-13.7047 312.698 -13.5472 304.264 -8.24939 299.16Z" fill="#DCDCDC"/>
</g>
<defs>
<clipPath id="clip0">
<rect width="488" height="405" fill="white"/>
</clipPath>
</defs>
</svg>
