<svg width="436" height="24" viewBox="0 0 436 24" fill="none" xmlns="http://www.w3.org/2000/svg">
<path d="M120.143 9.99997C119.827 9.99997 119.571 10.2558 119.571 10.5714V16.2857C119.571 16.6013 119.316 16.8571 119 16.8571H108.714C108.399 16.8571 108.143 16.6013 108.143 16.2857V4.85711C108.143 4.54151 108.399 4.28567 108.714 4.28567H115.571C115.887 4.28567 116.143 4.02983 116.143 3.71423C116.143 3.39863 115.887 3.14282 115.571 3.14282H108.714C107.768 3.14282 107 3.91033 107 4.85711V16.2857C107 17.2325 107.768 18 108.714 18H119C119.947 18 120.714 17.2325 120.714 16.2857V10.5714C120.714 10.2558 120.458 9.99997 120.143 9.99997Z" fill="#BBBBBB"/>
<path d="M122.361 2.64079C121.95 2.23043 121.394 1.99994 120.813 2.00001C120.233 1.99833 119.676 2.22923 119.267 2.64116L111.74 10.1674C111.677 10.2303 111.63 10.3068 111.602 10.3908L110.459 13.8194C110.359 14.1188 110.521 14.4424 110.821 14.5421C110.879 14.5615 110.94 14.5714 111.001 14.5714C111.062 14.5713 111.123 14.5615 111.181 14.5423L114.61 13.3995C114.694 13.3713 114.771 13.324 114.833 13.2612L122.36 5.73431C123.215 4.88011 123.215 3.49509 122.361 2.64079ZM121.552 4.92685L114.124 12.3554L111.904 13.0966L112.643 10.88L120.075 3.45143C120.483 3.04368 121.145 3.04435 121.553 3.4529C121.747 3.64807 121.857 3.91228 121.858 4.188C121.859 4.4652 121.749 4.73118 121.552 4.92685Z" fill="#BBBBBB"/>
<path d="M139.729 4.88965V11.4521C139.729 12.6143 139.41 13.5212 138.772 14.1729C138.139 14.8245 137.173 15.1504 135.874 15.1504C134.575 15.1504 133.616 14.8245 132.996 14.1729C132.376 13.5212 132.066 12.6097 132.066 11.4385V4.88965H133.256V11.459C133.256 12.375 133.472 13.0495 133.905 13.4824C134.338 13.9154 135.008 14.1318 135.915 14.1318C136.799 14.1318 137.458 13.9131 137.891 13.4756C138.328 13.0381 138.547 12.3636 138.547 11.4521V4.88965H139.729ZM141.828 13.332C142.881 13.8516 144.009 14.1113 145.212 14.1113C146.693 14.1113 147.434 13.4368 147.434 12.0879C147.434 11.6504 147.315 11.2972 147.078 11.0283C146.846 10.7549 146.42 10.5407 145.8 10.3857L143.79 9.87988C142.254 9.49251 141.486 8.6722 141.486 7.41895C141.486 6.45736 141.817 5.74414 142.478 5.2793C143.138 4.8099 144.052 4.5752 145.219 4.5752C145.829 4.5752 146.401 4.64128 146.935 4.77344C147.468 4.9056 147.914 5.08333 148.274 5.30664L147.933 6.27051C147.627 6.10189 147.222 5.9515 146.716 5.81934C146.215 5.68717 145.706 5.62109 145.191 5.62109C143.542 5.62109 142.717 6.19303 142.717 7.33691C142.717 7.72428 142.842 8.03646 143.093 8.27344C143.348 8.50586 143.729 8.68359 144.234 8.80664L146.155 9.27148C146.976 9.46745 147.598 9.7819 148.021 10.2148C148.445 10.6432 148.657 11.2539 148.657 12.0469C148.657 13.0768 148.34 13.8538 147.707 14.3779C147.078 14.8975 146.221 15.1572 145.137 15.1572C144.326 15.1572 143.603 15.0752 142.97 14.9111C142.341 14.7425 141.842 14.5443 141.473 14.3164L141.828 13.332ZM150.414 15V4.88965H156.211L156.163 5.93555H151.597V9.24414H155.938V10.2764H151.597V13.9541H156.313L156.259 15H150.414ZM159.26 5.83301V9.25098C159.447 9.25098 159.832 9.25553 160.415 9.26465C161.003 9.27376 161.456 9.27832 161.775 9.27832C162.646 9.27832 163.252 9.13477 163.594 8.84766C163.936 8.55599 164.106 8.0957 164.106 7.4668C164.106 6.91536 163.942 6.50521 163.614 6.23633C163.286 5.96745 162.737 5.83301 161.967 5.83301H159.26ZM165.74 15H164.373L162.979 11.8281C162.6 10.9759 162.359 10.4632 162.254 10.29C161.921 10.3128 161.527 10.3242 161.071 10.3242L159.26 10.2695V15H158.05V4.77344H161.283C161.657 4.77344 161.987 4.78255 162.274 4.80078C162.562 4.81901 162.846 4.85319 163.129 4.90332C163.416 4.94889 163.664 5.01497 163.874 5.10156C164.084 5.18359 164.28 5.29297 164.462 5.42969C164.644 5.56185 164.79 5.72135 164.899 5.9082C165.013 6.09505 165.102 6.31836 165.166 6.57812C165.23 6.83333 165.262 7.12272 165.262 7.44629C165.262 8.08431 165.093 8.63346 164.756 9.09375C164.423 9.55404 163.949 9.87305 163.334 10.0508C163.334 10.0599 163.38 10.1419 163.471 10.2969C163.562 10.4518 163.669 10.6432 163.792 10.8711C163.92 11.0944 164.018 11.2812 164.086 11.4316L165.74 15Z" fill="#828282"/>
<path d="M16.1738 15H14.834L9.58398 7.04297L9.24219 6.57129C9.27865 7.52832 9.29688 8.38281 9.29688 9.13477V15H8.18945V4.88965H9.50879L14.7725 12.8467L15.1211 13.3184C15.0892 11.8646 15.0732 11.0238 15.0732 10.7959V4.88965H16.1738V15ZM19.3867 9.94824C19.3867 11.2471 19.6852 12.2679 20.2822 13.0107C20.8792 13.749 21.7611 14.1182 22.9277 14.1182C24.0944 14.1182 24.9717 13.749 25.5596 13.0107C26.152 12.2725 26.4482 11.2516 26.4482 9.94824C26.4482 8.61751 26.1497 7.58529 25.5527 6.85156C24.9603 6.11784 24.0876 5.75098 22.9346 5.75098C21.7816 5.75098 20.902 6.11784 20.2959 6.85156C19.6898 7.58529 19.3867 8.61751 19.3867 9.94824ZM27.7129 9.94824C27.7129 10.7184 27.6058 11.4225 27.3916 12.0605C27.182 12.6986 26.8766 13.2477 26.4756 13.708C26.0791 14.1637 25.5778 14.5192 24.9717 14.7744C24.3656 15.0251 23.6842 15.1504 22.9277 15.1504C21.9069 15.1504 21.0319 14.9339 20.3027 14.501C19.5781 14.0635 19.0335 13.4574 18.6689 12.6826C18.3089 11.9033 18.1289 10.9896 18.1289 9.94141C18.1289 8.32357 18.5505 7.04753 19.3936 6.11328C20.2367 5.17904 21.417 4.71191 22.9346 4.71191C24.4294 4.71191 25.5983 5.18359 26.4414 6.12695C27.2891 7.06576 27.7129 8.33952 27.7129 9.94824ZM29.7842 15.082C29.5016 15.082 29.2783 14.9932 29.1143 14.8154C28.9548 14.6331 28.875 14.4212 28.875 14.1797C28.875 13.9336 28.9548 13.7217 29.1143 13.5439C29.2738 13.3662 29.4971 13.2773 29.7842 13.2773C30.0713 13.2773 30.2946 13.3662 30.4541 13.5439C30.6136 13.7217 30.6934 13.9336 30.6934 14.1797C30.6934 14.4258 30.6136 14.6377 30.4541 14.8154C30.2946 14.9932 30.0713 15.082 29.7842 15.082Z" fill="#828282"/>
<path d="M197.375 8.37475C197.927 8.37475 198.375 7.92703 198.375 7.37475C198.375 6.82247 197.927 6.37476 197.375 6.37476C196.823 6.37476 196.375 6.82247 196.375 7.37475C196.375 7.92703 196.823 8.37475 197.375 8.37475Z" fill="#BBBBBB"/>
<path d="M201.827 8.18342C201.494 7.33361 200.882 6.10746 199.861 5.09196C198.845 4.07997 197.631 3.48547 196.793 3.16491C195.872 2.813 194.826 3.03481 194.127 3.72997L191.673 6.17277C190.945 6.89686 190.736 8.01104 191.151 8.94526C191.28 9.23501 191.42 9.51841 191.57 9.79222L186.183 15.1789C186.066 15.2961 186 15.4551 186 15.6209V18.3708C186 18.716 186.28 18.9958 186.625 18.9958H189.375C189.72 18.9958 190 18.716 190 18.3708V17.2458L191.125 17.2458C191.47 17.2458 191.75 16.966 191.75 16.6208V15.4959H192.875C193.22 15.4959 193.5 15.216 193.5 14.8709C193.5 14.5257 193.22 14.2459 192.875 14.2459H191.125C190.78 14.2459 190.5 14.5257 190.5 14.8709V15.9958L189.375 15.9959C189.03 15.9959 188.75 16.2757 188.75 16.6208V17.7458H187.25V15.8797L192.792 10.3374C192.996 10.1338 193.034 9.81747 192.885 9.57129C192.668 9.21429 192.469 8.83279 192.293 8.43738C192.087 7.9736 192.192 7.41958 192.555 7.05867L195.009 4.6159C195.36 4.26718 195.884 4.15596 196.347 4.33253C197.072 4.6099 198.118 5.12046 198.98 5.97789C199.846 6.84052 200.374 7.90185 200.664 8.64029C200.845 9.10116 200.735 9.62475 200.384 9.97425L197.9 12.4466C197.538 12.8065 196.998 12.9118 196.524 12.7147C196.133 12.5521 195.755 12.359 195.399 12.1407C195.105 11.9602 194.72 12.0523 194.54 12.3465C194.359 12.6406 194.451 13.0255 194.745 13.2061C195.156 13.4583 195.593 13.6813 196.044 13.8688C196.986 14.2606 198.061 14.05 198.782 13.3325L201.266 10.8602C201.97 10.159 202.191 9.10832 201.827 8.18342Z" fill="#BBBBBB"/>
<path d="M215.613 15H214.164L210.295 10.1738L209.372 10.9873V15H208.183V4.88965H209.372V9.85254L213.815 4.88965H215.299L211.197 9.44238L215.613 15ZM224.22 4.88965V11.4521C224.22 12.6143 223.901 13.5212 223.263 14.1729C222.629 14.8245 221.663 15.1504 220.364 15.1504C219.065 15.1504 218.106 14.8245 217.486 14.1729C216.867 13.5212 216.557 12.6097 216.557 11.4385V4.88965H217.746V11.459C217.746 12.375 217.963 13.0495 218.396 13.4824C218.828 13.9154 219.498 14.1318 220.405 14.1318C221.289 14.1318 221.948 13.9131 222.381 13.4756C222.818 13.0381 223.037 12.3636 223.037 11.4521V4.88965H224.22ZM234.494 15H233.154L227.904 7.04297L227.562 6.57129C227.599 7.52832 227.617 8.38281 227.617 9.13477V15H226.51V4.88965H227.829L233.093 12.8467L233.441 13.3184C233.41 11.8646 233.394 11.0238 233.394 10.7959V4.88965H234.494V15ZM241.31 5.75781C240.549 5.75781 239.892 5.94238 239.341 6.31152C238.794 6.68066 238.386 7.17741 238.117 7.80176C237.848 8.42611 237.714 9.14388 237.714 9.95508C237.714 10.5612 237.787 11.1149 237.933 11.6162C238.078 12.113 238.297 12.5505 238.589 12.9287C238.881 13.3024 239.259 13.5941 239.724 13.8037C240.193 14.0088 240.731 14.1113 241.337 14.1113C242.116 14.1113 242.923 13.9085 243.757 13.5029L243.955 14.5078C243.276 14.9362 242.358 15.1504 241.2 15.1504C240.439 15.1504 239.756 15.0251 239.149 14.7744C238.548 14.5192 238.049 14.1615 237.652 13.7012C237.26 13.2363 236.962 12.6849 236.757 12.0469C236.552 11.4043 236.449 10.6911 236.449 9.90723C236.449 9.15072 236.561 8.45345 236.784 7.81543C237.007 7.17741 237.322 6.63053 237.728 6.1748C238.138 5.71452 238.648 5.35677 239.259 5.10156C239.869 4.84635 240.549 4.71875 241.296 4.71875C242.431 4.71875 243.388 4.9694 244.167 5.4707L243.702 6.43457C242.955 5.9834 242.157 5.75781 241.31 5.75781ZM246.929 15H245.746V4.88965H246.929V15Z" fill="#828282"/>
<path d="M279.208 15H277.998V4.77344H281.293C281.794 4.77344 282.248 4.82585 282.653 4.93066C283.059 5.03548 283.419 5.19499 283.733 5.40918C284.048 5.62337 284.292 5.91048 284.465 6.27051C284.638 6.63053 284.725 7.0498 284.725 7.52832C284.725 7.9248 284.688 8.28027 284.615 8.59473C284.542 8.90462 284.417 9.19629 284.239 9.46973C284.062 9.74316 283.829 9.97103 283.542 10.1533C283.255 10.3311 282.886 10.4723 282.435 10.5771C281.988 10.6774 281.468 10.7275 280.876 10.7275C280.407 10.7275 279.851 10.6979 279.208 10.6387V15ZM280.992 9.68164C281.439 9.68164 281.822 9.63835 282.141 9.55176C282.46 9.46517 282.703 9.35807 282.872 9.23047C283.045 9.10286 283.18 8.93652 283.275 8.73145C283.376 8.52637 283.437 8.33952 283.46 8.1709C283.483 7.99772 283.494 7.79036 283.494 7.54883C283.494 6.97005 283.298 6.54395 282.906 6.27051C282.519 5.99707 281.99 5.86035 281.32 5.86035H279.208V9.66797C280.088 9.67708 280.682 9.68164 280.992 9.68164ZM286.119 15V4.88965H291.916L291.868 5.93555H287.302V9.24414H291.643V10.2764H287.302V13.9541H292.019L291.964 15H286.119ZM301.924 15H300.584L295.334 7.04297L294.992 6.57129C295.029 7.52832 295.047 8.38281 295.047 9.13477V15H293.939V4.88965H295.259L300.522 12.8467L300.871 13.3184C300.839 11.8646 300.823 11.0238 300.823 10.7959V4.88965H301.924V15ZM304.658 13.7627V4.77344H305.868V13.3525C305.868 13.6852 305.861 13.9655 305.848 14.1934C305.834 14.4212 305.807 14.6536 305.766 14.8906C305.725 15.123 305.663 15.3145 305.581 15.4648C305.504 15.6152 305.401 15.7588 305.273 15.8955C305.146 16.0368 304.986 16.1439 304.795 16.2168C304.608 16.2943 304.385 16.3535 304.125 16.3945C303.865 16.4401 303.564 16.4629 303.223 16.4629H302.983L302.84 15.4922H303.346C303.587 15.4922 303.79 15.4626 303.954 15.4033C304.123 15.3441 304.253 15.2689 304.344 15.1777C304.435 15.0911 304.503 14.9658 304.549 14.8018C304.599 14.6377 304.629 14.485 304.638 14.3438C304.651 14.1979 304.658 14.0042 304.658 13.7627ZM308.062 15V4.88965H313.859L313.812 5.93555H309.245V9.24414H313.586V10.2764H309.245V13.9541H313.962L313.907 15H308.062ZM315.883 15V4.88965H317.072V13.9473H321.522L321.481 15H315.883ZM327.777 10.8027C326.816 8.00911 326.285 6.43913 326.185 6.09277C326.185 6.09277 325.631 7.66276 324.523 10.8027H327.777ZM329.343 15L328.16 11.7939H324.127L322.903 15H321.7L325.583 4.86914H326.793L330.56 15H329.343ZM331.578 13.332C332.631 13.8516 333.759 14.1113 334.962 14.1113C336.443 14.1113 337.184 13.4368 337.184 12.0879C337.184 11.6504 337.065 11.2972 336.828 11.0283C336.596 10.7549 336.17 10.5407 335.55 10.3857L333.54 9.87988C332.004 9.49251 331.236 8.6722 331.236 7.41895C331.236 6.45736 331.567 5.74414 332.228 5.2793C332.888 4.8099 333.802 4.5752 334.969 4.5752C335.579 4.5752 336.151 4.64128 336.685 4.77344C337.218 4.9056 337.664 5.08333 338.024 5.30664L337.683 6.27051C337.377 6.10189 336.972 5.9515 336.466 5.81934C335.965 5.68717 335.456 5.62109 334.941 5.62109C333.292 5.62109 332.467 6.19303 332.467 7.33691C332.467 7.72428 332.592 8.03646 332.843 8.27344C333.098 8.50586 333.479 8.68359 333.984 8.80664L335.905 9.27148C336.726 9.46745 337.348 9.7819 337.771 10.2148C338.195 10.6432 338.407 11.2539 338.407 12.0469C338.407 13.0768 338.09 13.8538 337.457 14.3779C336.828 14.8975 335.971 15.1572 334.887 15.1572C334.076 15.1572 333.353 15.0752 332.72 14.9111C332.091 14.7425 331.592 14.5443 331.223 14.3164L331.578 13.332ZM345.072 10.8027C344.111 8.00911 343.58 6.43913 343.479 6.09277C343.479 6.09277 342.926 7.66276 341.818 10.8027H345.072ZM346.638 15L345.455 11.7939H341.422L340.198 15H338.995L342.878 4.86914H344.088L347.854 15H346.638ZM357.049 15H355.709L350.459 7.04297L350.117 6.57129C350.154 7.52832 350.172 8.38281 350.172 9.13477V15H349.064V4.88965H350.384L355.647 12.8467L355.996 13.3184C355.964 11.8646 355.948 11.0238 355.948 10.7959V4.88965H357.049V15Z" fill="#828282"/>
</svg>
