<svg width="513" height="270" viewBox="0 0 513 270" fill="none" xmlns="http://www.w3.org/2000/svg">
<path d="M31.7179 269.349C31.7179 269.349 -27.8866 205.351 21.6377 136.066C65.5792 74.5929 116.81 78.795 154.398 103.741C170.407 114.367 216.563 105.051 255.846 42.4973C309.419 -42.8066 495.124 8.93173 461.264 140.174C444.88 203.687 511.133 205.995 477.374 269.482L31.7179 269.349Z" fill="#EBF3FA"/>
<path d="M261.956 208.438C260.971 208.438 259.998 208.404 259.041 208.334C245.618 207.377 236.959 199.99 234.659 187.535C234.227 185.194 233.842 183.03 233.471 180.935C231.969 172.463 230.882 166.341 228.983 162.374C227.061 158.361 224.3 156.678 219.771 156.746L219.761 156.171C219.855 156.169 219.949 156.169 220.038 156.169C229.663 156.169 231.043 163.957 234.037 180.834C234.408 182.928 234.793 185.092 235.224 187.429C237.473 199.603 245.946 206.823 259.081 207.762C267.724 208.38 277.65 206.143 286.318 201.625C295.089 197.054 301.371 190.722 303.553 184.252C306.232 176.311 310.831 172.342 314.215 170.411C317.893 168.313 320.898 168.104 321.024 168.096L321.06 168.67C321.03 168.672 318.041 168.883 314.473 170.924C311.184 172.808 306.714 176.679 304.098 184.436C301.87 191.045 295.486 197.495 286.583 202.136C278.783 206.2 269.97 208.438 261.956 208.438Z" fill="#4A75CB"/>
<path d="M370.14 131.804C370.14 131.804 360.342 150.116 358.717 151.482C357.091 152.849 341.617 161.109 341.617 161.109L342.923 164.593C342.923 164.593 362.552 159.127 366.044 156.682C369.534 154.239 379.111 132.37 379.111 132.37L370.14 131.804Z" fill="#FFB27D"/>
<path d="M341.617 161.109C341.617 161.109 340.077 161.556 338.647 161.371C337.215 161.183 333.888 162.302 334.233 162.896C334.58 163.493 335.733 162.91 335.763 163.664C335.793 164.416 332.119 166.52 332.704 167.368C333.288 168.215 334.782 168.574 337.586 167.591C340.39 166.61 342.923 164.594 342.923 164.594L341.617 161.109Z" fill="#FFB27D"/>
<path d="M389.587 227.082L396.568 261.315H403.706C403.706 261.315 408.755 229.116 404.089 224.66C399.422 220.205 389.587 227.082 389.587 227.082Z" fill="#FFB27D"/>
<path d="M368.392 225.542L368.611 261.371L374.806 260.845C374.806 260.845 386.702 231.561 383.078 226.224C379.452 220.887 368.392 225.542 368.392 225.542Z" fill="#FFB27D"/>
<path d="M368.591 260.679C368.591 260.679 367.378 263.046 364.69 263.633C362.994 264.002 361.544 264.883 360.641 266.12C359.879 267.163 360.617 268.633 361.911 268.633H375.559C376.722 268.633 377.629 267.629 377.513 266.473C377.412 265.461 377.304 264.285 377.258 263.381C377.158 261.411 375.184 259.823 375.184 259.823L368.591 260.679Z" fill="#D3671E"/>
<path d="M397.825 224.806C397.432 227.813 396.325 230.013 394.366 230.879C388.918 233.288 382.739 233.099 377.462 232.099C376.309 231.882 375.198 231.623 374.147 231.344C368.808 229.938 365.021 228.011 365.021 228.011L369.61 182.475C374.815 181.42 381.929 183.791 388.812 194.244C395.036 203.693 398.848 216.984 397.825 224.806Z" fill="#35488B"/>
<path d="M397.824 224.806C397.431 227.813 396.325 230.013 394.366 230.879C388.918 233.288 382.739 233.099 377.462 232.099C376.309 231.882 375.198 231.623 374.147 231.344C373.098 211.34 380.463 192.932 382.649 190.371C389.637 200.983 397.493 216.316 397.824 224.806Z" fill="#2C3A64"/>
<path d="M396.881 260.679C396.881 260.679 395.669 263.046 392.98 263.633C391.285 264.002 389.835 264.883 388.934 266.12C388.17 267.163 388.908 268.633 390.202 268.633H403.85C405.012 268.633 405.92 267.629 405.804 266.473C405.702 265.461 405.595 264.285 405.549 263.381C405.449 261.411 403.475 259.823 403.475 259.823L396.881 260.679Z" fill="#D3671E"/>
<path d="M402.693 101.852C403.537 98.1945 402.498 95.4941 400.818 92.8954C399.209 90.4004 396.947 90.2927 394.773 88.1827C392.727 86.1943 388.914 84.8859 385.878 84.8859C376.166 84.8859 367.753 90.8332 369.67 100.917C370.28 104.122 369.766 106.647 372.362 110.392C375.603 115.067 379.546 118.818 385.878 118.818C389.239 118.818 392.183 118.043 394.773 115.595C396.185 114.261 398.208 114.096 399.45 112.644C401.959 109.712 401.772 105.847 402.693 101.852Z" fill="#35488B"/>
<path d="M378.429 184.232L384.454 233.958C384.454 233.958 397.218 236.962 411.246 232.564C411.246 232.564 407.068 184.9 403.706 181.424C400.345 177.95 378.429 184.232 378.429 184.232Z" fill="#35488B"/>
<path d="M376.961 125.537L389.067 131.724L391.494 123.326C391.494 123.326 389.95 120.42 389.254 115.657C388.961 113.657 388.818 111.325 389.003 108.745L379.139 113.795C379.139 113.795 379.374 114.708 379.532 116.054C379.699 117.508 379.775 119.469 379.362 121.331C379.005 122.931 378.289 124.457 376.961 125.537Z" fill="#FFB27D"/>
<path d="M407.513 183.221C407.513 184.703 406.498 186.035 405.01 186.394C405.01 186.394 404.667 186.45 404.035 186.538C399.803 187.132 382.627 189.18 369.161 185.525C366.134 184.703 368.994 177.615 369.247 174.486L370.234 127.292C370.234 127.292 374.082 124.285 378.473 123.727C378.419 125.468 378.904 127.055 381.957 127.456C386.02 127.985 389.654 125.212 391.492 123.326C395.83 123.808 397.147 123.83 402.681 125.966L403.479 135.412L403.985 141.425L407.46 182.643C407.493 182.836 407.513 183.032 407.513 183.221Z" fill="#F99746"/>
<path d="M379.362 121.331C384.971 121.182 389.254 115.657 389.254 115.657L379.532 116.054C379.699 117.508 379.775 119.469 379.362 121.331Z" fill="#E8945B"/>
<path d="M378.828 117.943C378.828 117.943 391.221 119.455 391.485 110.723C391.75 101.994 386.584 96.3377 383.136 96.4015C376.261 96.5311 375.127 99.3093 374.331 102.201C373.533 105.095 373.122 117.329 378.828 117.943Z" fill="#FFB27D"/>
<path d="M382.143 112.911C382.143 112.911 381.873 114 379.159 113.801C379.159 113.801 376.879 113.631 376.963 112.432C376.963 112.432 379.185 111.605 382.143 112.911Z" fill="white"/>
<path d="M380.069 96.4832C380.069 96.4832 390.659 96.4753 388.226 103.747C386.692 108.33 391.792 109.042 391.792 109.042L394.247 101.697L392.709 95.9747L380.069 96.4832Z" fill="#35488B"/>
<path d="M370.234 127.295L365.021 137.588C365.021 137.588 369.036 141.293 372.484 140.142C375.932 138.994 370.234 127.295 370.234 127.295Z" fill="#F99746"/>
<path d="M403.985 141.425C403.985 141.425 400.947 161.975 376.03 161.674C371.65 161.62 401.053 134.554 402.992 135.113C403.179 135.166 403.341 135.27 403.478 135.412L403.985 141.425Z" fill="#ED7D2B"/>
<path d="M393.375 131.804C393.375 131.804 383.577 150.116 381.951 151.482C380.326 152.849 364.852 161.109 364.852 161.109L366.158 164.593C366.158 164.593 385.789 159.127 389.279 156.682C392.769 154.239 402.346 132.37 402.346 132.37L393.375 131.804Z" fill="#FFB27D"/>
<path d="M364.852 161.109C364.852 161.109 359.901 162.499 359.134 163.201C358.368 163.903 356.728 165.82 357.967 166.458C359.207 167.098 360.348 165.884 361.754 165.82C363.158 165.756 365.181 165.667 366.158 164.594C367.135 163.521 364.852 161.109 364.852 161.109Z" fill="#FFB27D"/>
<path d="M364.851 161.109C364.851 161.109 360.763 160.806 360.859 161.109C360.954 161.412 361.128 161.588 362.454 161.835C363.78 162.085 364.851 161.109 364.851 161.109Z" fill="#FFB27D"/>
<path d="M391.494 123.326C391.494 123.326 387.416 135.785 387.655 137.699C387.655 137.699 393.004 144.646 402.537 139.568C402.537 139.568 407.757 130.392 402.681 125.964C400.046 123.665 391.494 123.326 391.494 123.326Z" fill="#F99746"/>
<path d="M183.984 268.587H232.065V228.94H183.984V268.587Z" fill="#D3671E"/>
<path d="M208.024 268.587H256.105V228.94H208.024V268.587Z" fill="#F1A34F"/>
<path d="M256.106 241.615V228.94H256.232V241.547L256.106 241.615Z" fill="#E3BB9E"/>
<path d="M208.024 268.587V228.94H256.105V241.615L208.024 268.587Z" fill="#E78B37"/>
<path d="M208.024 228.94L217.538 239.373H264.984L256.105 228.94H208.024Z" fill="#F1A34F"/>
<path d="M184.012 258.533H191.631L190.959 256.389L191.631 254.857H184.012V258.533Z" fill="#F1A34F"/>
<path d="M208.025 233.422L197.889 243.557H184.012V228.94H208.025V233.422Z" fill="#C95C12"/>
<path d="M183.985 228.94L173.175 239.373H197.23L208.025 228.94H183.985Z" fill="#F1A34F"/>
<path d="M116.444 137.841C116.444 137.841 134.157 149.191 136.269 149.596C138.38 150.001 156.147 149.662 156.147 149.662L156.713 153.387C156.713 153.387 136.654 158.251 132.359 157.815C128.065 157.38 106.631 144.167 106.631 144.167L116.444 137.841Z" fill="#FFB27D"/>
<path d="M156.147 149.662C156.147 149.662 157.728 149.297 158.901 148.425C160.074 147.552 163.57 146.895 163.558 147.593C163.546 148.291 162.24 148.347 162.585 149.027C162.93 149.707 167.218 149.753 167.12 150.79C167.022 151.829 165.878 152.884 162.914 153.401C159.948 153.92 156.713 153.387 156.713 153.387L156.147 149.662Z" fill="#FFB27D"/>
<path d="M115.011 209.994H63.644V162.85C63.644 154.171 70.6802 147.135 79.3596 147.135H99.2955C107.975 147.135 115.011 154.171 115.011 162.85V209.994Z" fill="#EAC3A0"/>
<path d="M149.711 209.527C149.711 210.301 149.396 210.999 148.891 211.503C148.386 212.01 147.687 212.321 146.917 212.321H66.4378C64.8943 212.321 63.644 211.071 63.644 209.527C63.644 208.755 63.9562 208.057 64.4613 207.551C64.9665 207.046 65.665 206.735 66.4378 206.735H146.917C148.458 206.735 149.711 207.983 149.711 209.527Z" fill="#EAC3A0"/>
<path d="M109.973 209.527C109.973 210.301 109.661 210.999 109.156 211.503C108.65 212.01 107.952 212.321 107.179 212.321H66.4378C64.8943 212.321 63.644 211.071 63.644 209.527C63.644 208.755 63.9562 208.057 64.4613 207.551C64.9665 207.046 65.665 206.735 66.4378 206.735H107.179C108.723 206.735 109.973 207.983 109.973 209.527Z" fill="#D3AA89"/>
<path d="M73.306 212.321L71.7135 222.594L64.7387 267.562C64.627 268.18 64.0891 268.633 63.4583 268.633H63.435C62.9531 268.633 62.5736 268.22 62.6155 267.739L66.9411 217.937L67.4277 212.321H73.306Z" fill="#EAC3A0"/>
<path d="M73.3063 212.321L71.7138 222.594C70.2425 219.543 68.1729 218.376 66.9414 217.937L67.428 212.321H73.3063Z" fill="#D3AA89"/>
<path d="M102.989 212.321L104.581 222.594L111.556 267.562C111.668 268.18 112.206 268.633 112.836 268.633H112.86C113.342 268.633 113.721 268.22 113.679 267.739L109.354 217.937L108.867 212.321H102.989Z" fill="#EAC3A0"/>
<path d="M102.989 212.321L104.581 222.594C106.053 219.543 108.122 218.376 109.354 217.937L108.867 212.321H102.989Z" fill="#D3AA89"/>
<path d="M133.487 212.321L135.079 222.594L142.054 267.562C142.166 268.18 142.704 268.633 143.334 268.633H143.358C143.84 268.633 144.219 268.22 144.177 267.739L139.852 217.937L139.365 212.321H133.487Z" fill="#EAC3A0"/>
<path d="M133.487 212.321L135.079 222.594C136.55 219.543 138.62 218.376 139.852 217.937L139.365 212.321H133.487Z" fill="#D3AA89"/>
<path d="M115.352 136.387L103.56 142.414L101.197 134.233C101.197 134.233 102.699 131.403 103.379 126.766C103.663 124.815 103.803 122.544 103.623 120.031L113.23 124.951C113.23 124.951 113.001 125.839 112.847 127.149C112.834 127.261 112.822 127.374 112.811 127.49C112.677 128.864 112.642 130.619 113.014 132.29C113.06 132.492 113.11 132.691 113.167 132.891C113.551 134.225 114.225 135.471 115.352 136.387Z" fill="#FFB27D"/>
<path d="M118.039 256.557C118.039 256.557 117.949 259.65 120.361 261.752C121.88 263.076 122.864 264.787 123.091 266.55C123.283 268.042 121.709 269.127 120.391 268.401L106.486 260.759C105.302 260.109 104.939 258.579 105.705 257.466C106.375 256.493 107.143 255.352 107.695 254.458C108.902 252.506 111.802 251.995 111.802 251.995L118.039 256.557Z" fill="#2C3A64"/>
<path d="M159.378 257.709C159.378 257.709 161.384 260.067 164.583 260.011C166.597 259.975 168.474 260.585 169.824 261.744C170.967 262.721 170.524 264.58 169.06 264.927L153.618 268.571C152.303 268.882 151.009 267.988 150.831 266.65C150.676 265.477 150.482 264.117 150.293 263.084C149.881 260.827 151.691 258.503 151.691 258.503L159.378 257.709Z" fill="#2C3A64"/>
<path d="M83.9667 184.85C83.9667 184.85 76.1761 201.147 80.9402 205.57C85.7042 209.994 133.787 209.527 135.184 209.527C136.581 209.527 134.253 232.73 149.385 260.667C149.385 260.667 157.015 260.27 160.716 257.709C160.716 257.709 151.015 199.982 147.988 196.723C144.962 193.464 105.998 187.449 105.998 187.449L83.9667 184.85Z" fill="#2C3A64"/>
<path d="M79.3973 185.263C79.3973 185.263 75.2163 203.707 78.0782 206.735C80.9402 209.76 121.691 218.228 123.191 219.291C124.692 220.356 114.888 226.471 108.274 253.735C108.274 253.735 115.973 258.184 119.875 257.253C119.875 257.253 144.815 221.322 142.835 213.47C140.444 203.989 111.769 192.533 101.593 189.739C91.4165 186.945 79.3973 185.263 79.3973 185.263Z" fill="#35488B"/>
<path d="M120.47 170.389C120.16 176.213 119.688 181.518 119.332 185.068C119.05 187.878 118.839 189.587 118.839 189.587C118.839 189.587 112.686 197.826 80.9502 197.764C78.7716 197.76 76.842 196.472 76.8536 194.294C76.9264 180.489 87.1071 151.048 90.5945 141.012C92.4092 135.789 97.7631 132.683 103.199 133.681C106.955 134.369 111.337 135.28 115.352 136.387C121.003 137.947 121.248 155.79 120.47 170.389Z" fill="#C65447"/>
<path d="M116.305 136.856L125.168 143.321C125.168 143.321 123.13 153.349 117.764 154.075C112.399 154.803 116.305 136.856 116.305 136.856Z" fill="#C65447"/>
<path d="M133.733 168.895C133.733 168.895 140.254 167.481 141.353 168.056C142.451 168.63 144.815 172.272 144.815 172.272H134.765L133.733 168.895Z" fill="#FFB27D"/>
<path d="M113.168 132.891C109.079 133.28 103.38 126.766 103.38 126.766C107.551 125.998 110.736 126.499 112.811 127.49C112.677 128.864 112.643 130.619 113.015 132.29C113.06 132.492 113.11 132.691 113.168 132.891Z" fill="#E8945B"/>
<path d="M115.664 129.247C115.664 129.247 104.766 132.125 101.007 123.459C96.9502 114.108 101.401 107.293 105.101 106.834C112.481 105.917 116.768 108.731 118.064 111.706C119.361 114.68 121.677 127.713 115.664 129.247Z" fill="#FFB27D"/>
<path d="M111.344 124.369C111.344 124.369 111.8 125.494 114.674 124.861C114.674 124.861 117.088 124.333 116.814 123.062C116.814 123.062 114.309 122.516 111.344 124.369Z" fill="white"/>
<path d="M102.953 126.491C102.953 126.491 101.674 122.739 101.827 120.737C101.827 120.737 98.9833 117.111 100.64 116.214C102.297 115.316 103.191 117.462 103.571 117.041C103.951 116.621 104.544 109.495 106.556 109.72C108.568 109.945 116.013 112.251 119.277 109.437C122.54 106.623 114.622 95.6257 101.204 99.8737C87.786 104.122 90.5257 119.042 102.953 126.491Z" fill="#2C3A64"/>
<path d="M94.5846 105.725C94.5846 105.725 93.9766 103.912 94.6293 102.618C94.6293 102.618 94.6612 104.401 95.3617 105.195C96.0621 105.989 94.5846 105.725 94.5846 105.725Z" fill="#2C3A64"/>
<path d="M94.8639 104.457C94.8639 104.457 93.204 104.269 92.4204 105.546C92.4204 105.546 93.5895 104.756 94.7718 105.594L94.8639 104.457Z" fill="#2C3A64"/>
<path d="M120.471 170.389C120.16 176.213 119.689 181.518 119.332 185.068C90.9477 186.356 96.016 145.773 96.016 145.773L119.606 170.096C119.606 170.096 119.924 170.2 120.471 170.389Z" fill="#B24940"/>
<path d="M93.4146 140.515C93.4146 140.515 99.6727 164.506 105.578 172.272H134.764L133.732 168.895C133.732 168.895 121.946 165.513 113.261 163.999C112.087 163.796 109.102 126.832 93.4146 140.515Z" fill="#FFB27D"/>
<path d="M110.195 146.562C110.195 146.562 105.5 133.952 96.4941 136.856C87.488 139.759 95.6317 155.75 95.6317 155.75C95.6317 155.75 106.937 153.94 110.195 146.562Z" fill="#C65447"/>
<path d="M411.287 268.587C410.722 268.587 410.238 268.19 410.142 267.647L404.53 235.837L396.456 190.088L394.201 177.296L399.948 177.132L400.948 184.557L407.952 236.746L412.104 267.681C412.168 268.162 411.785 268.587 411.287 268.587Z" fill="#EFCBAB"/>
<path d="M400.948 184.557C397.222 186.201 396.456 190.088 396.456 190.088L394.201 177.296L399.948 177.132L400.948 184.557Z" fill="#C69D7F"/>
<path d="M119.713 268.587C120.278 268.587 120.761 268.19 120.858 267.647L126.47 235.837L134.542 190.088L136.8 177.296L131.05 177.132L130.052 184.557L123.048 236.746L118.896 267.681C118.832 268.162 119.215 268.587 119.713 268.587Z" fill="#EFCBAB"/>
<path d="M130.052 184.557C133.777 186.201 134.542 190.088 134.542 190.088L136.799 177.296L131.05 177.132L130.052 184.557Z" fill="#C69D7F"/>
<path d="M413.498 182.318H107.537C104.776 182.318 102.518 180.06 102.518 177.298V177.292C102.518 174.532 104.776 172.272 107.537 172.272H413.498C416.26 172.272 418.518 174.532 418.518 177.292V177.298C418.518 180.06 416.26 182.318 413.498 182.318Z" fill="#EFCBAB"/>
<path d="M286.875 124.03C281.496 126.204 280.156 122.466 278.56 121.421C275.457 119.387 275.373 117.217 276.305 114.983C277.836 111.317 272.976 109.718 274.332 104.778C275.688 99.8378 277.238 100.709 277.816 96.5929C278.279 93.3002 282.715 91.8483 285.12 91.7346C288.199 91.589 291.641 88.747 295.257 89.5209C298.875 90.2967 299.553 91.6528 301.198 91.942C302.846 92.2332 306.252 91.7765 311.37 96.8821C316.372 101.872 314.409 103.835 314.99 106.351C315.572 108.87 315.911 114.802 313.683 116.062C311.456 117.321 310.271 121.952 307.943 122.067C303.584 122.285 303.077 124.959 300.389 125.428C298.303 125.791 297.385 124.586 294.055 126.281C292.276 127.187 289.274 123.06 286.875 124.03Z" fill="#2C3A64"/>
<path d="M273.281 186.641C273.281 186.641 282.68 253.32 281.595 261.553L287.529 260.833C287.529 260.833 294.954 231.725 294.06 223.581C293.169 215.436 301.418 181.867 293.807 178.915C286.196 175.965 273.281 186.641 273.281 186.641Z" fill="#A05A2B"/>
<path d="M281.831 186.721C281.831 186.721 295.241 253.461 294.664 261.746L300.534 260.39C300.534 260.39 306.238 230.386 304.846 222.311C303.454 214.236 309.62 180.224 301.842 177.746C294.064 175.269 281.831 186.721 281.831 186.721Z" fill="#BC6E39"/>
<path d="M281.667 260.382C281.667 260.382 280.257 262.969 277.573 263.571C275.88 263.95 274.436 264.839 273.54 266.08C272.782 267.129 273.528 268.595 274.823 268.587L288.472 268.509C289.635 268.503 290.536 267.494 290.413 266.339C290.305 265.328 290.191 264.151 290.142 263.248C290.028 261.277 287.894 259.506 287.894 259.506C287.894 259.506 286.019 260.583 285.297 260.709C283.726 260.984 281.667 260.382 281.667 260.382Z" fill="#2C3A64"/>
<path d="M294.504 260.382C294.504 260.382 293.094 262.969 290.407 263.571C288.716 263.95 287.27 264.839 286.375 266.08C285.619 267.129 286.365 268.595 287.657 268.587L301.306 268.509C302.469 268.503 303.371 267.494 303.247 266.339C303.139 265.328 303.028 264.151 302.976 263.248C302.864 261.277 300.728 259.506 300.728 259.506C300.728 259.506 298.855 260.583 298.131 260.709C296.56 260.984 294.504 260.382 294.504 260.382Z" fill="#35488B"/>
<path d="M279.067 128.878C279.067 128.878 270.148 143.916 268.349 156.177C268.349 156.177 272.687 162.029 274.452 157.92C276.215 153.81 288.879 131.808 279.067 128.878Z" fill="#BC6E39"/>
<path d="M280.764 102.183C280.862 102.024 284.853 95.7134 292.312 94.4549C298.357 93.4338 304.013 97.7038 304.942 103.763C305.877 109.85 304.924 117.739 294.992 120.581L280.764 102.183Z" fill="#2C3A64"/>
<path d="M282.593 129.311L293.833 135.988L296.673 128.076C296.673 128.076 295.371 125.192 294.992 120.581C294.834 118.641 294.836 116.397 295.173 113.93L285.399 118.176C285.399 118.176 285.568 119.066 285.638 120.366C285.71 121.772 285.662 123.659 285.152 125.422C284.713 126.934 283.933 128.356 282.593 129.311Z" fill="#BC6E39"/>
<path d="M285.151 125.422C290.544 125.619 294.992 120.581 294.992 120.581L285.638 120.366C285.71 121.772 285.662 123.659 285.151 125.422Z" fill="#A05A2B"/>
<path d="M282.733 122.257C282.733 122.257 293.289 125.775 297.535 117.472C302.118 108.511 298.161 101.521 294.543 100.835C287.33 99.4709 282.93 101.974 281.466 104.822C280.002 107.672 276.905 120.368 282.733 122.257Z" fill="#BC6E39"/>
<path d="M287.294 117.721C287.294 117.721 286.775 118.798 283.981 117.999C283.981 117.999 281.638 117.325 281.987 116.09C281.987 116.09 284.488 115.709 287.294 117.721Z" fill="white"/>
<path d="M309.493 214.962C306.442 217.875 283.909 223.902 271.209 219.571C268.935 218.795 272.575 148.579 274.747 135.019C275.341 131.303 278.295 128.407 282.027 127.903C282.657 127.815 283.339 127.733 284.077 127.661C283.921 129.329 284.49 130.896 287.395 131.465C291.265 132.221 294.92 129.783 296.799 128.086C299.828 128.716 301.589 128.948 303.991 129.951C306.627 131.056 308.199 133.792 307.816 136.626L307.09 141.979L304.776 159.037C304.483 161.179 304.499 163.353 304.826 165.491C305.812 171.975 307.377 187.768 308.426 199.78C309.164 208.231 309.647 214.812 309.493 214.962Z" fill="#FFB93E"/>
<path d="M308.426 199.78C308.091 199.394 286.725 174.464 285.955 161.201C285.181 147.835 296.675 138.068 296.675 138.068C301.254 137.765 304.636 139.265 307.089 141.979L304.776 159.037C304.483 161.179 304.499 163.353 304.826 165.491C305.811 171.975 307.377 187.768 308.426 199.78Z" fill="#FFA412"/>
<path d="M290.128 101.82C290.128 101.82 289.129 111.724 298.522 115.234C302.258 116.629 304.204 101.503 296.398 98.4836C288.592 95.4621 280.894 99.05 279.974 104.329C279.053 109.608 279.755 110.709 279.755 110.709C279.755 110.709 283.409 100.665 290.128 101.82Z" fill="#2C3A64"/>
<path d="M295.834 134.217C295.834 134.217 291.524 151.257 291.356 158.036C291.356 158.036 281.901 174.551 281.346 175.726C280.79 176.899 284.759 178.504 284.759 178.504C284.759 178.504 296.621 165.854 298.909 160.537C301.195 155.22 309.306 137.933 306.061 132.773C302.814 127.614 295.834 134.217 295.834 134.217Z" fill="#BC6E39"/>
<path d="M268.349 156.177C268.349 156.177 267.502 167.785 275.762 176.929C275.762 176.929 278.018 174.214 277.735 173.373C277.45 172.529 274.217 159.592 271.855 157.751C269.492 155.912 268.349 156.177 268.349 156.177Z" fill="#BC6E39"/>
<path d="M281.346 175.726C281.346 175.726 276.057 175.686 275.762 176.929C275.469 178.173 277.122 182.062 280.989 180.708C284.856 179.352 284.759 178.504 284.759 178.504L281.346 175.726Z" fill="#BC6E39"/>
<path d="M277.735 173.373C277.735 173.373 281.983 175.335 280.539 177.427C279.095 179.519 276.209 178.269 275.762 176.929C275.317 175.591 277.735 173.373 277.735 173.373Z" fill="#BC6E39"/>
<path d="M292.722 143.208C292.722 143.208 298.267 148.367 306.817 147.567C306.817 147.567 311.029 132.635 304.274 130.803C297.517 128.97 291.935 137.819 292.722 143.208Z" fill="#FFB93E"/>
<path d="M276.155 131.509L271.267 139.867C271.267 139.867 271.897 143.744 275.553 144.129C279.21 144.516 276.155 131.509 276.155 131.509Z" fill="#FFB93E"/>
<path d="M349.189 172.272H372.067C372.067 171.265 371.251 170.449 370.242 170.449H349.189V172.272Z" fill="#B24940"/>
<path d="M349.253 147.356H313.883L322.367 172.272H357.967L349.253 147.356Z" fill="#B24940"/>
<path d="M313.362 147.356L321.846 172.272H357.446L348.733 147.356H313.362Z" fill="#C65447"/>
<path d="M332.433 159.584C332.652 160.537 333.601 161.309 334.553 161.309C335.506 161.309 336.098 160.537 335.879 159.584C335.659 158.632 334.71 157.86 333.757 157.86C332.805 157.86 332.211 158.632 332.433 159.584Z" fill="#F9DDBF"/>
<path d="M313.362 147.356L321.846 172.272H338.408L318.572 147.356H313.362Z" fill="#B24940"/>
<path d="M238.884 152.396C238.92 152.683 238.818 152.982 238.587 153.192C238.21 153.529 237.629 153.499 237.29 153.122C236.947 152.743 235.819 151.756 234.765 151.756C234.267 151.756 233.822 151.983 233.401 152.446C231.786 154.233 234.083 156.869 234.107 156.895C234.442 157.274 234.406 157.854 234.028 158.19C233.649 158.527 233.068 158.491 232.733 158.112C231.549 156.774 229.877 153.608 232.041 151.215C232.809 150.368 233.754 149.919 234.773 149.921C235.673 149.923 236.606 150.262 237.544 150.926C238.194 151.389 238.611 151.845 238.657 151.895C238.786 152.041 238.862 152.216 238.884 152.396Z" fill="#4A75CB"/>
<path d="M233.009 151.989C233.009 152.149 232.951 152.308 232.837 152.436C232.59 152.709 232.169 152.731 231.894 152.486L229.76 150.563C229.487 150.318 229.465 149.895 229.71 149.622C229.957 149.348 230.38 149.327 230.653 149.572L232.787 151.492C232.935 151.624 233.009 151.808 233.009 151.989Z" fill="#4A75CB"/>
<path d="M230.911 151.415L230.727 151.534C230.52 151.674 230.302 151.792 230.079 151.887L230.071 151.889C228.603 152.512 226.87 152.196 225.705 151.036C223.296 148.64 220.111 146.977 216.188 146.076C216.037 146.042 215.887 146.008 215.738 145.978C214.254 145.665 212.882 145.509 211.751 145.437C210 145.326 208.586 143.966 208.43 142.221L208.418 142.099L208.362 141.495C208.221 139.975 209.439 138.675 210.965 138.718C212.455 138.76 214.425 138.914 216.623 139.343C218.095 139.628 219.668 140.037 221.27 140.617C224.786 141.889 228.438 143.98 231.445 147.4C232.516 148.621 232.261 150.509 230.911 151.415Z" fill="#F1A34F"/>
<path d="M230.07 151.889C228.603 152.512 226.869 152.196 225.705 151.036C223.296 148.64 220.11 146.977 216.188 146.076C216.036 146.042 215.886 146.008 215.737 145.978C216.082 142.733 216.441 139.44 216.441 139.44L216.622 139.343C218.094 139.628 219.668 140.037 221.269 140.617C221.269 140.617 220.529 143.88 223.212 145.461C225.894 147.041 228.098 152.563 230.07 151.889Z" fill="#E58435"/>
<path d="M188.583 137.079C187.213 135.85 187.709 133.78 187.731 133.693L189.038 134.063L188.386 133.878L189.04 134.059C189.036 134.071 188.745 135.338 189.455 135.972L188.583 137.079Z" fill="#4A75CB"/>
<path d="M206.988 137.079C208.358 135.85 207.863 133.78 207.841 133.693L206.533 134.063L207.187 133.878L206.533 134.059C206.535 134.071 206.826 135.338 206.118 135.972L206.988 137.079Z" fill="#4A75CB"/>
<path d="M205.518 134.426H185.215C181.551 134.426 178.554 131.429 178.554 127.765V122.967C178.554 119.303 181.551 116.305 185.215 116.305H205.518C209.183 116.305 212.181 119.303 212.181 122.967V127.765C212.181 131.429 209.183 134.426 205.518 134.426Z" fill="#85ABF7"/>
<path d="M212.416 134.426H192.113C188.45 134.426 185.45 131.429 185.45 127.765V122.967C185.45 119.303 188.45 116.305 192.113 116.305H212.416C216.08 116.305 219.08 119.303 219.08 122.967V127.765C219.08 131.429 216.08 134.426 212.416 134.426Z" fill="#97BDFF"/>
<path d="M198.494 128.358H196.513C195.249 128.358 194.214 127.324 194.214 126.058V123.633C194.214 122.366 195.249 121.333 196.513 121.333H198.494C199.758 121.333 200.793 122.366 200.793 123.633V126.058C200.793 127.324 199.758 128.358 198.494 128.358Z" fill="#F1A34F"/>
<path d="M210.694 128.358H208.713C207.449 128.358 206.414 127.324 206.414 126.058V123.633C206.414 122.366 207.449 121.333 208.713 121.333H210.694C211.958 121.333 212.993 122.366 212.993 123.633V126.058C212.993 127.324 211.958 128.358 210.694 128.358Z" fill="#F1A34F"/>
<path d="M209.415 172.176H179.01C177.746 172.176 176.713 171.143 176.713 169.877V138.132C176.713 136.866 177.746 135.832 179.01 135.832H209.415C210.679 135.832 211.714 136.866 211.714 138.132V169.877C211.714 171.143 210.679 172.176 209.415 172.176Z" fill="#85ABF7"/>
<path d="M217.467 172.176H187.064C185.8 172.176 184.765 171.143 184.765 169.877V138.132C184.765 136.866 185.8 135.832 187.064 135.832H217.467C218.731 135.832 219.766 136.866 219.766 138.132V169.877C219.766 171.143 218.731 172.176 217.467 172.176Z" fill="#97BDFF"/>
<path d="M182.656 142.159V142.163L182.652 142.859V142.996C182.646 145.011 181.166 146.708 179.174 147.013C177.758 147.228 176.017 147.587 174.162 148.19C169.765 149.616 166.282 151.837 163.767 154.821C162.363 156.488 159.986 156.947 158.073 155.898L157.851 155.776C157.033 155.326 156.502 154.566 156.316 153.73C156.128 152.896 156.285 151.989 156.837 151.235C163.452 142.226 174.056 139.863 179.399 139.245C181.14 139.043 182.666 140.406 182.656 142.159Z" fill="#F1A34F"/>
<path d="M226.728 172.272H206.984C205.795 172.272 204.822 171.301 204.822 170.11V165.555C204.822 164.366 205.795 163.393 206.984 163.393H226.728C227.917 163.393 228.89 164.366 228.89 165.555V170.11C228.89 171.301 227.917 172.272 226.728 172.272Z" fill="#E58435"/>
<path d="M221.83 172.272H202.087C200.897 172.272 199.923 171.301 199.923 170.11V165.555C199.923 164.366 200.897 163.393 202.087 163.393H221.83C223.02 163.393 223.992 164.366 223.992 165.555V170.11C223.992 171.301 223.02 172.272 221.83 172.272Z" fill="#EB9342"/>
<path d="M214.694 172.272H194.95C193.761 172.272 192.788 171.301 192.788 170.11V165.555C192.788 164.366 193.761 163.393 194.95 163.393H214.694C215.883 163.393 216.856 164.366 216.856 165.555V170.11C216.856 171.301 215.883 172.272 214.694 172.272Z" fill="#E58435"/>
<path d="M211.957 165.557V170.11C211.957 171.299 210.984 172.272 209.795 172.272H190.053C188.862 172.272 187.889 171.299 187.889 170.11V165.557C187.889 164.366 188.862 163.393 190.053 163.393H209.795C210.984 163.393 211.957 164.366 211.957 165.557Z" fill="#F1A34F"/>
<path d="M211.957 169.775V170.11C211.957 171.299 210.984 172.272 209.795 172.272H190.053C188.862 172.272 187.889 171.299 187.889 170.11V165.557C187.889 164.366 188.862 163.393 190.053 163.393H197.281C198.928 165.968 202.929 169.905 211.957 169.775Z" fill="#EB9342"/>
<path d="M205.327 135.832H194.214V134.426H205.327V135.832Z" fill="#85ABF7"/>
<path d="M196.238 135.832H189.81V134.426H196.238V135.832Z" fill="#4A75CB"/>
<path d="M210.037 142.946L205.486 148.585C204.71 149.548 203.242 149.548 202.466 148.585L200.645 146.329L197.737 142.727C197.135 141.979 197.668 140.866 198.625 140.866H209.042C210.115 140.866 210.711 142.111 210.037 142.946Z" fill="#F1A34F"/>
<path d="M210.037 142.946L205.486 148.585C204.71 149.548 203.242 149.548 202.466 148.585L200.646 146.329C204.624 145.366 206.15 142.542 206.716 140.866H209.042C210.115 140.866 210.711 142.111 210.037 142.946Z" fill="#E58435"/>
<path d="M182.656 142.163L182.652 142.859V142.996C182.646 145.011 181.166 146.708 179.174 147.013C177.758 147.228 176.017 147.587 174.162 148.19C169.764 149.616 166.282 151.837 163.767 154.821C162.363 156.488 159.986 156.947 158.073 155.898L157.851 155.776C157.032 155.326 156.502 154.566 156.316 153.73C158.095 154.835 160.361 155.513 162.086 153.557C165.407 149.787 172.367 146.849 177.543 145.755C182.598 144.686 182.656 142.27 182.656 142.163Z" fill="#E58435"/>
<path d="M155.486 164.813C155.156 164.853 154.811 164.737 154.572 164.472C154.183 164.039 154.217 163.373 154.65 162.984C155.085 162.587 156.218 161.291 156.215 160.08C156.214 159.51 155.954 158.997 155.42 158.517C153.366 156.662 150.341 159.304 150.311 159.33C149.875 159.717 149.21 159.677 148.823 159.243C148.437 158.806 148.477 158.14 148.912 157.755C150.449 156.391 154.081 154.468 156.833 156.951C157.808 157.831 158.325 158.916 158.323 160.088C158.323 161.121 157.935 162.192 157.172 163.271C156.641 164.019 156.118 164.498 156.06 164.55C155.894 164.699 155.693 164.787 155.486 164.813Z" fill="#4A75CB"/>
<path d="M155.944 158.062C155.762 158.062 155.578 157.998 155.432 157.866C155.117 157.583 155.091 157.099 155.374 156.784L157.578 154.33C157.86 154.015 158.345 153.989 158.66 154.271C158.975 154.554 159.001 155.038 158.717 155.354L156.514 157.809C156.363 157.976 156.154 158.062 155.944 158.062Z" fill="#4A75CB"/>
<path d="M196.637 116.325C196.633 116.26 196.567 109.158 193.573 106.328L193.751 106.14C195.109 107.424 196.136 109.527 196.804 112.389C197.297 114.497 197.398 116.212 197.402 116.284L196.637 116.325Z" fill="#97BDFF"/>
<path d="M193.33 106.244C193.33 106.068 193.474 105.925 193.651 105.925C193.829 105.925 193.972 106.068 193.972 106.244C193.972 106.421 193.829 106.565 193.651 106.565C193.474 106.565 193.33 106.421 193.33 106.244Z" fill="#F1A34F"/>
<path d="M205.143 116.325C205.147 116.26 205.213 109.158 208.207 106.328L208.029 106.14C206.671 107.424 205.644 109.527 204.976 112.389C204.483 114.497 204.381 116.212 204.377 116.284L205.143 116.325Z" fill="#97BDFF"/>
<path d="M208.449 106.244C208.449 106.068 208.306 105.925 208.128 105.925C207.951 105.925 207.807 106.068 207.807 106.244C207.807 106.421 207.951 106.565 208.128 106.565C208.306 106.565 208.449 106.421 208.449 106.244Z" fill="#F1A34F"/>
<path d="M435.684 252.851L431.472 245.051C431.312 244.758 431.29 244.415 431.39 244.096V244.092C431.829 242.678 431.013 241.306 430.917 241.154C430.638 240.705 430.046 240.568 429.597 240.849C429.148 241.128 429.013 241.718 429.292 242.167C429.389 242.325 429.719 243.011 429.561 243.523C429.529 243.625 429.431 243.938 428.817 244.205C427.441 244.806 426.799 243.669 426.633 243.304C426.422 242.823 425.861 242.602 425.377 242.809C424.892 243.019 424.667 243.583 424.876 244.07C424.942 244.219 425.546 245.546 426.908 246.084L426.914 246.086C427.343 246.256 427.71 246.553 427.928 246.96L432.144 254.764L435.684 252.851Z" fill="#85ABF7"/>
<path d="M443.825 255.408L448.302 247.757C448.472 247.47 448.753 247.271 449.076 247.191L449.08 247.189C450.518 246.83 451.266 245.42 451.346 245.26C451.585 244.788 451.395 244.211 450.923 243.974C450.45 243.735 449.874 243.924 449.636 244.397C449.553 244.56 449.138 245.201 448.617 245.33C448.512 245.356 448.195 245.436 447.646 245.049C446.42 244.185 447.058 243.047 447.283 242.716C447.586 242.285 447.484 241.69 447.054 241.385C446.623 241.078 446.025 241.18 445.717 241.611C445.624 241.744 444.804 242.951 445.051 244.395V244.401C445.131 244.856 445.065 245.322 444.832 245.721L440.351 253.376L443.825 255.408Z" fill="#EFCBAB"/>
<path d="M437.421 269.367H461.34V249.644H437.421V269.367Z" fill="#D3671E"/>
<path d="M425.461 269.367H449.38V249.644H425.461V269.367Z" fill="#F1A34F"/>
<path d="M425.461 255.948L425.399 255.914V249.644H425.461V255.948Z" fill="#E3BB9E"/>
<path d="M449.38 269.367L425.461 255.948V249.644H449.38V269.367Z" fill="#E78B37"/>
<path d="M449.379 249.644L444.646 254.833H421.045L425.46 249.644H449.379Z" fill="#F1A34F"/>
<path d="M461.324 264.365H457.534L457.867 263.298L457.534 262.536H461.324V264.365Z" fill="#F1A34F"/>
<path d="M449.38 251.874L454.422 256.916H461.324V249.644H449.38V251.874Z" fill="#C95C12"/>
<path d="M461.34 249.644L466.717 254.833H454.751L449.38 249.644H461.34Z" fill="#F1A34F"/>
<path d="M511.654 269.991H0.580368C0.261266 269.991 0 269.73 0 269.41V269.213C0 268.894 0.261266 268.633 0.580368 268.633H511.654C511.973 268.633 512.234 268.894 512.234 269.213V269.41C512.234 269.73 511.973 269.991 511.654 269.991Z" fill="#2E3552"/>
</svg>
