<svg width="485" height="308" viewBox="0 0 485 308" fill="none" xmlns="http://www.w3.org/2000/svg">
<path d="M105.404 128.629L95.9321 196.132L253.968 279.673L295.453 154.877L170.085 95.9704L105.404 128.629Z" fill="white" fill-opacity="0.8"/>
<path d="M107.408 294.643H27.4463V294.645C27.4463 286.737 33.8562 280.326 41.7633 280.326H93.091C100.998 280.326 107.408 286.737 107.408 294.645V294.643Z" fill="#5DCEE7"/>
<path d="M67.1852 282.024L61.5154 282.803L44.9233 162.131L50.5929 161.352L67.1852 282.024Z" fill="#5DCEE7"/>
<path d="M37.9136 176.125L33.4614 172.53L109.999 77.7708L114.451 81.3684L37.9136 176.125Z" fill="#5DCEE7"/>
<path d="M54.6254 162.568C54.0811 166.451 50.4928 169.156 46.6105 168.612C42.7284 168.068 40.0223 164.48 40.5667 160.598C41.1111 156.715 44.6995 154.008 48.5817 154.554C52.464 155.098 55.1698 158.686 54.6254 162.568Z" fill="#0C6C82"/>
<path d="M131.238 77.4107C129.796 84.7799 122.654 89.5846 115.285 88.144C107.916 86.7014 103.11 79.5597 104.552 72.1905C105.993 64.8213 113.136 60.0166 120.505 61.4572C127.874 62.8998 132.679 70.0415 131.238 77.4107Z" fill="#0C6C82"/>
<path d="M170.085 95.9703L105.404 128.629C104.564 126.967 103.83 125.285 103.196 123.591C95.8242 103.903 102.126 82.6348 118.572 74.3316C134.805 66.1332 155.337 73.3897 166.891 90.5245C168.05 92.2421 169.121 94.0587 170.085 95.9703Z" fill="#5DCEE7"/>
<path d="M170.084 95.9703L105.403 128.629C104.564 126.967 103.829 125.285 103.195 123.591L166.89 90.5245C168.05 92.2421 169.121 94.0587 170.084 95.9703Z" fill="#0C6C82"/>
<path d="M244.948 201.847C225.518 198.787 195.792 176.395 209.402 146.621C223.015 116.847 232.838 126.51 220.005 95.9942C207.174 65.4784 224.974 36.1063 247.752 38.291C270.533 40.4737 279.392 56.8625 304.971 47.362C330.549 37.8596 357.272 58.3525 351.448 81.701C345.624 105.047 343.36 116.186 354.946 126.263C366.531 136.337 410.904 141.053 398.893 172.841C386.879 204.629 384.261 215.129 393.89 227.999C430.103 276.406 372.487 296.258 347.751 298.668C323.016 301.078 249.227 295.482 235.096 270.066C220.963 244.649 244.948 201.847 244.948 201.847Z" fill="#062440"/>
<path d="M204.618 214.343C207.329 221.119 193.554 241.837 187.424 240.98C159.213 226.252 133.671 182.284 133.671 182.284L142.026 170.613C142.026 170.613 170.999 191.982 204.618 214.343Z" fill="#FFAA8C"/>
<path d="M274.661 198.421C257.991 212.53 195.131 242.7 187.423 240.98L192.236 211.725C192.236 211.725 250.214 172.002 260.653 165.673C278.704 154.675 301.919 175.435 274.661 198.421Z" fill="#FFAA8C"/>
<path d="M126.496 152.358C124.815 150.763 114.377 147.751 111.709 148.36C108.604 149.055 99.9585 154.457 98.1247 155.595C96.2909 156.733 97.6648 158.453 100.647 158.617C104.513 158.579 108.282 157.398 111.481 155.225C115.973 156.565 119.213 157.736 119.622 158.001C122.327 159.171 123.572 162.311 122.403 165.016C121.64 166.781 119.987 167.998 118.075 168.204L117.621 168.2C119.552 172.386 120.887 176.822 121.587 181.377C125.867 182.654 129.273 184.979 134.102 181.949L142.361 170.949C140.938 167.575 129.227 154.92 126.496 152.358Z" fill="#FFAA8C"/>
<path d="M86.6879 161.015L85.1717 160.752C84.7281 160.675 84.4128 160.277 84.4374 159.828C84.4619 159.377 84.8211 159.016 85.2717 158.991L86.7974 158.9C87.3164 158.87 87.7502 159.291 87.7367 159.81L87.7272 160.164C87.713 160.704 87.2216 161.106 86.6879 161.015Z" fill="#4A42A7"/>
<path d="M164.542 165.042L158.58 165.052C158.325 165.052 158.118 164.846 158.118 164.591L158.114 162.054C158.113 161.799 158.32 161.591 158.575 161.591L164.538 161.581C164.791 161.581 164.999 161.787 164.999 162.042L165.003 164.581C165.005 164.834 164.797 165.042 164.542 165.042Z" fill="#4A42A7"/>
<path d="M161.447 161.144L161.374 163.481L161.283 165.772C161.257 166.182 160.903 166.494 160.492 166.469L105.795 163.94C104.15 163.855 86.2589 162.088 86.4067 161.061L86.4799 159.849L86.526 158.838C86.5549 158.049 104.433 157.728 106.091 157.782L160.65 160.366C161.046 160.322 161.402 160.607 161.445 161.003C161.451 161.051 161.451 161.096 161.447 161.144Z" fill="#C7630C"/>
<path d="M110.344 161.745C108.595 160.795 105.835 159.974 103.893 160.406C97.5709 162.121 104.295 165.665 106.188 167.927C108.127 170.246 112.012 181.607 129.913 183.402C130.699 184.219 124.18 167.005 120.134 167.577C116.155 168.139 112.035 162.717 110.344 161.745Z" fill="#FFAA8C"/>
<path d="M311.58 136.648L310.331 171.467C310.331 171.467 292.201 184.419 278.183 175.791C280.34 165.008 283.277 147.268 283.277 147.268L311.58 136.648Z" fill="#E97956"/>
<path d="M277.954 159.798C277.954 159.798 254.287 161.688 219.178 190.753C222.594 193.118 240.676 219.745 240.676 219.745L265.824 212.255L277.954 159.798Z" fill="#C7630C"/>
<path d="M244.251 115.272C249.093 142.024 269.154 160.791 289.056 157.188C308.957 153.586 321.164 128.977 316.32 102.223C311.476 75.4714 291.416 56.704 271.515 60.3074C251.614 63.9109 239.406 88.5199 244.251 115.272Z" fill="#FFAA8C"/>
<path d="M318.716 101.79C298.364 102.849 277.861 95.1116 264.82 82.6785C261.104 100.642 244.25 115.272 244.25 115.272C244.25 115.272 224.299 85.809 246.91 63.8735C268.479 42.9472 329.101 43.6022 318.716 101.79Z" fill="#062440"/>
<path d="M288.729 118.264C290.842 117.88 292.247 115.856 291.863 113.74C291.482 111.625 289.457 110.222 287.342 110.604C285.226 110.988 283.821 113.012 284.205 115.128C284.587 117.243 286.614 118.646 288.729 118.264Z" fill="black"/>
<path d="M260.615 122.993C262.73 122.612 264.135 120.587 263.752 118.472C263.37 116.356 261.343 114.951 259.228 115.335C257.114 115.717 255.709 117.744 256.091 119.857C256.475 121.972 258.5 123.377 260.615 122.993Z" fill="black"/>
<path d="M272.708 119.647C270.078 126.542 269.176 129.486 267.686 131.223C270.313 135.108 277.706 135.124 279.464 134.028C274.053 133.192 272.411 130.272 272.411 130.272L272.708 119.647Z" fill="#DE623C"/>
<path d="M311.612 106.937C308.43 112.913 309.441 119.671 313.872 122.03C318.302 124.389 324.472 121.456 327.656 115.478C330.838 109.5 329.827 102.742 325.397 100.385C320.966 98.0263 314.796 100.959 311.612 106.937Z" fill="#FFAA8C"/>
<path d="M317.283 117.579C317.442 117.55 317.598 117.488 317.741 117.395C318.318 117.019 318.481 116.248 318.103 115.672C316.852 113.756 316.531 112.092 317.147 110.725C318.099 108.613 321.041 107.481 323.267 107.155C323.948 107.056 324.419 106.421 324.32 105.74C324.219 105.059 323.586 104.588 322.905 104.689C319.917 105.126 316.239 106.674 314.875 109.701C314.194 111.209 313.842 113.705 316.017 117.033C316.3 117.466 316.805 117.664 317.283 117.579Z" fill="#DE623C"/>
<path d="M249.433 112.705C249.51 112.581 249.603 112.462 249.71 112.351C254.434 107.574 259.078 106.749 259.274 106.715C260.352 106.535 261.375 107.264 261.556 108.342C261.736 109.417 261.015 110.434 259.943 110.622C259.846 110.64 256.264 111.36 252.528 115.137C251.758 115.915 250.506 115.923 249.726 115.153C249.059 114.492 248.958 113.473 249.433 112.705Z" fill="#062440"/>
<path d="M284.193 102.099C284.332 102.051 284.48 102.02 284.633 102.004C291.319 101.341 295.419 103.67 295.592 103.771C296.537 104.319 296.86 105.532 296.31 106.478C295.764 107.42 294.559 107.743 293.613 107.202C293.528 107.155 290.31 105.423 285.023 105.946C283.934 106.055 282.965 105.259 282.856 104.171C282.765 103.235 283.339 102.388 284.193 102.099Z" fill="#062440"/>
<path d="M270.937 143.097C270.286 142.446 270.573 141.274 271.402 141.207C273.509 141.039 276.972 140.676 280.198 139.962C283.423 139.25 286.716 138.114 288.697 137.378C289.477 137.087 290.23 138.029 289.916 138.893C288.95 141.547 286.667 145.758 281.723 146.852C276.78 147.947 272.933 145.095 270.937 143.097Z" fill="white"/>
<path d="M99.1835 231.838L91.5493 194.022L154.961 224.372L109.628 235.673L99.1835 231.838Z" fill="#FFDABB"/>
<path d="M101.514 228.749L94.4302 195.348L97.7671 192.882L153.23 220.005L101.514 228.749Z" fill="#F3DAD1"/>
<path d="M100.488 230.079C102.944 226.181 111.561 220.863 122.816 221.94C134.072 223.016 172.75 215.473 175.325 213.937C178.913 217.03 244.27 272.598 244.27 272.598L241.555 277.524L100.488 230.079Z" fill="white"/>
<path d="M245.317 278.527L243.66 281.478L175.026 287.911L99.1836 231.838L100.839 228.89L171.13 219.506L245.317 278.527Z" fill="#FFDABB"/>
<path d="M242.295 280.573L172.006 289.955L97.8184 230.934L168.108 221.55L242.295 280.573Z" fill="#FFA252"/>
<path d="M145.377 235.934C144.486 227.546 155.49 229.972 158.203 237.335C160.543 243.689 160.128 248.474 159.722 251.852C128.857 247.825 133.476 229.558 145.377 235.934Z" fill="#FFDABB"/>
<path d="M187.663 247.798C187.316 244.523 191.612 245.468 192.673 248.346C193.587 250.827 193.425 252.695 193.267 254.015C181.212 252.442 183.014 245.308 187.663 247.798Z" fill="#FFDABB"/>
<path d="M156.776 261.232C156.429 257.957 160.727 258.905 161.786 261.78C162.7 264.262 162.538 266.132 162.38 267.451C150.324 265.878 152.128 258.743 156.776 261.232Z" fill="#FFDABB"/>
<path d="M138.286 254.571C137.938 251.296 142.236 252.242 143.295 255.119C144.209 257.601 144.047 259.471 143.889 260.789C131.833 259.215 133.638 252.082 138.286 254.571Z" fill="#FFDABB"/>
<path d="M170.389 243.656C170.043 240.379 174.339 241.327 175.4 244.204C176.314 246.685 176.152 248.553 175.993 249.873C163.938 248.3 165.741 241.166 170.389 243.656Z" fill="#FFDABB"/>
<path d="M189.577 263.373C189.228 260.098 193.526 261.046 194.585 263.921C195.499 266.403 195.337 268.273 195.179 269.591C183.124 268.017 184.928 260.884 189.577 263.373Z" fill="#FFDABB"/>
<path d="M203.47 261.232C203.122 257.957 207.42 258.905 208.479 261.78C209.393 264.262 209.231 266.132 209.072 267.451C197.017 265.878 198.822 258.743 203.47 261.232Z" fill="#FFDABB"/>
<path d="M203.47 274.696C203.122 271.421 207.42 272.369 208.479 275.244C209.393 277.726 209.231 279.596 209.072 280.913C197.017 279.34 198.822 272.207 203.47 274.696Z" fill="#FFDABB"/>
<path d="M218.381 274.696C218.032 271.421 222.33 272.369 223.391 275.244C224.303 277.726 224.141 279.596 223.985 280.913C211.928 279.34 213.732 272.207 218.381 274.696Z" fill="#FFDABB"/>
<path d="M332.151 283.981C330.993 276.695 329.345 263.806 331.64 251.336C337.183 225.658 350.645 187.927 343.355 166.51C338.479 160.156 317.539 153.495 311.369 153.863C308.43 167.185 283.038 188.145 281.253 158.951C264.227 162.101 250.964 189.91 247.972 208.525C247.007 222.615 251.4 237.444 252.472 251.676C255.132 272.723 248.756 283.138 243.971 304.298C277 297.742 336 314.242 342.544 303.965C333.5 293.742 332.631 285.536 332.151 283.981Z" fill="#FFA252"/>
<path d="M284.417 261.024C292.085 264.066 295.411 288.815 293.139 290.594C259.123 302.297 208.827 287.899 208.827 287.899L207.25 272.945C217.203 272.397 239.932 271.235 284.417 261.024Z" fill="#FFBAA3"/>
<path d="M350.67 204.75C342.159 227.271 301.488 288.124 293.139 290.594L276.268 264.566C276.268 264.566 312.971 192.376 319.644 180.689C331.153 160.427 364.637 168.008 350.67 204.75Z" fill="#FFBAA3"/>
<path d="M336.583 159.697C340.252 159.881 358.608 159.454 357.454 193.549C357.927 207.524 344.457 232.481 344.457 232.481C344.457 232.481 318.479 224.877 300.184 210.243C300.592 203.034 318.566 161.415 336.583 159.697Z" fill="#C7630C"/>
<path d="M176.682 284.141C181.974 284.863 197.514 285.7 208.827 287.899L207.25 272.945C198.913 273.386 187.164 258.273 170.659 255.812C165.029 254.973 162.46 254.11 161.962 254.834C161.463 255.557 159.702 260.486 167.831 262.087C178.034 264.095 170.581 271.813 150.282 262.411C145.2 260.056 135.167 261.865 138.44 265.953C142.047 270.459 152.6 280.85 176.682 284.141Z" fill="#FFBAA3"/>
<path d="M445.679 277.079H367.073C365.696 277.079 364.578 278.04 364.578 279.228V292.286C364.578 293.473 365.696 294.435 367.073 294.435H445.679V277.079Z" fill="#A11A3D"/>
<path d="M448.381 280.462V291.01C448.381 291.394 448.709 291.708 449.111 291.708H476.985C477.769 291.708 478.404 292.316 478.404 293.066C478.404 293.818 477.769 294.425 476.985 294.425H446.131C445.286 294.425 444.603 293.742 444.603 292.897V278.573C444.603 277.73 445.286 277.045 446.131 277.045H476.985C477.769 277.045 478.404 277.654 478.404 278.404V278.41C478.404 279.162 477.769 279.77 476.985 279.77H449.105C448.707 279.77 448.381 280.08 448.381 280.462Z" fill="#C4204A"/>
<path d="M475.696 291.708H449.138C448.374 291.708 447.754 291.089 447.754 290.325V281.151C447.754 280.387 448.374 279.768 449.138 279.768H475.696V291.708Z" fill="white"/>
<path d="M470.886 282.88H450.236V281.808H470.886V282.88Z" fill="#E3EAFF"/>
<path d="M474.508 285.588H461.61V284.513H474.508V285.588Z" fill="#E3EAFF"/>
<path d="M465.505 290.725H448.827V289.65H465.505V290.725Z" fill="#E3EAFF"/>
<path d="M460.34 288.269H452.521V287.194H460.34V288.269Z" fill="#E3EAFF"/>
<path d="M433.683 290.693H374.039C372.929 290.693 372.028 289.793 372.028 288.682V282.831C372.028 281.721 372.929 280.821 374.039 280.821H433.683C434.793 280.821 435.694 281.721 435.694 282.831V288.682C435.694 289.793 434.793 290.693 433.683 290.693Z" fill="#C4204A"/>
<path d="M401.439 244.703H482.303C483.617 244.703 484.684 245.769 484.684 247.083V259.267C484.684 260.581 483.617 261.647 482.303 261.647H401.439V244.703Z" fill="#FFA252"/>
<path d="M398.802 248.005V258.303C398.802 258.677 398.481 258.984 398.09 258.984H370.878C370.113 258.984 369.491 259.58 369.491 260.312C369.491 261.044 370.113 261.638 370.878 261.638H401C401.824 261.638 402.491 260.971 402.491 260.148V246.161C402.491 245.338 401.824 244.671 401 244.671H370.878C370.113 244.671 369.491 245.265 369.491 245.997V246.005C369.491 246.737 370.113 247.331 370.878 247.331H398.097C398.485 247.331 398.802 247.635 398.802 248.005Z" fill="#FFDABB"/>
<path d="M372.135 258.986H398.519C399.271 258.986 399.881 258.376 399.881 257.625V248.69C399.881 247.938 399.271 247.329 398.519 247.329H372.135V258.986Z" fill="white"/>
<path d="M420.876 244.703C420.876 244.703 424.111 251.985 420.929 261.647C422.38 261.647 425.142 261.638 425.142 261.638C425.142 261.638 428.58 254.171 425.142 244.703C423.504 244.703 420.876 244.703 420.876 244.703Z" fill="#FFDABB"/>
<path d="M413.697 244.703C413.697 244.703 416.932 251.985 413.75 261.647C415.201 261.647 417.961 261.638 417.961 261.638C417.961 261.638 421.398 254.171 417.961 244.703C416.325 244.703 413.697 244.703 413.697 244.703Z" fill="#FFDABB"/>
<path d="M397.063 250.071H382.506V249.001H397.063V250.071Z" fill="#E3EAFF"/>
<path d="M394.114 257.387H379.556V256.316H394.114V257.387Z" fill="#E3EAFF"/>
<path d="M399.356 255.163H384.799V254.092H399.356V255.163Z" fill="#E3EAFF"/>
<path d="M438.991 227.356H358.667C357.288 227.356 356.172 228.318 356.172 229.505V242.563C356.172 243.751 357.288 244.712 358.667 244.712H438.991V227.356Z" fill="#3F964F"/>
<path d="M441.692 230.74V241.287C441.692 241.671 442.02 241.986 442.422 241.986H470.296C471.08 241.986 471.715 242.593 471.715 243.343C471.715 244.095 471.08 244.703 470.296 244.703H439.44C438.597 244.703 437.912 244.02 437.912 243.175V228.85C437.912 228.007 438.597 227.322 439.44 227.322H470.296C471.08 227.322 471.715 227.93 471.715 228.682V228.688C471.715 229.44 471.08 230.047 470.296 230.047H442.414C442.018 230.047 441.692 230.358 441.692 230.74Z" fill="#0E6A41"/>
<path d="M469.008 241.986H442.45C441.686 241.986 441.066 241.366 441.066 240.602V231.428C441.066 230.665 441.686 230.045 442.45 230.045H469.008V241.986Z" fill="white"/>
<path d="M372.915 227.356C372.915 227.356 369.678 234.814 372.86 244.712C371.409 244.712 368.649 244.703 368.649 244.703C368.649 244.703 365.212 237.054 368.649 227.356C370.287 227.356 372.915 227.356 372.915 227.356Z" fill="#0E6A41"/>
<path d="M422.604 227.356C422.604 227.356 419.368 234.814 422.548 244.712C421.098 244.712 418.337 244.703 418.337 244.703C418.337 244.703 414.9 237.054 418.337 227.356C419.976 227.356 422.604 227.356 422.604 227.356Z" fill="#0E6A41"/>
<path d="M464.198 233.158H443.548V232.085H464.198V233.158Z" fill="#E3EAFF"/>
<path d="M467.82 235.865H454.922V234.791H467.82V235.865Z" fill="#E3EAFF"/>
<path d="M458.816 241.002H442.139V239.928H458.816V241.002Z" fill="#E3EAFF"/>
<path d="M453.651 238.546H445.833V237.474H453.651V238.546Z" fill="#E3EAFF"/>
<path d="M453.614 247.085L449.094 244.989L445.008 247.085V236.033H453.614V247.085Z" fill="#E62552"/>
<path d="M357.873 276.96L412.23 277.348L412.313 261.396L357.954 261.01C356.718 261.004 355.71 262.002 355.704 263.238L355.645 274.71C355.639 275.947 356.636 276.954 357.873 276.96Z" fill="#0C6C82"/>
<path d="M410.921 274.496L470.217 274.435L470.195 264.539L411.611 263.992C411.322 263.992 410.39 264.816 410.388 265.033L410.416 274.057C410.414 274.274 410.632 274.494 410.921 274.496Z" fill="white"/>
<path d="M471.651 277.5C472.522 277.577 473.25 276.997 473.401 276.127C473.478 275.252 472.9 274.522 472.031 274.371C471.885 274.371 471.814 274.371 471.667 274.369L412.882 274.433C412.229 274.431 411.576 274.427 410.923 274.35C410.709 273.695 410.566 272.966 410.644 272.238L410.598 266.707C410.602 266.052 410.606 265.397 410.754 264.744C411.481 264.529 412.207 264.461 412.931 264.537L471.719 264.473C472.589 264.55 473.318 263.973 473.468 263.1C473.545 262.227 472.967 261.497 472.097 261.347C471.952 261.347 471.879 261.345 471.735 261.345L408.522 261.313C407.578 261.307 406.775 262.105 406.771 263.05L406.779 275.64C406.775 276.586 407.568 277.389 408.512 277.395L471.651 277.5Z" fill="#5DCEE7"/>
<path d="M445.738 271.453H413.992V270.487H445.738V271.453Z" fill="#E3EAFF"/>
<path d="M451.236 268.724H419.491V267.758H451.236V268.724Z" fill="#E3EAFF"/>
<path d="M429.035 266.692H415.407V265.726H429.035V266.692Z" fill="#E3EAFF"/>
<path d="M467.11 273.228H435.363V272.264H467.11V273.228Z" fill="#E3EAFF"/>
<path d="M44.3704 240.197C44.3704 238.38 35.0196 236.908 23.4847 236.908C11.95 236.908 2.59912 238.38 2.59912 240.197C2.59912 242.011 11.95 243.486 23.4847 243.486C35.0196 243.486 44.3704 242.011 44.3704 240.197Z" fill="#FFDABB"/>
<path d="M17.7905 285.004L28.9188 199.12L36.7653 200.145L25.6369 286.031L17.7905 285.004Z" fill="#B0173E"/>
<path d="M17.2428 289.189L17.7901 285.004L25.6365 286.031L25.0891 290.216C24.896 291.694 23.5417 292.733 22.0645 292.541L19.5677 292.215C18.0903 292.021 17.0497 290.667 17.2428 289.189Z" fill="#E62552"/>
<path d="M17.7622 285.216L18.2518 281.474L26.1064 282.501L25.617 286.243L17.7622 285.216Z" fill="#F3C8B9"/>
<path d="M17.6114 284.96L17.6332 284.794C17.6498 284.665 17.7675 284.574 17.8959 284.592L25.6877 285.611C25.8159 285.627 25.9063 285.744 25.8895 285.872L25.8677 286.039C25.8509 286.167 25.7334 286.258 25.6051 286.243L17.8134 285.223C17.685 285.206 17.5946 285.089 17.6114 284.96Z" fill="#F3AE9C"/>
<path d="M17.8223 283.156L17.8439 282.989C17.8609 282.861 17.9785 282.772 18.1069 282.787L25.8984 283.807C26.0266 283.824 26.1173 283.941 26.1004 284.07L26.0787 284.236C26.0619 284.365 25.9441 284.454 25.8161 284.438L18.0242 283.419C17.8959 283.401 17.8055 283.284 17.8223 283.156Z" fill="#F3AE9C"/>
<path d="M18.088 281.274L18.1097 281.107C18.1263 280.979 18.2441 280.89 18.3723 280.906L26.164 281.925C26.2923 281.942 26.3829 282.059 26.3659 282.188L26.3441 282.354C26.3273 282.483 26.2099 282.574 26.0815 282.556L18.2898 281.537C18.1616 281.521 18.0711 281.402 18.088 281.274Z" fill="#F3AE9C"/>
<path d="M32.7032 200.695C34.8697 200.98 36.6877 200.737 36.7642 200.153C36.7644 200.151 36.7642 200.149 36.7644 200.145H36.765L36.7646 200.143C36.7698 200.086 36.7575 200.026 36.7296 199.967L35.4214 193.33L34.4888 188.602C34.4571 188.442 34.241 188.412 34.1684 188.559L32.034 192.853L29.0014 198.954C28.9589 199.003 28.9316 199.057 28.9211 199.114L28.9189 199.12H28.9203C28.9199 199.122 28.9189 199.124 28.9185 199.128C28.8421 199.71 30.5368 200.412 32.7032 200.695Z" fill="#F3C8B9"/>
<path d="M33.7495 193.334C33.0781 193.247 32.4777 193.07 32.0337 192.853L34.1681 188.559C34.2407 188.412 34.4568 188.442 34.4885 188.602L35.4211 193.33C34.9535 193.407 34.3711 193.415 33.7495 193.334Z" fill="#E62552"/>
<path d="M20.2882 210.106L25.7002 278.064L17.8143 278.721L12.4023 210.765L20.2882 210.106Z" fill="#3F964F"/>
<path d="M19.9374 205.901L20.2884 210.106L12.4029 210.765L12.0515 206.558C11.9278 205.074 13.0308 203.77 14.5155 203.645L17.0247 203.438C18.5094 203.313 19.8135 204.415 19.9374 205.901Z" fill="#E62552"/>
<path d="M20.2709 209.895L20.5847 213.656L12.6905 214.315L12.3765 210.554L20.2709 209.895Z" fill="#F3C8B9"/>
<path d="M20.4727 210.112L20.4866 210.281C20.4974 210.409 20.4017 210.522 20.2727 210.534L12.4418 211.187C12.3129 211.197 12.1994 211.102 12.1887 210.973L12.1746 210.805C12.1641 210.676 12.2599 210.564 12.3887 210.552L20.2198 209.899C20.3486 209.889 20.4618 209.984 20.4727 210.112Z" fill="#F3AE9C"/>
<path d="M20.6487 211.921L20.6627 212.087C20.6734 212.216 20.5774 212.331 20.4486 212.341L12.6177 212.994C12.4887 213.005 12.3757 212.908 12.3646 212.78L12.351 212.614C12.3399 212.485 12.4359 212.37 12.5649 212.36L20.3956 211.707C20.5246 211.695 20.638 211.792 20.6487 211.921Z" fill="#F3AE9C"/>
<path d="M20.7868 213.815L20.8009 213.983C20.8113 214.112 20.7158 214.224 20.5869 214.236L12.7558 214.889C12.627 214.899 12.5138 214.804 12.5029 214.676L12.4891 214.507C12.4784 214.379 12.574 214.266 12.703 214.256L20.5339 213.601C20.6627 213.591 20.7761 213.686 20.7868 213.815Z" fill="#F3AE9C"/>
<path d="M21.668 277.324C19.4907 277.506 17.7649 278.127 17.814 278.713C17.8144 278.715 17.815 278.719 17.8154 278.721H17.8146L17.816 278.723C17.8229 278.782 17.8473 278.838 17.8874 278.889L20.5709 285.097L22.4835 289.522C22.5482 289.672 22.7655 289.654 22.8057 289.496L23.9827 284.848L25.6548 278.242C25.6859 278.185 25.7011 278.127 25.6989 278.068L25.7005 278.064H25.6989C25.6989 278.06 25.6993 278.058 25.6991 278.056C25.6502 277.47 23.8455 277.142 21.668 277.324Z" fill="#F3C8B9"/>
<path d="M22.2037 284.741C22.8787 284.685 23.5025 284.729 23.9825 284.848L22.8055 289.496C22.7653 289.654 22.5481 289.672 22.4834 289.522L20.5708 285.097C21.0115 284.923 21.579 284.794 22.2037 284.741Z" fill="#E62552"/>
<path d="M21.3 285.506L0.0078125 212.752L7.53634 210.534L28.8287 283.288L21.3 285.506Z" fill="#0E6A41"/>
<path d="M22.483 289.522L21.2998 285.506L28.8283 283.288L30.0117 287.303C30.429 288.722 29.6187 290.208 28.2012 290.626L25.8056 291.332C24.3882 291.75 22.9007 290.938 22.483 289.522Z" fill="#E62552"/>
<path d="M21.3596 285.708L20.3018 282.117L27.8384 279.896L28.8965 283.488L21.3596 285.708Z" fill="#F3C8B9"/>
<path d="M21.1201 285.538L21.073 285.378C21.0368 285.255 21.1072 285.124 21.2303 285.089L28.7064 282.886C28.8297 282.851 28.9587 282.92 28.9949 283.043L29.042 283.203C29.0784 283.326 29.0078 283.456 28.8849 283.492L21.4086 285.694C21.2853 285.73 21.1563 285.661 21.1201 285.538Z" fill="#F3AE9C"/>
<path d="M20.5869 283.816L20.5398 283.656C20.5036 283.533 20.574 283.405 20.6971 283.367L28.1734 281.165C28.2965 281.129 28.4255 281.2 28.4621 281.323L28.509 281.483C28.545 281.606 28.475 281.735 28.3517 281.77L20.8756 283.973C20.7525 284.01 20.6233 283.939 20.5869 283.816Z" fill="#F3AE9C"/>
<path d="M20.0732 282.004L20.0261 281.844C19.9899 281.721 20.0603 281.592 20.1834 281.555L27.6595 279.352C27.7826 279.317 27.912 279.386 27.948 279.511L27.9951 279.669C28.0315 279.792 27.9611 279.922 27.838 279.958L20.3617 282.16C20.2384 282.196 20.1094 282.127 20.0732 282.004Z" fill="#F3AE9C"/>
<path d="M4.07336 212.661C6.15194 212.05 7.70375 211.1 7.53891 210.54C7.53812 210.538 7.53674 210.536 7.53614 210.534H7.53654L7.53515 210.53C7.51655 210.476 7.48192 210.427 7.43245 210.383L3.5828 204.89L0.839326 200.976C0.746518 200.843 0.538938 200.905 0.531616 201.065L0.318692 205.816L0.0165216 212.568C-0.00207954 212.629 -0.00524637 212.689 0.00840768 212.746L0.0082096 212.752L0.00919999 212.75C0.0101894 212.754 0.0101887 212.756 0.0109803 212.758C0.17562 213.318 1.99458 213.275 4.07336 212.661Z" fill="#F3C8B9"/>
<path d="M2.06815 205.565C1.42364 205.753 0.80881 205.836 0.318848 205.816L0.531772 201.065C0.539094 200.905 0.746673 200.843 0.839481 200.976L3.58296 204.89C3.18996 205.149 2.66457 205.389 2.06815 205.565Z" fill="#3F964F"/>
<path d="M44.9188 217.499L33.0661 276.455L25.3838 274.846L37.2365 215.891L44.9188 217.499Z" fill="#0E6A41"/>
<path d="M45.7765 213.399L44.9191 217.499L37.2368 215.891L38.0943 211.792C38.3968 210.346 39.8145 209.42 41.261 209.722L43.7055 210.233C45.1516 210.536 46.0789 211.955 45.7765 213.399Z" fill="#E62552"/>
<path d="M44.9624 217.292L44.1958 220.956L36.5054 219.348L37.272 215.683L44.9624 217.292Z" fill="#F3C8B9"/>
<path d="M45.0928 217.555L45.0588 217.719C45.0325 217.844 44.9094 217.925 44.7837 217.899L37.1549 216.302C37.0294 216.276 36.9489 216.154 36.9752 216.027L37.0092 215.865C37.0354 215.738 37.1586 215.659 37.2843 215.685L44.9128 217.28C45.0386 217.307 45.1191 217.43 45.0928 217.555Z" fill="#F3AE9C"/>
<path d="M44.7477 219.324L44.7137 219.486C44.6874 219.613 44.5643 219.692 44.4386 219.666L36.81 218.071C36.6843 218.044 36.6038 217.921 36.6299 217.796L36.6642 217.632C36.6905 217.507 36.8136 217.426 36.939 217.454L44.5679 219.049C44.6933 219.075 44.7741 219.197 44.7477 219.324Z" fill="#F3AE9C"/>
<path d="M44.3433 221.164L44.3093 221.326C44.283 221.453 44.1599 221.534 44.034 221.507L36.4056 219.912C36.2797 219.886 36.1994 219.761 36.2257 219.637L36.2597 219.474C36.286 219.348 36.4091 219.266 36.5348 219.294L44.1634 220.889C44.2891 220.915 44.3694 221.04 44.3433 221.164Z" fill="#F3AE9C"/>
<path d="M29.442 274.611C27.3209 274.166 25.5045 274.269 25.3852 274.84C25.3846 274.842 25.3848 274.844 25.3842 274.848L25.3836 274.846L25.384 274.85C25.3743 274.908 25.382 274.967 25.4052 275.028L26.1981 281.689L26.7634 286.436C26.7824 286.597 26.9942 286.64 27.0769 286.502L29.5121 282.417L32.9715 276.613C33.0176 276.566 33.0486 276.515 33.0631 276.459L33.0657 276.455L33.0645 276.453C33.0651 276.451 33.0663 276.449 33.0669 276.447C33.1862 275.875 31.5631 275.054 29.442 274.611Z" fill="#F3C8B9"/>
<path d="M27.8516 281.812C28.5089 281.95 29.0893 282.168 29.5122 282.417L27.077 286.502C26.9943 286.64 26.7826 286.597 26.7636 286.436L26.1982 281.689C26.6666 281.648 27.2429 281.685 27.8516 281.812Z" fill="#3F964F"/>
<path d="M44.3568 240.314L43.1632 250.325L42.6325 254.779V254.781L39.3015 282.742L38.7868 287.058L37.91 294.419H8.10078L7.34724 286.997L6.9107 282.695L4.08847 254.878L3.64343 250.485L2.60889 240.294C2.93421 242.065 12.1556 243.486 23.4853 243.486C34.7697 243.486 43.964 242.077 44.3568 240.314Z" fill="#FFFBEF"/>
<path d="M2.59912 240.197L2.60902 240.294C2.60169 240.262 2.59912 240.23 2.59912 240.197Z" fill="#DE6280"/>
<path d="M44.3704 240.197C44.3704 240.236 44.3654 240.274 44.3569 240.314L44.3704 240.197Z" fill="#DE6280"/>
<path d="M39.3019 282.742L38.7872 287.058C34.9633 287.729 29.4104 288.152 23.2325 288.152C16.8738 288.152 11.1775 287.705 7.34767 286.996L6.91113 282.694C10.7376 283.448 16.6269 283.931 23.2301 283.931C29.694 283.931 35.4718 283.468 39.3019 282.742Z" fill="#FFDABB"/>
<path d="M43.1633 250.324L42.6326 254.779V254.781C39.5561 255.994 32.0293 256.849 23.2322 256.849C14.6711 256.849 7.31333 256.039 4.0886 254.878L3.64355 250.485C6.5956 251.737 14.2504 252.63 23.2298 252.63C32.587 252.63 40.5061 251.66 43.1633 250.324Z" fill="#FFDABB"/>
<path d="M440.372 218.408H432.502C431.245 218.408 430.228 217.391 430.228 216.134C430.228 214.879 431.245 213.862 432.502 213.862H438.098V199.08H432.502C431.245 199.08 430.228 198.063 430.228 196.809C430.228 195.554 431.245 194.537 432.502 194.537H440.372C441.626 194.537 442.643 195.554 442.643 196.809V216.134C442.643 217.391 441.626 218.408 440.372 218.408Z" fill="#4F5361"/>
<path d="M432.502 187.807V225.134C432.502 226.361 431.506 227.354 430.279 227.354H405.178C403.953 227.354 402.958 226.361 402.958 225.134V187.807C402.958 186.584 403.953 185.586 405.178 185.586H430.279C431.506 185.586 432.502 186.584 432.502 187.807Z" fill="#5DCEE7"/>
<path d="M416.028 181.611C416.028 181.611 404.901 176.883 408.344 168.323C411.787 159.764 424.309 160.892 417.187 148.493C425.775 153.454 427.066 164.5 420.395 167.203C413.724 169.91 413.384 176.757 416.028 181.611Z" fill="white"/>
<path d="M426.486 181.611C426.486 181.611 418.573 178.249 421.021 172.162C423.47 166.077 432.373 166.878 427.309 158.061C433.416 161.589 434.334 169.443 429.591 171.366C424.848 173.29 424.604 178.158 426.486 181.611Z" fill="white"/>
<path d="M417.611 202.949C421.749 198.152 425.559 202.664 424.666 206.038C423.954 209.804 417.606 214.826 417.491 214.333C403.924 204.322 413.897 197.277 417.611 202.949Z" fill="#4F5361"/>
<path d="M432.502 224.012V225.134C432.502 226.361 431.506 227.354 430.279 227.354H405.178C403.953 227.354 402.958 226.361 402.958 225.134V224.012H432.502Z" fill="#4F5361"/>
<path d="M376.479 73.1759C373.686 73.1759 371.417 75.4477 371.417 78.2379C371.417 81.03 373.686 83.3017 376.479 83.3017C379.269 83.3017 381.54 81.03 381.54 78.2379C381.54 75.4477 379.269 73.1759 376.479 73.1759ZM376.479 85.2252C372.626 85.2252 369.491 82.0907 369.491 78.2379C369.491 74.387 372.626 71.2525 376.479 71.2525C380.329 71.2525 383.464 74.387 383.464 78.2379C383.464 82.0907 380.329 85.2252 376.479 85.2252Z" fill="white"/>
<path d="M81.8215 83.3373C79.0301 83.3373 76.7592 85.6091 76.7592 88.3992C76.7592 91.1914 79.0301 93.4611 81.8215 93.4611C84.6126 93.4611 86.8834 91.1914 86.8834 88.3992C86.8834 85.6091 84.6126 83.3373 81.8215 83.3373ZM81.8215 95.3865C77.9691 95.3865 74.835 92.252 74.835 88.3992C74.835 84.5464 77.9691 81.4139 81.8215 81.4139C85.6737 81.4139 88.8078 84.5464 88.8078 88.3992C88.8078 92.252 85.6737 95.3865 81.8215 95.3865Z" fill="white"/>
<path d="M7.70568 128.96C5.82933 128.96 4.30265 130.485 4.30265 132.363C4.30265 134.239 5.82933 135.765 7.70568 135.765C9.58202 135.765 11.1087 134.239 11.1087 132.363C11.1087 130.485 9.58202 128.96 7.70568 128.96ZM7.70568 137.059C5.11596 137.059 3.00928 134.952 3.00928 132.363C3.00928 129.773 5.11596 127.665 7.70568 127.665C10.2954 127.665 12.4023 129.773 12.4023 132.363C12.4023 134.952 10.2954 137.059 7.70568 137.059Z" fill="white"/>
<path d="M211.36 2.69557C208.584 2.39875 206.086 4.41716 205.79 7.1915C205.495 9.96782 207.513 12.4671 210.288 12.762C213.064 13.0588 215.561 11.0404 215.858 8.26406C216.153 5.48971 214.134 2.99042 211.36 2.69557ZM210.084 14.6755C206.253 14.2679 203.468 10.8187 203.876 6.98967C204.284 3.15862 207.733 0.374361 211.564 0.782003C215.395 1.18965 218.179 4.63681 217.772 8.46786C217.364 12.2989 213.915 15.0832 210.084 14.6755Z" fill="white"/>
<path d="M393.717 67.0257C393.717 69.1965 391.955 70.9576 389.785 70.9576C387.612 70.9576 385.851 69.1965 385.851 67.0257C385.851 64.8529 387.612 63.0917 389.785 63.0917C391.955 63.0917 393.717 64.8529 393.717 67.0257Z" fill="white"/>
<path d="M201.63 21.455C201.398 23.6159 199.461 25.1792 197.302 24.9496C195.143 24.7201 193.578 22.7828 193.807 20.6219C194.039 18.463 195.976 16.8997 198.135 17.1292C200.294 17.3588 201.859 19.2961 201.63 21.455Z" fill="white"/>
<path d="M197.322 78.2378C197.322 80.4106 195.561 82.1718 193.39 82.1718C191.217 82.1718 189.458 80.4106 189.458 78.2378C189.458 76.067 191.217 74.3058 193.39 74.3058C195.561 74.3058 197.322 76.067 197.322 78.2378Z" fill="white"/>
<path d="M465.657 189.772C465.657 191.943 463.898 193.704 461.725 193.704C459.555 193.704 457.793 191.943 457.793 189.772C457.793 187.599 459.555 185.84 461.725 185.84C463.898 185.84 465.657 187.599 465.657 189.772Z" fill="white"/>
<path d="M81.8217 230.641C81.8217 232.814 80.0609 234.575 77.8891 234.575C75.7173 234.575 73.9565 232.814 73.9565 230.641C73.9565 228.47 75.7173 226.709 77.8891 226.709C80.0609 226.709 81.8217 228.47 81.8217 230.641Z" fill="white"/>
<path d="M28.8855 108.748C28.8855 114.18 24.4825 118.583 19.0514 118.583C13.6202 118.583 9.21729 114.18 9.21729 108.748C9.21729 103.318 13.6202 98.9149 19.0514 98.9149C24.4825 98.9149 28.8855 103.318 28.8855 108.748Z" fill="white"/>
</svg>
