<svg width="370" height="166" viewBox="0 0 370 166" fill="none" xmlns="http://www.w3.org/2000/svg">
<mask id="mask0" mask-type="alpha" maskUnits="userSpaceOnUse" x="0" y="0" width="370" height="166">
<rect width="369.706" height="165.899" rx="16" fill="url(#paint0_linear)"/>
</mask>
<g mask="url(#mask0)">
<path d="M83.0945 148.123C94.1335 146.317 120.547 147.28 137.888 165.585H179.435C184.854 153.743 206.189 137.638 224.594 139.091C247.475 140.898 256.263 157.458 289.624 147.521C317.924 139.091 317.924 114.404 317.924 94.5337C317.924 74.6635 337.192 52.9869 370.309 55.3954V165.585H179.435C172.811 173.212 155.229 183.889 137.888 165.585H46.9668C52.5867 161.169 67.68 151.495 83.0945 148.123Z" fill="#C48AFA"/>
<rect x="351.641" y="98.7485" width="6.02128" height="67.4383" fill="#FFE68D"/>
<path d="M340.118 48.1079C337.949 48.1079 336.193 51.6187 336.193 55.9564H344.042C344.042 51.6187 342.286 48.1079 340.118 48.1079Z" fill="#E7ECED"/>
<path d="M372.802 79.9215L364.764 73.2229C361.58 70.5714 359.74 66.6406 359.74 62.4967C359.74 62.4967 359.74 48.7082 356.838 44.1679C356.328 43.3686 355.456 42.8755 354.507 42.8755C353.559 42.8755 352.687 43.3686 352.176 44.1679C349.275 48.7082 349.275 62.4967 349.275 62.4967C349.275 66.6407 347.435 70.5714 344.251 73.2242L336.213 79.9229C334.543 81.3134 333.578 83.3736 333.578 85.5476V86.0421H349.275V91.2743H354.507H359.74V86.0421H375.437V85.5476C375.437 83.3734 374.471 81.3132 372.802 79.9215Z" fill="#E7ECED"/>
<path d="M368.897 48.1079C371.066 48.1079 372.821 51.6187 372.821 55.9564H364.973C364.973 51.6187 366.728 48.1079 368.897 48.1079Z" fill="#E7ECED"/>
<path d="M347.968 87.3503C347.246 87.3503 346.66 86.7642 346.66 86.0422V75.5776C346.66 74.8556 347.246 74.2695 347.968 74.2695C348.69 74.2695 349.276 74.8556 349.276 75.5776V86.0422C349.276 86.7642 348.69 87.3503 347.968 87.3503Z" fill="#ADADAD"/>
<path d="M361.048 87.3498C360.326 87.3498 359.74 86.7637 359.74 86.0417V75.5771C359.74 74.8551 360.326 74.269 361.048 74.269C361.77 74.269 362.356 74.8551 362.356 75.5771V86.0417C362.356 86.7637 361.77 87.3498 361.048 87.3498Z" fill="#ADADAD"/>
<path d="M372.803 79.9213C372.809 79.9265 372.815 79.9331 372.821 79.9383V55.9561H364.973V73.3967L372.803 79.9213Z" fill="#C7CAC7"/>
<path d="M336.212 79.9218L344.042 73.3972V55.9565H336.193V79.9402C336.2 79.9348 336.205 79.9284 336.212 79.9218Z" fill="#C7CAC7"/>
<path d="M344.251 73.224C347.435 70.5711 349.275 66.6405 349.275 62.4964C349.275 62.4964 349.275 48.7079 352.177 44.1676C352.687 43.3684 353.559 42.8752 354.508 42.8752C355.456 42.8752 356.328 43.3684 356.839 44.1676C359.74 48.7079 359.74 62.4964 359.74 62.4964C359.74 66.6405 361.58 70.5711 364.764 73.224L364.972 73.3966V48.1077C364.972 40.8779 361.048 37.643 354.508 33.7188C347.967 37.643 344.043 40.8779 344.043 48.1077V73.3967L344.251 73.224Z" fill="#EB7938"/>
<path d="M349.674 54.6478H359.339C359.174 52.9145 358.94 51.0977 358.608 49.4155H350.404C350.074 51.0977 349.84 52.9147 349.674 54.6478Z" fill="#C7CAC7"/>
<path d="M345.35 103.047C341.426 103.047 341.426 98.9525 341.426 96.5063C341.426 95.7843 342.012 95.1982 342.734 95.1982C343.456 95.1982 344.042 95.7843 344.042 96.5063C344.042 100.431 344.619 100.431 345.35 100.431C346.072 100.431 346.658 101.017 346.658 101.739C346.658 102.461 346.072 103.047 345.35 103.047Z" fill="#CB443A"/>
<path d="M363.665 103.047C362.943 103.047 362.357 102.461 362.357 101.739C362.357 101.017 362.943 100.431 363.665 100.431C364.397 100.431 364.973 100.431 364.973 96.5068C364.973 95.7848 365.56 95.1987 366.282 95.1987C367.004 95.1987 367.59 95.7848 367.59 96.5068C367.59 98.9527 367.59 103.047 363.665 103.047Z" fill="#CB443A"/>
<path d="M358.432 91.2749H350.584V99.1234H358.432V91.2749Z" fill="#435766"/>
<path d="M345.352 91.2754H334.887V96.5072H345.352V91.2754Z" fill="#435766"/>
<path d="M374.129 91.2749H363.664V96.5067H374.129V91.2749Z" fill="#435766"/>
<path d="M308.803 149.234C304.036 149.224 299.775 150.893 298.892 153.117C298.221 154.808 299.727 156.36 301.109 157.363C303.745 159.278 306.23 160.024 308.423 160.685C311.471 161.599 313.879 162.324 314.577 165.745C314.714 166.415 314.829 167.105 314.945 167.797C315.751 172.631 316.514 177.198 324.811 176.601C326.76 176.461 328.507 176.255 330.048 176.072C336.467 175.312 340.708 174.809 348.37 180.421C349.796 181.465 351.096 182.475 352.352 183.45C359.21 188.775 363.349 191.989 369.893 186.957C371.77 185.514 372.615 183.831 372.407 181.954C371.872 177.128 364.637 171.87 359.619 169.928C359.251 169.785 350.549 166.299 346.602 157.005C345.96 155.493 345.44 154.066 344.982 152.809C343.767 149.475 342.889 147.066 340.977 146.39C339.227 145.77 336.452 146.494 331.978 148.736C322.993 153.239 317.702 151.573 313.451 150.236C311.749 149.699 310.28 149.236 308.803 149.234ZM351.587 184.34C350.335 183.367 349.041 182.362 347.627 181.327C340.324 175.979 336.486 176.433 330.126 177.186C328.572 177.37 326.811 177.578 324.834 177.723C315.517 178.392 314.599 172.89 313.789 168.035C313.675 167.355 313.562 166.677 313.428 166.02C312.856 163.212 310.931 162.634 308.017 161.757C305.852 161.107 303.157 160.298 300.37 158.272C297.321 156.058 297.29 154.058 297.801 152.77C298.877 150.058 303.532 148.097 308.871 148.11C310.53 148.114 312.152 148.625 313.871 149.166C317.915 150.438 322.948 152.023 331.483 147.747C336.348 145.307 339.325 144.585 341.434 145.332C343.828 146.18 344.776 148.782 346.089 152.386C346.543 153.631 347.059 155.045 347.69 156.533C351.459 165.408 360.025 168.85 360.11 168.883C365.179 170.845 372.964 176.298 373.57 181.773C373.826 184.07 372.824 186.103 370.594 187.819C369.705 188.502 368.852 189.043 368.026 189.462C362.071 192.479 357.556 188.974 351.587 184.34Z" fill="black"/>
<path d="M373.332 193.504L374.363 192.919C373.841 192.017 361.444 170.854 348.81 169.224C334.95 167.434 327.882 161.544 323.771 157.269C318.928 152.235 308.837 155.344 308.41 155.479L308.719 156.545C308.817 156.515 318.531 153.523 322.891 158.057C327.116 162.45 334.375 168.501 348.591 170.336C360.684 171.898 373.207 193.289 373.332 193.504Z" fill="black"/>
<path d="M295.248 95.1889C300.844 89.6692 305.543 102.385 312.867 109.843C320.192 117.301 346.224 97.8154 345.507 126.147C344.79 154.479 364.444 125.905 366.171 149.437C367.898 172.969 385.829 189.987 374.334 189.172C362.84 188.356 354.313 161.942 343.669 163.681C333.026 165.421 329.812 162.79 334.891 150.29C339.968 137.788 303.121 146.6 303.151 126.538C303.182 106.475 288.783 101.567 295.248 95.1889Z" fill="#F79938"/>
<path d="M371.476 187.823C370.494 184.093 361.666 151.361 354.094 150.698C347.421 150.115 341.331 137.784 336.253 125.797C331.758 115.187 317.33 116.474 316.717 116.532L316.89 117.63C317.032 117.615 331.146 116.361 335.306 126.181C340.522 138.491 346.831 151.161 354.086 151.794C359.835 152.298 367.865 178.132 370.474 188.043L371.476 187.823Z" fill="white"/>
<path d="M45.9773 67.4742C45.9773 67.4742 56.6664 66.3555 60.5161 76.6619C64.3627 86.9682 67.992 90.3425 68.4449 95.7555C70.278 117.655 80.5172 112.703 77.6376 125.327C74.758 137.95 72.7628 139.857 72.7628 139.857L48.2847 135.064L23.4883 135.144C23.4883 135.144 33.189 130.306 31.0316 119.999C28.8711 109.693 23.4883 92.7999 26.5301 81.2954C29.5657 69.791 39.5938 68.3514 45.9773 67.4742Z" fill="#16202E"/>
<path d="M96.2165 165.938H80.9644C77.8016 160.181 75.2322 155.676 75.2322 155.676C75.2322 155.676 73.1774 159.425 71.5802 165.938H20.2307C19.4479 161.874 19.4006 157.978 19.5647 155.206C19.5647 155.206 16.8217 160.159 13.6368 165.938H-3.61328C0.960446 157.375 9.53974 141.786 11.4904 139.755C13.9399 137.192 28.1282 127.397 38.2573 124.203C48.3927 121.006 54.1502 124.09 54.1502 124.09C54.1502 124.09 64.557 125.962 74.178 129.774C77.9594 131.271 88.4074 150.544 96.2165 165.938Z" fill="#FAA146"/>
<path d="M47.3861 73.5033C47.3861 73.5033 61.5381 75.5413 59.4672 96.4056C57.3962 117.273 44.9064 115.616 44.0707 115.598C43.238 115.579 31.5412 116.033 30.5286 90.5719C30.5286 90.5719 30.0589 71.7456 47.3861 73.5033Z" fill="#8E4F3A"/>
<path d="M53.6757 111.897C53.6757 111.897 52.8003 122.751 54.8927 126.001C56.985 129.255 53.1023 133.666 45.1021 132.158C37.1019 130.647 37.5655 126.117 37.5655 126.117C37.5655 126.117 39.8073 119.421 39.1516 114.059C38.4958 108.698 53.6757 111.897 53.6757 111.897Z" fill="#8E4F3A"/>
<path d="M45.77 81.0643C45.77 81.0643 52.3824 88.0069 55.4507 91.5224C58.5221 95.0378 58.8759 101.828 58.8759 101.828C58.8759 101.828 64.0488 95.5161 61.8863 88.1653C59.7238 80.8176 54.6028 66.515 41.6463 70.9078C28.6868 75.3037 28.2079 94.6388 29.7269 104.226C29.7269 104.226 35.5433 83.0597 45.77 81.0643Z" fill="#16202E"/>
<path d="M58.6454 125.044C58.6454 125.044 48.8304 149.869 42.8646 154.186C42.8646 154.186 35.0321 128.864 35.5781 125.157C35.5781 125.157 47.3969 120.53 58.6454 125.044Z" fill="#8E4F3A"/>
<path d="M37.9033 119.04C37.9033 119.04 20.4084 134.588 24.9499 144.288C28.8234 152.565 42.5637 147.487 40.2976 138.814C38.0314 130.141 37.9033 119.04 37.9033 119.04Z" fill="#16202E"/>
<path d="M40.1914 114.652C40.1914 114.652 46.2235 117.498 52.0939 113.293C52.0939 113.293 50.4646 116.657 46.1442 117.136C41.8238 117.614 40.1914 114.652 40.1914 114.652Z" fill="#633029"/>
<path d="M98.9665 132.183V120.506H84.4273V132.183C78.1695 134.969 73.8066 141.242 73.8066 148.534C73.8066 158.414 81.8161 166.424 91.6967 166.424C101.577 166.424 109.587 158.414 109.587 148.534C109.587 141.242 105.224 134.969 98.9665 132.183Z" fill="#C9FFF7"/>
<path d="M105.967 148.535C105.967 156.404 99.5663 162.804 91.6968 162.804C89.1082 162.804 86.6789 162.112 84.5841 160.901C80.3095 158.434 77.4277 153.815 77.4277 148.535C77.4277 144.588 79.0629 140.894 81.8118 138.247H101.583C104.332 140.894 105.967 144.588 105.967 148.535Z" fill="#F7D360"/>
<path d="M87.6958 132.184V128.952C87.6958 127.202 89.1148 125.783 90.8652 125.783H98.9665V122.317L96.0834 119.694L93.3683 118.97L84.4278 122.317V132.184C78.1691 134.97 73.8066 141.242 73.8066 148.535C73.8066 158.373 81.7473 166.356 91.5706 166.423C86.1907 166.299 81.8513 158.337 81.8513 148.535C81.8513 141.242 84.2526 134.97 87.6958 132.184Z" fill="#72CEC0"/>
<path d="M84.5841 160.901C80.3095 158.434 77.4277 153.815 77.4277 148.535C77.4277 144.588 79.0629 140.894 81.8118 138.247H83.6427C82.5141 141.157 81.8519 144.705 81.8519 148.535C81.8519 153.332 82.8909 157.688 84.5841 160.901Z" fill="#E58E13"/>
<path d="M85.559 158.645L73.9406 138.522V128.11H62.899V138.522L51.2807 158.645C49.2845 162.103 51.7795 166.425 55.7724 166.425H81.0678C85.0601 166.425 87.5556 162.103 85.559 158.645Z" fill="#E6E6E6"/>
<path d="M73.9413 128.11L70.5607 126.21L64.0819 126.278L62.8992 128.11V138.521L51.2814 158.646C49.2838 162.103 51.7797 166.425 55.7717 166.425H62.6773C60.8643 166.425 59.7312 162.103 60.6374 158.646L65.9138 138.521V133.176C65.9138 132.077 66.8043 131.187 67.9027 131.187H73.9413V128.11Z" fill="#CCCCCC"/>
<path d="M77.9429 125.757C77.9429 127.056 76.8895 128.11 75.5897 128.11H61.2477C60.5985 128.11 60.0097 127.847 59.5838 127.42C59.1579 126.995 58.8945 126.406 58.8945 125.757C58.8945 124.457 59.948 123.403 61.2477 123.403H75.5897C76.2389 123.403 76.8278 123.666 77.2537 124.092C77.6796 124.518 77.9429 125.107 77.9429 125.757Z" fill="#CCCCCC"/>
<path d="M77.9428 125.757C77.9428 127.056 76.8893 128.11 75.5896 128.11H66.9548C66.3042 128.11 65.7167 127.847 65.2904 127.42C64.8645 126.995 64.6016 126.406 64.6016 125.757C64.6016 124.457 65.655 123.403 66.9548 123.403H75.5896C76.2388 123.403 76.8276 123.666 77.2535 124.092C77.6794 124.518 77.9428 125.107 77.9428 125.757Z" fill="#E6E6E6"/>
<path d="M103.02 119.964C103.02 121.263 101.967 122.317 100.667 122.317H82.9259C82.2754 122.317 81.6874 122.054 81.2615 121.628C80.8356 121.202 80.5723 120.613 80.5723 119.964C80.5723 118.664 81.6262 117.61 82.9259 117.61H100.667C101.316 117.61 101.905 117.873 102.331 118.3C102.757 118.725 103.02 119.314 103.02 119.964Z" fill="#72CEC0"/>
<path d="M103.02 119.964C103.02 121.263 101.967 122.317 100.667 122.317H88.4255C87.7763 122.317 87.1874 122.054 86.7611 121.628C86.3352 121.202 86.0723 120.613 86.0723 119.964C86.0723 118.664 87.1257 117.61 88.4255 117.61H100.667C101.316 117.61 101.905 117.873 102.331 118.3C102.758 118.725 103.02 119.314 103.02 119.964Z" fill="#C9FFF7"/>
<path d="M82.4234 162.021C82.2545 162.314 81.8539 162.804 81.0683 162.804H55.7724C54.9855 162.804 54.5848 162.314 54.416 162.021C54.2471 161.729 54.0225 161.136 54.416 160.456L62.954 145.667H73.8867L82.4234 160.456C82.8168 161.136 82.5922 161.729 82.4234 162.021Z" fill="#FC5F61"/>
<path d="M60.6368 158.645C60.2812 160.003 60.2398 161.493 60.4306 162.804H55.7724C54.9855 162.804 54.5848 162.314 54.416 162.021C54.2471 161.729 54.0225 161.136 54.416 160.456L62.954 145.667H64.039L60.6368 158.645Z" fill="#E83842"/>
<path d="M70.3667 155.984C69.5447 155.984 69.1534 154.928 69.7797 154.391C70.4023 153.858 71.3797 154.402 71.2622 155.213C71.1987 155.651 70.8088 155.984 70.3667 155.984Z" fill="#E83842"/>
<path d="M66.3738 118.879C65.5837 118.879 65.1776 117.891 65.734 117.333C66.0348 117.032 66.5223 116.985 66.8757 117.221C67.1855 117.427 67.3399 117.815 67.2548 118.178C67.1603 118.582 66.7902 118.879 66.3738 118.879Z" fill="#E83842"/>
<path d="M69.9743 115.439C69.1554 115.439 68.7552 114.378 69.3864 113.845C69.6866 113.591 70.1247 113.559 70.4583 113.769C70.7788 113.971 70.9423 114.368 70.8558 114.738C70.7613 115.141 70.3912 115.439 69.9743 115.439Z" fill="#E83842"/>
<path d="M68.0141 110.19C67.6188 110.19 67.2632 109.924 67.1475 109.547C67.0327 109.171 67.184 108.75 67.5108 108.532C68.1825 108.083 69.0915 108.717 68.8911 109.505C68.7898 109.902 68.4247 110.19 68.0141 110.19Z" fill="#E83842"/>
<path d="M99.6421 143.858C98.8376 143.858 98.4365 142.831 99.0299 142.286C99.5985 141.765 100.547 142.181 100.547 142.953C100.547 143.445 100.135 143.858 99.6421 143.858Z" fill="white"/>
<path d="M100.272 149.894C99.484 149.894 99.0707 148.906 99.6325 148.35C99.9135 148.072 100.35 148.007 100.699 148.192C101.034 148.37 101.222 148.749 101.168 149.123C101.104 149.562 100.714 149.894 100.272 149.894Z" fill="white"/>
<path d="M88.4683 156.71C88.0811 156.71 87.7308 156.455 87.6093 156.088C87.4805 155.701 87.6367 155.262 87.9802 155.042C88.6618 154.606 89.5568 155.262 89.3403 156.045C89.2336 156.432 88.8707 156.71 88.4683 156.71Z" fill="white"/>
<path d="M84.3054 149.106C83.4874 149.106 83.0903 148.051 83.7138 147.517C84.0132 147.26 84.4517 147.228 84.7862 147.435C85.1036 147.633 85.2684 148.022 85.1909 148.388C85.1036 148.801 84.7286 149.106 84.3054 149.106Z" fill="white"/>
<path d="M95.3446 146.935C94.5356 146.935 94.1349 145.901 94.7373 145.36C95.0376 145.09 95.4869 145.052 95.829 145.266C96.1419 145.462 96.3045 145.845 96.2329 146.207C96.15 146.625 95.7701 146.935 95.3446 146.935Z" fill="white"/>
<path d="M64.0328 157.86C63.6695 157.86 63.3359 157.636 63.1963 157.301C63.0432 156.933 63.1576 156.49 63.4718 156.244C64.117 155.739 65.0858 156.321 64.9197 157.132C64.8341 157.55 64.4605 157.86 64.0328 157.86Z" fill="#E83842"/>
<path d="M66.3844 152.003C66.0058 152.003 65.6601 151.76 65.5322 151.403C65.3962 151.024 65.5353 150.586 65.8667 150.356C66.5109 149.91 67.4145 150.476 67.2754 151.253C67.1988 151.681 66.8202 152.003 66.3844 152.003Z" fill="#E83842"/>
</g>
<defs>
<linearGradient id="paint0_linear" x1="267.241" y1="-1.20737e-06" x2="241.407" y2="181.415" gradientUnits="userSpaceOnUse">
<stop stop-color="#9B51E0"/>
<stop offset="1" stop-color="#9B51E0"/>
</linearGradient>
</defs>
</svg>
