<svg width="370" height="166" viewBox="0 0 370 166" fill="none" xmlns="http://www.w3.org/2000/svg">
<mask id="mask0" mask-type="alpha" maskUnits="userSpaceOnUse" x="0" y="0" width="370" height="166">
<rect x="0.222656" width="369.706" height="165.899" rx="16" fill="url(#paint0_linear)"/>
</mask>
<g mask="url(#mask0)">
<path d="M83.3171 148.123C94.3561 146.317 120.769 147.28 138.111 165.585H179.658C185.077 153.743 206.412 137.638 224.817 139.091C247.698 140.898 256.486 157.458 289.847 147.521C318.147 139.091 318.147 114.404 318.147 94.5337C318.147 74.6635 337.415 52.9869 370.532 55.3954V165.585H179.658C173.034 173.212 155.452 183.889 138.111 165.585H47.1895C52.8093 161.169 67.9026 151.495 83.3171 148.123Z" fill="#39B99A"/>
<path d="M9.36753 249.281C4.27034 249.281 0.140625 245.151 0.140625 240.057V166.376C0.140625 151.788 9.68161 139.962 21.4463 139.962H69.6169C81.3816 139.962 90.919 151.788 90.919 166.376V249.281H9.36753Z" fill="#F99746"/>
<path d="M10.3153 249.281C7.52121 249.281 5.25781 247.014 5.25781 244.223V166.376C5.25781 151.788 14.7952 139.962 26.5599 139.962H74.7341C86.4987 139.962 96.0361 151.788 96.0361 166.376V186.389V249.281H10.3153Z" fill="#CC6A27"/>
<path d="M61.7065 109.815L60.8293 109.992C56.9306 110.782 53.0933 108.234 52.3063 104.332L51.3821 99.7542C50.5916 95.8555 53.1402 92.0181 57.0389 91.2276L57.9161 91.0507C61.8148 90.2637 65.6522 92.8123 66.4391 96.711L67.3668 101.292C68.1538 105.191 65.6088 109.028 61.7065 109.815Z" fill="#122544"/>
<path d="M93.094 207.178C84.3399 221.163 29.6571 225.376 29.6571 225.376C28.733 223.141 24.578 187.093 23.8704 184.606C22.0907 178.386 20.9392 171.531 20.2064 164.816C20.1955 164.73 20.1883 164.643 20.1775 164.556C18.9176 152.907 18.9104 141.706 19.0837 134.973C19.1812 131.078 19.3328 128.681 19.3436 128.562C19.4772 128.504 19.6107 128.45 19.7443 128.396C23.051 127.01 26.2241 125.811 29.2672 124.775L29.2925 124.771C31.8483 123.898 34.3103 123.147 36.6784 122.497C40.8406 121.353 44.7104 120.533 48.295 119.963C52.515 119.295 56.3379 118.978 59.7637 118.905C59.9154 118.898 60.0669 118.898 60.2222 118.895C61.1246 118.88 62.0019 118.884 62.8466 118.902C71.3876 119.086 77.0696 120.786 79.9467 121.916C80.3438 122.075 80.6867 122.223 80.9755 122.356C81.0116 122.371 81.0513 122.385 81.0874 122.403C81.4123 122.548 81.665 122.671 81.8419 122.757L81.9105 122.797C81.9935 122.84 82.0765 122.887 82.1559 122.934L86.6539 170.217L93.094 207.178Z" fill="#D2E3FC"/>
<path d="M150.873 181.497C144.62 184.4 107.438 186.836 103.868 185.807C102.038 185.277 94.3703 178.526 86.6595 170.22L86.6523 170.216C79.3567 162.357 71.996 153.112 69.516 146.456C64.4116 132.781 68.7977 120.641 68.7977 120.641C68.7977 120.641 78.2845 120.602 82.1543 122.934C86.0205 125.276 108.135 166 111.091 167.076C114.048 168.155 149.075 170.158 153.085 172.061C153.085 172.061 157.118 178.595 150.873 181.497Z" fill="#D2E3FC"/>
<path d="M60.2157 120.548L60.2084 122.851C60.2084 122.851 60.8438 130.053 51.9815 131.118C43.1155 132.186 36.3939 128.334 36.6249 122.775C37.4155 118.472 38.2891 115.515 38.3432 111.956C38.3613 110.635 38.271 109.231 38.0219 107.646L55.2015 107.278L60.2625 108.094L60.2157 120.548Z" fill="#C57A46"/>
<path d="M60.2621 108.094L60.2152 120.548C58.3922 121.4 56.3346 121.923 54.0242 121.927C46.1294 121.938 38.2706 109.231 38.0215 107.646L60.2621 108.094Z" fill="#B46C3B"/>
<path d="M61.2757 114.147C61.2757 114.147 39.2805 118.624 36.7031 104.884C34.122 91.1416 29.5482 82.4633 43.4825 79.0231C57.4203 75.5829 61.1385 80.3118 63.1167 84.6907C65.0913 89.0695 66.9324 112.628 61.2757 114.147Z" fill="#C57A46"/>
<path d="M67.375 74.4707C67.375 74.4707 61.2382 74.0086 53.9967 70.8752C48.1198 68.3303 40.7122 71.1532 38.308 72.4239C38.373 72.0377 38.5282 71.507 38.8928 70.9763C38.8928 70.9763 37.8135 71.7416 37.6583 72.8138C37.5463 72.8968 37.4958 72.9546 37.5247 72.9726C37.5247 72.9726 36.3009 72.7488 35.514 73.1062C35.514 73.1062 36.0663 73.0268 36.2612 73.3805C36.2829 73.4166 36.3154 73.4491 36.3515 73.478C27.1932 77.9182 26.3701 92.4011 29.323 95.7475C32.8787 99.7726 37.1457 108.844 37.1457 108.844C37.1457 108.844 38.6943 106.696 38.0445 103.151C37.3947 99.6029 40.4559 99.5993 44.3257 97.9821C48.1919 96.3612 44.9611 91.8524 48.3436 89.1053C51.7261 86.3581 64.1441 87.9537 63.9781 85.8564C68.5843 84.1705 67.3786 74.9436 67.375 74.4707Z" fill="#1B1716"/>
<path d="M27.598 212.065C26.5476 204.947 24.0351 195.907 22.8582 188.218C21.88 181.822 20.9414 171.53 20.2086 164.815C20.1977 164.729 20.1905 164.642 20.1797 164.555C20.2266 164.577 20.306 164.707 20.3566 164.642C22.7861 161.693 29.4174 158.466 37.4459 170.219C39.0487 172.562 45.6079 186.959 45.3732 189.911C44.3047 203.362 27.598 212.065 27.598 212.065Z" fill="#B7D3F3"/>
<path d="M37.4441 191.717H-21.3396C-21.4984 190.963 -21.502 190.266 -21.2963 189.743C-19.5419 185.313 -16.1197 178.021 -12.1777 170.199C-9.27892 164.444 -6.10218 158.398 -3.10235 152.994C1.06348 145.489 4.87913 139.211 7.12088 136.637C8.88612 134.612 11.1171 132.912 13.4454 131.511C15.4201 130.32 17.4597 129.345 19.344 128.562C19.4776 128.504 19.6112 128.45 19.7447 128.396C23.8348 126.739 27.0837 126.01 27.0837 126.01C27.0837 126.01 27.127 127.869 27.1306 130.724C27.1415 139.009 26.8238 155.708 24.1813 159.78C23.4413 160.918 22.0695 162.632 20.3548 164.643C20.3043 164.701 20.2573 164.758 20.2068 164.816C19.279 165.903 18.2466 167.076 17.1673 168.282C11.034 175.151 3.2619 183.223 2.31611 184.209C2.25113 184.274 2.21863 184.306 2.21863 184.306H2.33056L18.8134 184.537L23.8708 184.606L34.354 184.75C35.0796 185.064 35.6428 185.577 36.0723 186.212C37.0867 187.696 37.3972 189.855 37.4441 191.717Z" fill="#D2E3FC"/>
<path d="M150.873 181.497C144.621 184.4 107.439 186.836 103.869 185.807C102.038 185.277 94.3709 178.526 86.6602 170.22C87.0392 170.27 90.566 164.393 106.648 178.458C106.648 178.458 110.857 180.335 122.319 179.284C133.78 178.234 148.498 177.851 150.873 181.497Z" fill="#B7D3F3"/>
<path d="M43.0938 109.815L42.2166 109.992C38.3143 110.782 34.4806 108.234 33.69 104.332L32.7659 99.7542C31.9789 95.8555 34.5239 92.0181 38.4262 91.2276L39.2998 91.0507C43.2021 90.2637 47.0394 92.8123 47.8264 96.711L48.7506 101.292C49.5375 105.191 46.9925 109.028 43.0938 109.815Z" fill="#122544"/>
<path d="M36.2753 93.3257C35.6904 92.268 34.8277 83.745 37.1705 76.9584C38.304 73.6769 40.1342 71.807 42.4301 70.5472C43.2604 70.0887 44.1918 69.8468 45.1412 69.8468L47.4479 69.8829C39.8491 73.103 38.0838 90.3222 38.6758 92.1561C38.6578 92.1019 38.6361 92.0586 38.6181 92.0297L36.2753 93.3257Z" fill="#122544"/>
<path d="M58.4602 111.252C45.6848 111.252 39.3602 101.155 39.2988 101.05L40.4395 100.354L39.8692 100.704L40.4395 100.354C40.4973 100.448 46.4537 109.913 58.4602 109.913C58.5397 109.913 58.619 109.913 58.7021 109.909L58.7165 111.248C58.6299 111.248 58.5433 111.252 58.4602 111.252Z" fill="#122544"/>
<path d="M41.0341 105.332L40.5973 105.422C38.6552 105.812 36.7419 104.545 36.3484 102.603L35.89 100.321C35.4965 98.3757 36.7636 96.466 38.7093 96.0725L39.1461 95.9859C41.0883 95.5924 42.9979 96.8595 43.3914 98.8052L43.8535 101.087C44.2469 103.029 42.9763 104.938 41.0341 105.332Z" fill="#2B478B"/>
<path d="M60.0458 111.696H58.8401C58.2264 111.696 57.7246 111.195 57.7246 110.581C57.7246 109.967 58.2264 109.465 58.8401 109.465H60.0458C60.6595 109.465 61.1612 109.967 61.1612 110.581C61.1612 111.195 60.6595 111.696 60.0458 111.696Z" fill="#122544"/>
<path d="M165.218 133.672L149.457 179.962H83.3164L99.5068 133.672H165.218Z" fill="#ED7D2B"/>
<path d="M165.219 133.672L149.603 179.536L149.458 179.962H84.2852L100.476 133.672H165.219Z" fill="#F99746"/>
<path d="M130.76 156.389C130.352 158.158 128.587 159.591 126.818 159.591C125.05 159.591 123.948 158.158 124.356 156.389C124.764 154.62 126.53 153.187 128.298 153.187C130.067 153.187 131.172 154.62 130.76 156.389Z" fill="#FFC397"/>
<path d="M165.219 133.672L149.602 179.536H119.658L156.172 133.672H165.219Z" fill="#ED7D2B"/>
<path d="M298.198 166.011H287.57C286.109 166.011 284.924 164.826 284.924 163.365V131.48C284.924 130.018 286.109 128.833 287.57 128.833H298.198C299.66 128.833 300.844 130.018 300.844 131.48V163.365C300.844 164.826 299.66 166.011 298.198 166.011Z" fill="#FFDD6C"/>
<path d="M319.458 166.011H308.83C307.368 166.011 306.184 164.826 306.184 163.365V120.851C306.184 119.39 307.368 118.205 308.83 118.205H319.458C320.919 118.205 322.104 119.39 322.104 120.851V163.365C322.104 164.826 320.919 166.011 319.458 166.011Z" fill="#F77600"/>
<path d="M340.716 166.011H330.087C328.626 166.011 327.441 164.826 327.441 163.365V110.223C327.441 108.761 328.626 107.577 330.087 107.577H340.716C342.177 107.577 343.362 108.761 343.362 110.223V163.365C343.362 164.826 342.177 166.011 340.716 166.011Z" fill="#1FB4FF"/>
<path d="M361.972 166.011H351.343C349.882 166.011 348.697 164.826 348.697 163.365V99.5943C348.697 98.133 349.882 96.9482 351.343 96.9482H361.972C363.433 96.9482 364.618 98.133 364.618 99.5943V163.365C364.618 164.826 363.433 166.011 361.972 166.011Z" fill="#FF4C5B"/>
<path d="M298.199 128.833H292.885V166.011H298.199C299.66 166.011 300.845 164.826 300.845 163.365V131.48C300.845 130.018 299.66 128.833 298.199 128.833Z" fill="#FEC300"/>
<path d="M319.455 118.206H314.141V166.011H319.455C320.916 166.011 322.101 164.826 322.101 163.365V120.852C322.101 119.39 320.916 118.206 319.455 118.206Z" fill="#FF4C5B"/>
<path d="M340.715 107.577H335.4V166.011H340.715C342.176 166.011 343.361 164.826 343.361 163.365V110.223C343.361 108.761 342.176 107.577 340.715 107.577Z" fill="#2982FF"/>
<path d="M361.97 96.9482H356.656V166.011H361.97C363.432 166.011 364.617 164.826 364.617 163.365V99.5943C364.617 98.1328 363.432 96.9482 361.97 96.9482Z" fill="#D90048"/>
<path d="M366.437 169.8H254.202C252.273 169.8 250.709 167.913 250.709 165.585C250.709 163.257 252.273 161.37 254.202 161.37H366.437C368.366 161.37 369.93 163.257 369.93 165.585C369.93 167.913 368.366 169.8 366.437 169.8Z" fill="#384949"/>
<path d="M361.97 75.8682H351.342C349.88 75.8682 348.696 77.0529 348.696 78.5142C348.696 79.9756 349.88 81.1603 351.342 81.1603H355.441C352.589 83.5924 348.309 86.8097 342.413 90.1695C331.154 96.5858 311.532 104.847 281.997 107.766C280.543 107.91 279.481 109.205 279.624 110.659C279.759 112.025 280.91 113.045 282.254 113.045C282.341 113.045 282.429 113.041 282.518 113.032C296.036 111.696 308.707 109.162 320.178 105.501C329.393 102.559 337.863 98.8868 345.353 94.5847C351.722 90.9264 356.297 87.4389 359.324 84.8112V89.1424C359.324 90.6038 360.509 91.7885 361.97 91.7885C363.432 91.7885 364.616 90.6038 364.616 89.1424V78.5141C364.616 77.0527 363.432 75.8682 361.97 75.8682Z" fill="#D9E9FA"/>
<path d="M367.32 161.37H325.373V169.8H367.32C368.762 169.8 369.93 167.913 369.93 165.585C369.93 163.257 368.762 161.37 367.32 161.37Z" fill="#151F1F"/>
<path d="M361.97 75.8682H351.342C349.881 75.8682 348.696 77.0529 348.696 78.5142C348.696 79.9756 349.881 81.1603 351.342 81.1603H355.441C352.589 83.5924 348.31 86.8097 342.414 90.1695C337.907 92.7379 332.058 95.6018 324.771 98.3005V103.95C332.219 101.302 339.125 98.1618 345.353 94.5849C351.722 90.9266 356.297 87.4391 359.325 84.8113V89.1426C359.325 90.6039 360.509 91.7887 361.971 91.7887C363.432 91.7887 364.617 90.6039 364.617 89.1426V78.5142C364.617 77.0527 363.432 75.8682 361.97 75.8682Z" fill="#BFD9F5"/>
</g>
<defs>
<linearGradient id="paint0_linear" x1="267.463" y1="-1.20737e-06" x2="241.63" y2="181.415" gradientUnits="userSpaceOnUse">
<stop stop-color="#15B86A"/>
<stop offset="1" stop-color="#15B86A"/>
</linearGradient>
</defs>
</svg>
