<svg width="74" height="74" viewBox="0 0 74 74" fill="none" xmlns="http://www.w3.org/2000/svg">
<path d="M58.3884 34.1809L54.8725 28.9072H49.2461V34.1809H58.3884Z" fill="white"/>
<path d="M23.7556 28.9072H18.1291L14.6133 34.1809H23.7556V28.9072Z" fill="white"/>
<path d="M42.9324 18.3906H37.8182V15.6367H39.8104V13H35.1815V18.3906H30.0672L26.3945 24.1037H46.6052L42.9324 18.3906Z" fill="white"/>
<path d="M14 36.8179V57.9989H23.7551V36.8179H14ZM20.1813 51.5838H17.5446V47.7167H20.1813V51.5838ZM17.5446 45.0798V41.2127H20.1813V45.0798H17.5446Z" fill="white"/>
<path d="M49.2461 57.9989H59.0011V36.8179H49.2461V57.9989ZM52.8198 41.2127H55.4565V45.0798H52.8198V41.2127ZM55.4565 47.7167V51.5838H52.8198V47.7167H55.4565Z" fill="white"/>
<path d="M36.5001 49.855C35.5308 49.855 34.7422 50.6436 34.7422 51.6129V57.9991H38.2581V51.6129C38.2581 50.6436 37.4695 49.855 36.5001 49.855Z" fill="white"/>
<path d="M26.3926 26.7402V57.9988H26.8321H32.1056V51.6126C32.1056 49.1894 34.0771 47.218 36.5002 47.218C38.9234 47.218 40.8949 49.1894 40.8949 51.6126V57.9988H46.1684H46.608V26.7402H26.3926ZM32.9844 44.6402H30.3478V40.773H32.9844V44.6402ZM37.8186 44.6402H35.1819V40.773H37.8186V44.6402ZM36.5002 37.3744C34.5133 37.3744 32.8968 35.7579 32.8968 33.771C32.8968 31.7841 34.5133 30.1676 36.5002 30.1676C38.4872 30.1676 40.1037 31.7841 40.1037 33.771C40.1037 35.7579 38.4872 37.3744 36.5002 37.3744ZM42.6528 44.6402H40.0162V40.773H42.6528V44.6402Z" fill="white"/>
<path d="M36.5 34.7382C37.0339 34.7382 37.4668 34.3054 37.4668 33.7715C37.4668 33.2375 37.0339 32.8047 36.5 32.8047C35.966 32.8047 35.5332 33.2375 35.5332 33.7715C35.5332 34.3054 35.966 34.7382 36.5 34.7382Z" fill="white"/>
</svg>
