<svg width="1364" height="201" viewBox="0 0 1364 201" fill="none" xmlns="http://www.w3.org/2000/svg">
<g clip-path="url(#clip0)">
<path d="M161.177 92.8445C157.408 92.5333 154.598 89.2123 154.909 85.4451C155.223 81.6758 158.544 78.8636 162.311 79.177C166.081 79.4882 168.89 82.8092 168.579 86.579C168.266 90.3457 164.944 93.1579 161.177 92.8445ZM162.526 76.5789C157.325 76.1468 152.743 80.0281 152.311 85.2269C151.879 90.4284 155.76 95.0106 160.962 95.4427C166.163 95.8748 170.745 91.996 171.177 86.7946C171.609 81.5931 167.728 77.0109 162.526 76.5789Z" fill="white"/>
<path d="M153.002 65.4075C153.244 62.4732 151.063 59.9003 148.132 59.6566C145.201 59.4128 142.625 61.5925 142.381 64.5263C142.14 67.4579 144.32 70.0309 147.251 70.2746C150.183 70.5183 152.758 68.3387 153.002 65.4075" fill="white"/>
<path d="M92.0575 96.7794C92.2969 95.5273 91.4759 94.3183 90.2249 94.0792C88.9728 93.8398 87.765 94.6609 87.5256 95.9131C87.2865 97.1641 88.1062 98.3728 89.3584 98.6122C90.6094 98.8514 91.8184 98.0304 92.0575 96.7794Z" fill="white"/>
<path d="M204.417 206.416C205.798 199.188 201.06 192.209 193.833 190.828C186.606 189.446 179.627 194.185 178.245 201.413C176.864 208.638 181.603 215.617 188.83 216.998C196.057 218.38 203.035 213.641 204.417 206.416Z" fill="white"/>
</g>
<defs>
<clipPath id="clip0">
<rect width="1364" height="201" fill="white"/>
</clipPath>
</defs>
</svg>
