<svg width="1366" height="455" viewBox="0 0 1366 455" fill="none" xmlns="http://www.w3.org/2000/svg">
<g clip-path="url(#clip0)">
<rect y="-4" width="1368" height="433" fill="#209FBC"/>
<path d="M345.762 314.815C151.115 372.876 0 141.67 192.146 -4H0V475H659C653.996 427.48 575.403 246.317 345.762 314.815Z" fill="white" fill-opacity="0.1"/>
<path d="M509.77 375.675C221.117 428.977 370.696 57.526 57.0293 -3H2V475H942C936.997 427.579 744.964 332.245 509.77 375.675Z" fill="white" fill-opacity="0.1"/>
<path d="M180.128 68.572C183.832 67.8088 186.224 64.1736 185.461 60.4715C184.697 56.7667 181.064 54.376 177.36 55.1392C173.656 55.9023 171.264 59.5348 172.027 63.2396C172.79 66.9417 176.424 69.3352 180.128 68.572ZM176.833 52.5844C181.945 51.5311 186.961 54.8332 188.014 59.9454C189.067 65.0575 185.765 70.0708 180.654 71.1241C175.542 72.1774 170.527 68.8779 169.474 63.7657C168.421 58.6536 171.722 53.6377 176.833 52.5844Z" fill="white"/>
<path d="M30.2972 210.99C34.0621 210.625 36.8239 207.264 36.4592 203.502C36.0913 199.737 32.7298 196.973 28.968 197.34C25.203 197.706 22.4413 201.067 22.8066 204.831C23.1739 208.593 26.5354 211.358 30.2972 210.99ZM28.7153 194.746C33.91 194.239 38.5473 198.054 39.0533 203.246C39.5599 208.441 35.7446 213.078 30.5499 213.585C25.3552 214.092 20.7184 210.279 20.2119 205.084C19.7053 199.89 23.5205 195.252 28.7153 194.746Z" fill="white"/>
<path d="M38.0786 183.439C37.795 180.508 39.9381 177.904 42.8654 177.619C45.7928 177.333 48.3994 179.475 48.6856 182.405C48.9687 185.333 46.8256 187.937 43.8982 188.223C40.9709 188.509 38.3643 186.366 38.0786 183.439Z" fill="white"/>
<path d="M28.2697 106.918C27.6756 104.035 29.5309 101.216 32.4112 100.623C35.2942 100.029 38.1099 101.884 38.704 104.767C39.2975 107.648 37.4449 110.466 34.5619 111.06C31.6815 111.653 28.8632 109.798 28.2697 106.918Z" fill="white"/>
<path d="M78.0342 51.502C77.7769 50.2534 78.5804 49.0328 79.8279 48.7758C81.0765 48.5185 82.2959 49.3222 82.5532 50.5708C82.8103 51.8183 82.0079 53.0387 80.7593 53.2959C79.5119 53.553 78.2913 52.7495 78.0342 51.502Z" fill="white"/>
<path d="M99.4663 213.934C99.209 212.686 100.013 211.465 101.26 211.208C102.509 210.951 103.728 211.754 103.985 213.003C104.242 214.25 103.44 215.471 102.191 215.728C100.944 215.985 99.7234 215.182 99.4663 213.934Z" fill="white"/>
<path d="M236.466 80.9342C236.209 79.6856 237.013 78.465 238.26 78.2079C239.509 77.9506 240.728 78.7544 240.985 80.003C241.242 81.2504 240.44 82.4708 239.191 82.7281C237.944 82.9851 236.723 82.1816 236.466 80.9342Z" fill="white"/>
<path d="M345.466 51.9342C345.209 50.6856 346.013 49.465 347.26 49.2079C348.509 48.9506 349.728 49.7544 349.985 51.003C350.242 52.2504 349.44 53.4708 348.191 53.7281C346.944 53.9851 345.723 53.1816 345.466 51.9342Z" fill="white"/>
<path d="M-11.3103 325.17C-12.7954 317.962 -8.15716 310.916 -0.950791 309.431C6.25558 307.946 13.3015 312.585 14.7866 319.792C16.2713 326.997 11.633 334.043 4.42665 335.528C-2.77972 337.013 -9.82563 332.374 -11.3103 325.17Z" fill="white"/>
<path d="M1354.22 175.588C1357.94 174.878 1360.38 171.278 1359.67 167.565C1358.96 163.849 1355.36 161.407 1351.65 162.117C1347.94 162.827 1345.49 166.425 1346.2 170.14C1346.91 173.853 1350.51 176.298 1354.22 175.588ZM1351.16 159.555C1356.29 158.575 1361.25 161.949 1362.23 167.075C1363.21 172.202 1359.84 177.168 1354.71 178.147C1349.59 179.127 1344.62 175.756 1343.64 170.63C1342.66 165.503 1346.03 160.535 1351.16 159.555Z" fill="white"/>
<path d="M1202.37 315.844C1206.14 315.533 1208.95 312.212 1208.64 308.445C1208.32 304.676 1205 301.864 1201.23 302.177C1197.46 302.488 1194.66 305.809 1194.97 309.579C1195.28 313.346 1198.6 316.158 1202.37 315.844ZM1201.02 299.579C1206.22 299.147 1210.8 303.028 1211.23 308.227C1211.67 313.428 1207.78 318.011 1202.58 318.443C1197.38 318.875 1192.8 314.996 1192.37 309.795C1191.94 304.593 1195.82 300.011 1201.02 299.579Z" fill="white"/>
<path d="M1210.54 288.407C1210.3 285.473 1212.48 282.9 1215.41 282.656C1218.34 282.413 1220.92 284.592 1221.16 287.526C1221.41 290.458 1219.23 293.031 1216.29 293.274C1213.36 293.518 1210.79 291.339 1210.54 288.407Z" fill="white"/>
<path d="M1205.48 211.056C1205.31 210.178 1205.88 209.331 1206.76 209.163C1207.64 208.995 1208.48 209.571 1208.65 210.449C1208.82 211.326 1208.25 212.173 1207.37 212.341C1206.49 212.509 1205.64 211.933 1205.48 211.056Z" fill="white"/>
<path d="M1271.49 319.779C1271.25 318.527 1272.07 317.318 1273.32 317.079C1274.57 316.84 1275.78 317.661 1276.02 318.913C1276.26 320.164 1275.44 321.373 1274.19 321.612C1272.94 321.851 1271.73 321.03 1271.49 319.779Z" fill="white"/>
<path d="M1159.13 429.416C1157.75 422.188 1162.48 415.209 1169.71 413.828C1176.94 412.446 1183.92 417.185 1185.3 424.413C1186.68 431.638 1181.94 438.617 1174.71 439.998C1167.49 441.38 1160.51 436.641 1159.13 429.416Z" fill="white"/>
<path d="M284.313 174.265C281.52 174.265 279.251 176.535 279.251 179.327C279.251 182.117 281.52 184.389 284.313 184.389C287.103 184.389 289.374 182.117 289.374 179.327C289.374 176.535 287.103 174.265 284.313 174.265ZM284.313 186.313C280.46 186.313 277.325 183.178 277.325 179.327C277.325 175.474 280.46 172.34 284.313 172.34C288.165 172.34 291.298 175.474 291.298 179.327C291.298 183.178 288.165 186.313 284.313 186.313Z" fill="#209FBC"/>
<path d="M288.244 195.653C288.244 197.824 286.483 199.585 284.312 199.585C282.14 199.585 280.38 197.824 280.38 195.653C280.38 193.48 282.14 191.721 284.312 191.721C286.483 191.721 288.244 193.48 288.244 195.653Z" fill="#209FBC"/>
</g>
<defs>
<clipPath id="clip0">
<rect width="1368" height="455" fill="white"/>
</clipPath>
</defs>
</svg>
