<svg width="202" height="104" viewBox="0 0 202 104" fill="none" xmlns="http://www.w3.org/2000/svg">
<g clip-path="url(#clip0)">
<path d="M9.82261 188.434C4.72542 188.434 0.595703 184.304 0.595703 179.211V105.529C0.595703 90.9411 10.1367 79.115 21.9014 79.115H70.072C81.8367 79.115 91.374 90.9411 91.374 105.529V188.434H9.82261" fill="#F99746"/>
<path d="M10.7704 188.434C7.97629 188.434 5.71289 186.167 5.71289 183.376V105.529C5.71289 90.9411 15.2502 79.115 27.0149 79.115H75.1891C86.9538 79.115 96.4912 90.9411 96.4912 105.529V125.542V188.434H10.7704" fill="#CC6A27"/>
<path d="M62.1616 48.9685L61.2844 49.1454C57.3857 49.936 53.5484 47.3874 52.7614 43.4851L51.8372 38.9077C51.0467 35.009 53.5953 31.1717 57.494 30.3811L58.3712 30.2043C62.2699 29.4173 66.1072 31.9659 66.8942 35.8646L67.8219 40.4456C68.6089 44.3443 66.0639 48.1816 62.1616 48.9685" fill="#122544"/>
<path d="M93.549 146.332C84.795 160.317 30.1122 164.529 30.1122 164.529C29.1881 162.295 25.033 126.246 24.3255 123.759C22.5458 117.539 21.3942 110.684 20.6614 103.969C20.6506 103.883 20.6434 103.796 20.6326 103.71C19.3727 92.0604 19.3655 80.8589 19.5388 74.1264C19.6362 70.2313 19.7879 67.8343 19.7987 67.7152C19.9323 67.6574 20.0658 67.6033 20.1994 67.5492C23.5061 66.163 26.6792 64.9645 29.7223 63.9284L29.7476 63.9248C32.3034 63.0512 34.7654 62.3003 37.1335 61.6506C41.2957 60.5062 45.1655 59.6868 48.7501 59.1164C52.9701 58.4486 56.793 58.1309 60.2188 58.0587C60.3704 58.0515 60.522 58.0515 60.6772 58.0479C61.5797 58.0334 62.457 58.0371 63.3017 58.0551C71.8427 58.2392 77.5247 59.9395 80.4018 61.0694C80.7989 61.2282 81.1418 61.3762 81.4306 61.5098C81.4667 61.5242 81.5064 61.5387 81.5425 61.5567C81.8674 61.7011 82.1201 61.8238 82.297 61.9105L82.3656 61.9502C82.4486 61.9935 82.5316 62.0404 82.611 62.0874L87.109 109.37L93.549 146.332" fill="#D2E3FC"/>
<path d="M151.328 120.65C145.075 123.553 107.893 125.99 104.323 124.961C102.493 124.43 94.8253 117.68 87.1146 109.373L87.1074 109.37C79.8118 101.511 72.4511 92.2658 69.9711 85.6091C64.8667 71.9348 69.2527 59.7947 69.2527 59.7947C69.2527 59.7947 78.7396 59.755 82.6094 62.087C86.4756 64.4298 108.59 105.153 111.546 106.229C114.503 107.308 149.53 109.312 153.54 111.214C153.54 111.214 157.573 117.748 151.328 120.65" fill="#D2E3FC"/>
<path d="M60.6707 59.701L60.6635 62.0041C60.6635 62.0041 61.2989 69.2059 52.4366 70.2708C43.5706 71.3394 36.849 67.4876 37.08 61.9283C37.8706 57.6253 38.7442 54.6688 38.7983 51.1095C38.8163 49.7882 38.7261 48.384 38.477 46.7992L55.6566 46.431L60.7176 47.2469L60.6707 59.701" fill="#C57A46"/>
<path d="M60.7172 47.2467L60.6703 59.7008C58.8473 60.5528 56.7897 61.0762 54.4793 61.0798C46.5844 61.0907 38.7256 48.3838 38.4766 46.7991L60.7172 47.2467Z" fill="#B46C3B"/>
<path d="M61.7307 53.3006C61.7307 53.3006 39.7356 57.7769 37.1581 44.0376C34.5771 30.2946 30.0033 21.6164 43.9376 18.1762C57.8754 14.7359 61.5936 19.4649 63.5718 23.8437C65.5464 28.2226 67.3875 51.7808 61.7307 53.3006Z" fill="#C57A46"/>
<path d="M67.8301 13.6241C67.8301 13.6241 61.6932 13.162 54.4518 10.0286C48.5748 7.48358 41.1673 10.3065 38.7631 11.5772C38.8281 11.191 38.9833 10.6603 39.3479 10.1296C39.3479 10.1296 38.2686 10.895 38.1133 11.9671C38.0014 12.0501 37.9509 12.1079 37.9798 12.1259C37.9798 12.1259 36.756 11.9021 35.969 12.2595C35.969 12.2595 36.5214 12.1801 36.7163 12.5339C36.738 12.57 36.7705 12.6025 36.8066 12.6313C27.6482 17.0715 26.8251 31.5544 29.778 34.9008C33.3338 38.9259 37.6008 47.9976 37.6008 47.9976C37.6008 47.9976 39.1493 45.8497 38.4996 42.3048C37.8498 38.7562 40.911 38.7526 44.7808 37.1354C48.647 35.5145 45.4162 31.0057 48.7987 28.2586C52.1811 25.5115 64.5992 27.107 64.4332 25.0097C69.0394 23.3239 67.8337 14.097 67.8301 13.6241" fill="#1B1716"/>
<path d="M28.0531 151.219C27.0026 144.1 24.4902 135.061 23.3133 127.372C22.335 120.975 21.3964 110.683 20.6636 103.969C20.6528 103.882 20.6456 103.796 20.6348 103.709C20.6817 103.731 20.7611 103.861 20.8117 103.796C23.2411 100.846 29.8725 97.6191 37.9009 109.373C39.5037 111.716 46.0629 126.112 45.8283 129.065C44.7598 142.516 28.0531 151.219 28.0531 151.219" fill="#B7D3F3"/>
<path d="M37.8992 130.87H-20.8845C-21.0434 130.116 -21.047 129.419 -20.8412 128.896C-19.0868 124.466 -15.6646 117.174 -11.7226 109.352C-8.82384 103.598 -5.64711 97.5509 -2.64727 92.1469C1.51856 84.6419 5.3342 78.3643 7.57596 75.7904C9.3412 73.7653 11.5721 72.065 13.9005 70.6643C15.8751 69.4731 17.9148 68.4984 19.7991 67.715C19.9327 67.6573 20.0662 67.6031 20.1998 67.549C24.2898 65.8921 27.5387 65.1628 27.5387 65.1628C27.5387 65.1628 27.5821 67.022 27.5857 69.8774C27.5965 78.1621 27.2789 94.8615 24.6364 98.9335C23.8964 100.071 22.5246 101.785 20.8099 103.796C20.7594 103.854 20.7124 103.912 20.6619 103.969C19.7341 105.056 18.7017 106.229 17.6224 107.435C11.4891 114.305 3.71698 122.376 2.77118 123.362C2.70621 123.427 2.67371 123.459 2.67371 123.459H2.78564L19.2685 123.69L24.3259 123.759L34.8091 123.903C35.5347 124.217 36.0978 124.73 36.5274 125.365C37.5418 126.849 37.8523 129.008 37.8992 130.87" fill="#D2E3FC"/>
<path d="M151.326 120.65C145.074 123.553 107.892 125.99 104.322 124.961C102.491 124.43 94.824 117.68 87.1133 109.373C87.4923 109.424 91.0192 103.547 107.101 117.611C107.101 117.611 111.311 119.488 122.772 118.438C134.233 117.387 148.951 117.004 151.326 120.65" fill="#B7D3F3"/>
<path d="M43.5489 48.9685L42.6717 49.1454C38.7694 49.936 34.9357 47.3874 34.1451 43.4851L33.221 38.9077C32.434 35.009 34.979 31.1717 38.8813 30.3811L39.7549 30.2043C43.6572 29.4173 47.4945 31.9659 48.2815 35.8646L49.2057 40.4456C49.9926 44.3443 47.4476 48.1816 43.5489 48.9685Z" fill="#122544"/>
<path d="M36.7303 32.479C36.1455 31.4213 35.2828 22.8983 37.6256 16.1117C38.7591 12.8303 40.5893 10.9603 42.8852 9.70049C43.7155 9.24203 44.6469 9.00016 45.5963 9.00016L47.903 9.03625C40.3041 12.2563 38.5389 29.4755 39.1309 31.3094C39.1129 31.2552 39.0912 31.2119 39.0732 31.183L36.7303 32.479Z" fill="#122544"/>
<path d="M58.9153 50.4055C46.1399 50.4055 39.8153 40.3086 39.7539 40.2039L40.8946 39.5072L40.3243 39.8574L40.8946 39.5072C40.9524 39.6011 46.9088 49.0663 58.9153 49.0663C58.9947 49.0663 59.0741 49.0662 59.1572 49.0626L59.1716 50.4019C59.085 50.4019 58.9983 50.4055 58.9153 50.4055" fill="#122544"/>
<path d="M41.4892 44.4853L41.0524 44.5755C39.1103 44.9654 37.197 43.6983 36.8035 41.7562L36.3451 39.4747C35.9516 37.529 37.2187 35.6193 39.1644 35.2258L39.6012 35.1392C41.5433 34.7458 43.453 36.0128 43.8465 37.9586L44.3085 40.24C44.702 42.1822 43.4313 44.0918 41.4892 44.4853" fill="#2B478B"/>
<path d="M60.5009 50.8496H59.2952C58.6815 50.8496 58.1797 50.3479 58.1797 49.7342C58.1797 49.1205 58.6815 48.6187 59.2952 48.6187H60.5009C61.1146 48.6187 61.6163 49.1205 61.6163 49.7342C61.6163 50.3479 61.1146 50.8496 60.5009 50.8496Z" fill="#122544"/>
<path d="M147.579 73.1535L131.818 119.443H65.6777L81.8682 73.1535H147.579Z" fill="#ED7D2B"/>
<path d="M147.581 73.1535L131.964 119.017L131.82 119.443H66.6465L82.8369 73.1535H147.581Z" fill="#F99746"/>
<path d="M113.122 95.8708C112.714 97.6396 110.949 99.0728 109.18 99.0728C107.411 99.0728 106.31 97.6396 106.718 95.8708C107.126 94.1019 108.891 92.6688 110.66 92.6688C112.429 92.6688 113.533 94.1019 113.122 95.8708Z" fill="#FFC397"/>
<path d="M147.58 73.1532L131.964 119.017H102.02L138.534 73.1532H147.58Z" fill="#ED7D2B"/>
</g>
<defs>
<clipPath id="clip0">
<rect width="202" height="104" fill="white"/>
</clipPath>
</defs>
</svg>
