<svg width="202" height="104" viewBox="0 0 202 104" fill="none" xmlns="http://www.w3.org/2000/svg">
<g clip-path="url(#clip0)">
<path d="M-85.8723 120.404C-74.8333 118.598 -48.42 119.561 -31.0787 137.866H10.4681C15.8873 126.024 37.2225 109.919 55.6277 111.372C78.5085 113.179 87.2961 129.74 120.657 119.802C148.957 111.372 148.957 86.6852 148.957 66.815C148.957 46.9448 168.226 25.2682 201.343 27.6767V137.866H10.4681C3.8447 145.493 -13.7374 156.171 -31.0787 137.866H-122C-116.38 133.45 -101.287 123.776 -85.8723 120.404Z" fill="#C48AFA"/>
<rect x="182.674" y="71.0298" width="6.02128" height="67.4383" fill="#FFE68D"/>
<path d="M171.151 20.3892C168.982 20.3892 167.227 23.9 167.227 28.2376H175.075C175.075 23.9 173.32 20.3892 171.151 20.3892Z" fill="#E7ECED"/>
<path d="M203.835 52.2025L195.797 45.5039C192.613 42.8524 190.773 38.9216 190.773 34.7777C190.773 34.7777 190.773 20.9892 187.871 16.4489C187.361 15.6496 186.489 15.1565 185.541 15.1565C184.592 15.1565 183.72 15.6496 183.21 16.4489C180.308 20.9892 180.308 34.7777 180.308 34.7777C180.308 38.9217 178.468 42.8524 175.284 45.5052L167.246 52.2039C165.577 53.5944 164.611 55.6546 164.611 57.8286V58.3231H180.308V63.5553H185.541H190.773V58.3231H206.47V57.8286C206.47 55.6544 205.504 53.5942 203.835 52.2025Z" fill="#E7ECED"/>
<path d="M199.93 20.3892C202.099 20.3892 203.854 23.9 203.854 28.2376H196.006C196.006 23.9 197.761 20.3892 199.93 20.3892Z" fill="#E7ECED"/>
<path d="M179.001 59.6315C178.279 59.6315 177.693 59.0455 177.693 58.3235V47.8588C177.693 47.1368 178.279 46.5508 179.001 46.5508C179.723 46.5508 180.309 47.1368 180.309 47.8588V58.3235C180.31 59.0455 179.724 59.6315 179.001 59.6315Z" fill="#ADADAD"/>
<path d="M192.081 59.6313C191.359 59.6313 190.773 59.0452 190.773 58.3232V47.8586C190.773 47.1366 191.359 46.5505 192.081 46.5505C192.803 46.5505 193.389 47.1366 193.389 47.8586V58.3232C193.389 59.0452 192.803 59.6313 192.081 59.6313Z" fill="#ADADAD"/>
<path d="M203.836 52.2028C203.843 52.208 203.848 52.2146 203.854 52.2198V28.2375H196.006V45.6782L203.836 52.2028Z" fill="#C7CAC7"/>
<path d="M167.245 52.2035L175.075 45.6789V28.2383H167.227V52.2219C167.233 52.2166 167.238 52.2101 167.245 52.2035Z" fill="#C7CAC7"/>
<path d="M175.284 45.5052C178.468 42.8524 180.309 38.9217 180.309 34.7777C180.309 34.7777 180.309 20.9892 183.21 16.4489C183.72 15.6496 184.593 15.1565 185.541 15.1565C186.489 15.1565 187.362 15.6496 187.872 16.4489C190.773 20.9892 190.773 34.7777 190.773 34.7777C190.773 38.9217 192.614 42.8524 195.798 45.5052L196.006 45.6778V20.3889C196.006 13.1591 192.081 9.92423 185.541 6C179 9.92423 175.076 13.1591 175.076 20.3889V45.678L175.284 45.5052Z" fill="#EB7938"/>
<path d="M180.707 26.929H190.372C190.208 25.1958 189.973 23.379 189.641 21.6968H181.437C181.107 23.379 180.873 25.1959 180.707 26.929Z" fill="#C7CAC7"/>
<path d="M176.383 75.3282C172.459 75.3282 172.459 71.234 172.459 68.7878C172.459 68.0658 173.045 67.4797 173.767 67.4797C174.489 67.4797 175.075 68.0658 175.075 68.7878C175.075 72.712 175.652 72.712 176.383 72.712C177.105 72.712 177.691 73.298 177.691 74.02C177.691 74.742 177.105 75.3282 176.383 75.3282Z" fill="#CB443A"/>
<path d="M194.699 75.3283C193.977 75.3283 193.391 74.7423 193.391 74.0203C193.391 73.2983 193.977 72.7122 194.699 72.7122C195.43 72.7122 196.007 72.7122 196.007 68.788C196.007 68.066 196.593 67.48 197.315 67.48C198.037 67.48 198.623 68.066 198.623 68.788C198.623 71.2339 198.623 75.3283 194.699 75.3283Z" fill="#CB443A"/>
<path d="M189.466 63.5559H181.617V71.4044H189.466V63.5559Z" fill="#435766"/>
<path d="M176.385 63.5564H165.92V68.7882H176.385V63.5564Z" fill="#435766"/>
<path d="M205.162 63.5559H194.697V68.7877H205.162V63.5559Z" fill="#435766"/>
<path d="M139.836 121.515C135.069 121.504 130.808 123.174 129.925 125.398C129.254 127.089 130.76 128.64 132.142 129.644C134.778 131.558 137.263 132.305 139.456 132.965C142.504 133.88 144.912 134.604 145.611 138.025C145.747 138.696 145.863 139.386 145.978 140.077C146.784 144.911 147.547 149.478 155.845 148.882C157.793 148.741 159.54 148.536 161.081 148.353C167.5 147.593 171.741 147.09 179.403 152.701C180.829 153.746 182.129 154.755 183.386 155.731C190.243 161.056 194.382 164.27 200.927 159.238C202.803 157.795 203.648 156.112 203.44 154.235C202.905 149.408 195.671 144.15 190.652 142.208C190.284 142.065 181.582 138.58 177.636 129.286C176.993 127.774 176.473 126.346 176.016 125.09C174.801 121.756 173.923 119.347 172.01 118.671C170.261 118.051 167.485 118.775 163.011 121.017C154.027 125.52 148.735 123.854 144.484 122.517C142.782 121.98 141.313 121.517 139.836 121.515V121.515ZM182.62 156.621C181.368 155.648 180.074 154.643 178.66 153.608C171.358 148.26 167.519 148.714 161.16 149.467C159.605 149.651 157.844 149.859 155.868 150.003C146.55 150.673 145.632 145.171 144.822 140.316C144.709 139.636 144.596 138.958 144.462 138.301C143.889 135.493 141.964 134.914 139.05 134.038C136.885 133.388 134.19 132.579 131.403 130.553C128.354 128.339 128.323 126.339 128.834 125.051C129.91 122.338 134.565 120.378 139.904 120.391C141.563 120.394 143.186 120.906 144.904 121.447C148.948 122.719 153.981 124.304 162.516 120.028C167.382 117.588 170.358 116.866 172.467 117.612C174.861 118.46 175.809 121.063 177.122 124.666C177.576 125.912 178.092 127.326 178.723 128.814C182.492 137.688 191.058 141.131 191.143 141.164C196.213 143.125 203.997 148.579 204.603 154.054C204.859 156.351 203.857 158.384 201.627 160.099C200.739 160.783 199.885 161.324 199.06 161.742C193.104 164.76 188.589 161.255 182.62 156.621" fill="black"/>
<path d="M126.281 67.4701C131.877 61.9504 136.576 74.6658 143.9 82.1243C151.225 89.5825 177.257 70.0966 176.54 98.4286C175.823 126.76 195.478 98.1859 197.205 121.718C198.932 145.25 216.862 162.268 205.367 161.453C193.873 160.637 185.346 134.223 174.703 135.962C164.059 137.702 160.846 135.071 165.924 122.571C171.001 110.069 134.154 118.881 134.185 98.8189C134.215 78.7566 119.816 73.8483 126.281 67.4701" fill="#F79938"/>
<path d="M202.509 160.104C201.527 156.374 192.699 123.642 185.127 122.979C178.454 122.396 172.364 110.065 167.286 98.0777C162.791 87.4677 148.363 88.7545 147.75 88.8135L147.923 89.9109C148.065 89.8956 162.18 88.642 166.34 98.4623C171.555 110.772 177.864 123.442 185.119 124.075C190.868 124.579 198.898 150.413 201.507 160.324L202.509 160.104" fill="white"/>
</g>
<defs>
<clipPath id="clip0">
<rect width="202" height="104" fill="white"/>
</clipPath>
</defs>
</svg>
