<svg width="202" height="104" viewBox="0 0 202 104" fill="none" xmlns="http://www.w3.org/2000/svg">
<g clip-path="url(#clip0)">
<path d="M48.5906 6.03572C48.5906 6.03572 59.2797 4.91705 63.1294 15.2234C66.976 25.5297 70.6053 28.904 71.0582 34.317C72.8912 56.2164 83.1305 51.265 80.2509 63.8881C77.3713 76.5112 75.3761 78.4185 75.3761 78.4185L50.898 73.626L26.1016 73.7054C26.1016 73.7054 35.8022 68.8671 33.6448 58.5607C31.4844 48.2544 26.1015 31.3614 29.1433 19.857C32.179 8.35251 42.2071 6.91292 48.5906 6.03572" fill="#16202E"/>
<path d="M98.8297 104.5H83.5777C80.4149 98.7428 77.8455 94.2376 77.8455 94.2376C77.8455 94.2376 75.7907 97.9861 74.1935 104.5H22.844C22.0612 100.436 22.0138 96.5391 22.178 93.7679C22.178 93.7679 19.435 98.7207 16.2501 104.5H-1C3.57373 95.9369 12.153 80.347 14.1037 78.3167C16.5531 75.7536 30.7415 65.9583 40.8706 62.7647C51.006 59.5679 56.7634 62.6512 56.7634 62.6512C56.7634 62.6512 67.1703 64.5239 76.7913 68.3354C80.5727 69.8329 91.0206 89.1051 98.8297 104.5Z" fill="#FAA146"/>
<path d="M49.9993 12.0649C49.9993 12.0649 64.1514 14.1028 62.0804 34.9672C60.0095 55.8345 47.5197 54.1773 46.684 54.159C45.8513 54.1408 34.1545 54.5947 33.1419 29.1334C33.1419 29.1334 32.6722 10.3071 49.9993 12.0649" fill="#8E4F3A"/>
<path d="M56.289 50.4578C56.289 50.4578 55.4136 61.3119 57.5059 64.5623C59.5982 67.8158 55.7156 72.2269 47.7154 70.719C39.7152 69.208 40.1788 64.6781 40.1788 64.6781C40.1788 64.6781 42.4206 57.9822 41.7648 52.6207C41.1091 47.2592 56.289 50.4578 56.289 50.4578" fill="#8E4F3A"/>
<path d="M48.3833 19.6258C48.3833 19.6258 54.9957 26.5684 58.064 30.0839C61.1354 33.5994 61.4892 40.3896 61.4892 40.3896C61.4892 40.3896 66.662 34.0776 64.4996 26.7268C62.3371 19.3791 57.2161 5.07654 44.2596 9.46935C31.3001 13.8652 30.8212 33.2003 32.3401 42.7871C32.3401 42.7871 38.1565 21.6212 48.3833 19.6258Z" fill="#16202E"/>
<path d="M61.2587 63.6061C61.2587 63.6061 51.4437 88.4307 45.4778 92.7473C45.4778 92.7473 37.6454 67.4262 38.1913 63.7188C38.1913 63.7188 50.0102 59.0914 61.2587 63.6061Z" fill="#8E4F3A"/>
<path d="M40.5166 57.6017C40.5166 57.6017 23.0217 73.1501 27.5632 82.8496C31.4367 91.1265 45.177 86.0483 42.9109 77.3754C40.6447 68.7025 40.5166 57.6017 40.5166 57.6017" fill="#16202E"/>
<path d="M42.8047 53.2137C42.8047 53.2137 48.8368 56.0601 54.7072 51.8546C54.7072 51.8546 53.0779 55.219 48.7575 55.6975C44.437 56.1759 42.8047 53.2137 42.8047 53.2137Z" fill="#633029"/>
<path d="M101.58 70.7445V59.0681H87.0406V70.7445C80.7828 73.5308 76.4199 79.8034 76.4199 87.0953C76.4199 96.9759 84.4294 104.985 94.31 104.985C104.191 104.985 112.2 96.9759 112.2 87.0953C112.2 79.8034 107.837 73.5308 101.58 70.7445V70.7445Z" fill="#C9FFF7"/>
<path d="M108.581 87.0963C108.581 94.9649 102.18 101.365 94.3101 101.365C91.7215 101.365 89.2922 100.673 87.1974 99.4624C82.9227 96.9958 80.041 92.3763 80.041 87.0963C80.041 83.149 81.6761 79.4551 84.4251 76.8083H104.196C106.945 79.4551 108.581 83.149 108.581 87.0963V87.0963Z" fill="#F7D360"/>
<path d="M90.309 70.7453V67.5137C90.309 65.7629 91.7281 64.3439 93.4785 64.3439H101.58V60.8787L98.6967 58.2549L95.9816 57.531L87.041 60.8782V70.7453C80.7824 73.5316 76.4199 79.8033 76.4199 87.0961C76.4199 96.9339 84.3605 104.917 94.1839 104.984C88.804 104.86 84.4645 96.8987 84.4645 87.0961C84.4645 79.8033 86.8659 73.5316 90.309 70.7453V70.7453Z" fill="#72CEC0"/>
<path d="M87.1974 99.4624C82.9227 96.9958 80.041 92.3763 80.041 87.0963C80.041 83.149 81.6761 79.4551 84.4251 76.8083H86.256C85.1274 79.718 84.4651 83.266 84.4651 87.0963C84.4651 91.8932 85.5042 96.2489 87.1974 99.4624V99.4624Z" fill="#E58E13"/>
<path d="M88.1722 97.2064L76.5539 77.0829V66.6711H65.5123V77.0829L53.894 97.2064C51.8978 100.664 54.3928 104.986 58.3856 104.986H83.681C87.6734 104.986 90.1689 100.664 88.1722 97.2064Z" fill="#E6E6E6"/>
<path d="M76.5546 66.6711L73.174 64.7717L66.6952 64.8393L65.5125 66.6711V77.0824L53.8946 97.2068C51.8971 100.664 54.393 104.986 58.3849 104.986H65.2906C63.4776 104.986 62.3444 100.664 63.2507 97.2068L68.527 77.0824V71.7372C68.527 70.6387 69.4175 69.7487 70.516 69.7487H76.5546V66.6711Z" fill="#CCCCCC"/>
<path d="M80.5562 64.318C80.5562 65.6178 79.5028 66.6712 78.203 66.6712H63.861C63.2118 66.6712 62.623 66.4083 62.1971 65.982C61.7712 65.5561 61.5078 64.9672 61.5078 64.318C61.5078 63.0183 62.5613 61.9648 63.861 61.9648H78.203C78.8522 61.9648 79.4411 62.2278 79.867 62.6536C80.2929 63.08 80.5562 63.6689 80.5562 64.318Z" fill="#CCCCCC"/>
<path d="M80.5561 64.318C80.5561 65.6178 79.5026 66.6712 78.2029 66.6712H69.568C68.9175 66.6712 68.33 66.4083 67.9036 65.982C67.4778 65.5561 67.2148 64.9672 67.2148 64.318C67.2148 63.0183 68.2683 61.9648 69.568 61.9648H78.2029C78.8521 61.9648 79.4409 62.2278 79.8668 62.6536C80.2927 63.08 80.5561 63.6689 80.5561 64.318Z" fill="#E6E6E6"/>
<path d="M105.633 58.5251C105.633 59.8248 104.58 60.8783 103.28 60.8783H85.5392C84.8887 60.8783 84.3007 60.6153 83.8748 60.1895C83.4489 59.7631 83.1855 59.1743 83.1855 58.5251C83.1855 57.2253 84.2395 56.1719 85.5392 56.1719H103.28C103.929 56.1719 104.518 56.4348 104.944 56.8611C105.371 57.287 105.633 57.8759 105.633 58.5251V58.5251Z" fill="#72CEC0"/>
<path d="M105.634 58.5251C105.634 59.8248 104.58 60.8783 103.281 60.8783H91.0387C90.3896 60.8783 89.8007 60.6153 89.3744 60.1895C88.9485 59.7631 88.6855 59.1743 88.6855 58.5251C88.6855 57.2253 89.739 56.1719 91.0387 56.1719H103.281C103.93 56.1719 104.519 56.4348 104.945 56.8611C105.371 57.287 105.634 57.8759 105.634 58.5251Z" fill="#C9FFF7"/>
<path d="M85.0366 100.583C84.8678 100.876 84.4671 101.365 83.6815 101.365H58.3857C57.5988 101.365 57.1981 100.876 57.0292 100.583C56.8604 100.29 56.6358 99.6979 57.0292 99.0172L65.5673 84.229H76.4999L85.0366 99.0172C85.4301 99.6979 85.2055 100.29 85.0366 100.583Z" fill="#FC5F61"/>
<path d="M63.2501 97.2069C62.8945 98.5647 62.853 100.055 63.0439 101.365H58.3857C57.5988 101.365 57.1981 100.876 57.0292 100.583C56.8604 100.29 56.6358 99.6979 57.0292 99.0172L65.5673 84.229H66.6523L63.2501 97.2069Z" fill="#E83842"/>
<path d="M72.98 94.5461C72.1579 94.5461 71.7667 93.4895 72.3929 92.9533C73.0156 92.4202 73.993 92.9641 73.8755 93.7744C73.812 94.2129 73.4221 94.5461 72.98 94.5461Z" fill="#E83842"/>
<path d="M68.987 57.4404C68.1969 57.4404 67.7909 56.4527 68.3473 55.8944C68.648 55.5932 69.1356 55.5464 69.489 55.7823C69.7987 55.9885 69.9532 56.3766 69.8681 56.739C69.7735 57.1437 69.4035 57.4404 68.987 57.4404Z" fill="#E83842"/>
<path d="M72.5876 54.0003C71.7687 54.0003 71.3685 52.9396 71.9996 52.4066C72.2999 52.1527 72.738 52.1203 73.0716 52.3305C73.3921 52.5327 73.5555 52.9297 73.4691 53.2994C73.3746 53.7032 73.0045 54.0003 72.5876 54.0003Z" fill="#E83842"/>
<path d="M70.6274 48.7514C70.2321 48.7514 69.8765 48.4857 69.7608 48.1089C69.646 47.733 69.7972 47.3112 70.1241 47.0933C70.7958 46.6449 71.7047 47.2788 71.5044 48.0662C71.4031 48.4632 71.038 48.7514 70.6274 48.7514V48.7514Z" fill="#E83842"/>
<path d="M102.255 82.42C101.451 82.42 101.05 81.3926 101.643 80.8479C102.212 80.3261 103.161 80.7425 103.161 81.5146C103.161 82.0067 102.748 82.42 102.255 82.42Z" fill="white"/>
<path d="M102.886 88.456C102.097 88.456 101.684 87.4678 102.246 86.9113C102.527 86.6331 102.963 86.5687 103.312 86.7538C103.647 86.9316 103.835 87.3102 103.781 87.6843C103.717 88.1233 103.327 88.456 102.886 88.456V88.456Z" fill="white"/>
<path d="M91.0815 95.2708C90.6944 95.2708 90.3441 95.0164 90.2226 94.6495C90.0938 94.2623 90.25 93.8229 90.5935 93.6032C91.2751 93.167 92.1701 93.8229 91.9536 94.6058C91.8469 94.993 91.484 95.2708 91.0815 95.2708V95.2708Z" fill="white"/>
<path d="M86.9187 87.6679C86.1007 87.6679 85.7036 86.613 86.3271 86.0786C86.6265 85.8216 87.065 85.7896 87.3995 85.9972C87.7169 86.1948 87.8816 86.5833 87.8042 86.9493C87.7169 87.3626 87.3419 87.6679 86.9187 87.6679V87.6679Z" fill="white"/>
<path d="M97.9579 85.4961C97.1489 85.4961 96.7482 84.4629 97.3506 83.9214C97.6509 83.6512 98.1002 83.6134 98.4423 83.8273C98.7552 84.0235 98.9177 84.4062 98.8462 84.7686C98.7633 85.1864 98.3834 85.4961 97.9579 85.4961V85.4961Z" fill="white"/>
<path d="M66.646 96.4214C66.2827 96.4214 65.9491 96.1972 65.8096 95.8627C65.6565 95.4944 65.7709 95.0519 66.0851 94.8056C66.7302 94.3009 67.6991 94.8826 67.5329 95.6934C67.4474 96.1112 67.0737 96.4214 66.646 96.4214Z" fill="#E83842"/>
<path d="M68.9977 90.565C68.6191 90.565 68.2733 90.3214 68.1455 89.9649C68.0095 89.5858 68.1486 89.1473 68.48 88.9177C69.1242 88.4716 70.0278 89.0375 69.8887 89.815C69.8121 90.2426 69.4335 90.565 68.9977 90.565Z" fill="#E83842"/>
</g>
<defs>
<clipPath id="clip0">
<rect width="202" height="104" fill="white"/>
</clipPath>
</defs>
</svg>
