<svg width="202" height="104" viewBox="0 0 202 104" fill="none" xmlns="http://www.w3.org/2000/svg">
<g clip-path="url(#clip0)">
<path d="M-83.8723 117.255C-72.8333 115.449 -46.42 116.412 -29.0787 134.717H12.4681C17.8873 122.875 39.2225 106.77 57.6277 108.223C80.5085 110.029 89.2961 126.59 122.657 116.653C150.957 108.223 150.957 83.5358 150.957 63.6656C150.957 43.7954 170.226 22.1188 203.343 24.5273V134.717H12.4681C5.8447 142.344 -11.7374 153.021 -29.0787 134.717H-120C-114.38 130.301 -99.2868 120.627 -83.8723 117.255Z" fill="#39B99A"/>
<path d="M133.009 102.143H122.38C120.919 102.143 119.734 100.958 119.734 99.4965V67.6114C119.734 66.1501 120.919 64.9653 122.38 64.9653H133.009C134.47 64.9653 135.655 66.1501 135.655 67.6114V99.4965C135.655 100.958 134.47 102.143 133.009 102.143Z" fill="#FFDD6C"/>
<path d="M154.269 102.143H143.64C142.179 102.143 140.994 100.958 140.994 99.4967V56.9832C140.994 55.5219 142.179 54.3372 143.64 54.3372H154.269C155.73 54.3372 156.915 55.5219 156.915 56.9832V99.4967C156.915 100.958 155.73 102.143 154.269 102.143Z" fill="#F77600"/>
<path d="M175.526 102.143H164.898C163.437 102.143 162.252 100.958 162.252 99.4964V46.3546C162.252 44.8932 163.437 43.7085 164.898 43.7085H175.526C176.988 43.7085 178.172 44.8932 178.172 46.3546V99.4964C178.172 100.958 176.988 102.143 175.526 102.143Z" fill="#1FB4FF"/>
<path d="M196.782 102.143H186.154C184.693 102.143 183.508 100.958 183.508 99.4967V35.7264C183.508 34.2651 184.693 33.0803 186.154 33.0803H196.782C198.244 33.0803 199.428 34.2651 199.428 35.7264V99.4967C199.428 100.958 198.244 102.143 196.782 102.143Z" fill="#FF4C5B"/>
<path d="M133.01 64.9653H127.695V102.143H133.01C134.471 102.143 135.656 100.958 135.656 99.4965V67.6114C135.656 66.1499 134.471 64.9653 133.01 64.9653Z" fill="#FEC300"/>
<path d="M154.265 54.3374H148.951V102.143H154.265C155.727 102.143 156.911 100.958 156.911 99.497V56.9835C156.911 55.522 155.727 54.3374 154.265 54.3374V54.3374Z" fill="#FF4C5B"/>
<path d="M175.525 43.7085H170.211V102.143H175.525C176.986 102.143 178.171 100.958 178.171 99.4964V46.3546C178.171 44.8931 176.986 43.7085 175.525 43.7085V43.7085Z" fill="#2982FF"/>
<path d="M196.781 33.0803H191.467V102.143H196.781C198.242 102.143 199.427 100.958 199.427 99.4967V35.7264C199.427 34.2649 198.242 33.0803 196.781 33.0803V33.0803Z" fill="#D90048"/>
<path d="M201.248 105.932H89.0123C87.0834 105.932 85.5195 104.045 85.5195 101.717C85.5195 99.3893 87.0834 97.5022 89.0123 97.5022H201.248C203.177 97.5022 204.741 99.3893 204.741 101.717C204.741 104.045 203.177 105.932 201.248 105.932Z" fill="#384949"/>
<path d="M196.781 12H186.152C184.691 12 183.506 13.1847 183.506 14.6461C183.506 16.1074 184.691 17.2921 186.152 17.2921H190.251C187.399 19.7242 183.12 22.9415 177.224 26.3013C165.964 32.7177 146.343 40.979 116.808 43.8978C115.354 44.0416 114.291 45.3369 114.435 46.7912C114.57 48.1571 115.721 49.1773 117.065 49.1773C117.152 49.1773 117.24 49.173 117.328 49.1642C130.846 47.8281 143.517 45.2942 154.989 41.6324C164.203 38.6912 172.673 35.0187 180.163 30.7165C186.533 27.0582 191.107 23.5707 194.135 20.943V25.2743C194.135 26.7356 195.319 27.9203 196.781 27.9203C198.242 27.9203 199.427 26.7356 199.427 25.2743V14.6459C199.427 13.1846 198.242 12 196.781 12V12Z" fill="#D9E9FA"/>
<path d="M202.13 97.5022H160.184V105.932H202.13C203.572 105.932 204.741 104.045 204.741 101.717C204.741 99.3893 203.572 97.5022 202.13 97.5022Z" fill="#151F1F"/>
<path d="M196.781 12H186.153C184.691 12 183.507 13.1847 183.507 14.6461C183.507 16.1074 184.691 17.2921 186.153 17.2921H190.252C187.4 19.7242 183.12 22.9415 177.224 26.3013C172.717 28.8697 166.868 31.7337 159.582 34.4323V40.0817C167.029 37.4337 173.936 34.2937 180.164 30.7167C186.533 27.0584 191.107 23.5709 194.135 20.9432V25.2744C194.135 26.7358 195.32 27.9205 196.781 27.9205C198.243 27.9205 199.427 26.7358 199.427 25.2744V14.6461C199.427 13.1846 198.242 12 196.781 12V12Z" fill="#BFD9F5"/>
</g>
<defs>
<clipPath id="clip0">
<rect width="202" height="104" fill="white"/>
</clipPath>
</defs>
</svg>
