<svg width="202" height="104" viewBox="0 0 202 104" fill="none" xmlns="http://www.w3.org/2000/svg">
<g clip-path="url(#clip0)">
<path d="M49.5906 9.03572C49.5906 9.03572 60.2797 7.91705 64.1294 18.2234C67.976 28.5297 71.6053 31.904 72.0582 37.317C73.8912 59.2164 84.1305 54.265 81.2509 66.8881C78.3713 79.5112 76.3761 81.4185 76.3761 81.4185L51.898 76.626L27.1016 76.7054C27.1016 76.7054 36.8022 71.8671 34.6448 61.5607C32.4844 51.2544 27.1015 34.3614 30.1433 22.857C33.179 11.3525 43.2071 9.91292 49.5906 9.03572" fill="#16202E"/>
<path d="M99.8297 107.5H84.5777C81.4149 101.743 78.8455 97.2376 78.8455 97.2376C78.8455 97.2376 76.7907 100.986 75.1935 107.5H23.844C23.0612 103.436 23.0138 99.5391 23.178 96.7679C23.178 96.7679 20.435 101.721 17.2501 107.5H0C4.57373 98.9369 13.153 83.347 15.1037 81.3167C17.5531 78.7536 31.7415 68.9583 41.8706 65.7647C52.006 62.5679 57.7634 65.6512 57.7634 65.6512C57.7634 65.6512 68.1703 67.5239 77.7913 71.3354C81.5727 72.8329 92.0206 92.1051 99.8297 107.5Z" fill="#FAA146"/>
<path d="M50.9993 15.0649C50.9993 15.0649 65.1514 17.1028 63.0804 37.9672C61.0095 58.8345 48.5197 57.1773 47.684 57.159C46.8513 57.1408 35.1545 57.5947 34.1419 32.1334C34.1419 32.1334 33.6722 13.3071 50.9993 15.0649" fill="#8E4F3A"/>
<path d="M57.289 53.4578C57.289 53.4578 56.4136 64.3119 58.5059 67.5623C60.5982 70.8158 56.7156 75.2269 48.7154 73.719C40.7152 72.208 41.1788 67.6781 41.1788 67.6781C41.1788 67.6781 43.4206 60.9822 42.7648 55.6207C42.1091 50.2592 57.289 53.4578 57.289 53.4578" fill="#8E4F3A"/>
<path d="M49.3833 22.6258C49.3833 22.6258 55.9957 29.5684 59.064 33.0839C62.1354 36.5994 62.4892 43.3896 62.4892 43.3896C62.4892 43.3896 67.662 37.0776 65.4996 29.7268C63.3371 22.3791 58.2161 8.07654 45.2596 12.4693C32.3001 16.8652 31.8212 36.2003 33.3401 45.7871C33.3401 45.7871 39.1565 24.6212 49.3833 22.6258Z" fill="#16202E"/>
<path d="M62.2587 66.6061C62.2587 66.6061 52.4437 91.4307 46.4778 95.7473C46.4778 95.7473 38.6454 70.4262 39.1913 66.7188C39.1913 66.7188 51.0102 62.0914 62.2587 66.6061Z" fill="#8E4F3A"/>
<path d="M41.5166 60.6017C41.5166 60.6017 24.0217 76.1501 28.5632 85.8496C32.4367 94.1265 46.177 89.0483 43.9109 80.3754C41.6447 71.7025 41.5166 60.6017 41.5166 60.6017" fill="#16202E"/>
<path d="M43.8047 56.2137C43.8047 56.2137 49.8368 59.0601 55.7072 54.8546C55.7072 54.8546 54.0779 58.219 49.7575 58.6975C45.437 59.1759 43.8047 56.2137 43.8047 56.2137Z" fill="#633029"/>
<path d="M102.58 73.7445V62.0681H88.0406V73.7445C81.7828 76.5308 77.4199 82.8034 77.4199 90.0953C77.4199 99.9759 85.4294 107.985 95.31 107.985C105.191 107.985 113.2 99.9759 113.2 90.0953C113.2 82.8034 108.837 76.5308 102.58 73.7445V73.7445Z" fill="#C9FFF7"/>
<path d="M109.581 90.0963C109.581 97.9649 103.18 104.365 95.3101 104.365C92.7215 104.365 90.2922 103.673 88.1974 102.462C83.9227 99.9958 81.041 95.3763 81.041 90.0963C81.041 86.149 82.6761 82.4551 85.4251 79.8083H105.196C107.945 82.4551 109.581 86.149 109.581 90.0963V90.0963Z" fill="#F7D360"/>
<path d="M91.309 73.7453V70.5137C91.309 68.7629 92.7281 67.3439 94.4785 67.3439H102.58V63.8787L99.6967 61.2549L96.9816 60.531L88.041 63.8782V73.7453C81.7824 76.5316 77.4199 82.8033 77.4199 90.0961C77.4199 99.9339 85.3605 107.917 95.1839 107.984C89.804 107.86 85.4645 99.8987 85.4645 90.0961C85.4645 82.8033 87.8659 76.5316 91.309 73.7453V73.7453Z" fill="#72CEC0"/>
<path d="M88.1974 102.462C83.9227 99.9958 81.041 95.3763 81.041 90.0963C81.041 86.149 82.6761 82.4551 85.4251 79.8083H87.256C86.1274 82.718 85.4651 86.266 85.4651 90.0963C85.4651 94.8932 86.5042 99.2489 88.1974 102.462V102.462Z" fill="#E58E13"/>
<path d="M89.1722 100.206L77.5539 80.0829V69.6711H66.5123V80.0829L54.894 100.206C52.8978 103.664 55.3928 107.986 59.3856 107.986H84.681C88.6734 107.986 91.1689 103.664 89.1722 100.206Z" fill="#E6E6E6"/>
<path d="M77.5546 69.6711L74.174 67.7717L67.6952 67.8393L66.5125 69.6711V80.0824L54.8946 100.207C52.8971 103.664 55.393 107.986 59.3849 107.986H66.2906C64.4776 107.986 63.3444 103.664 64.2507 100.207L69.527 80.0824V74.7372C69.527 73.6387 70.4175 72.7487 71.516 72.7487H77.5546V69.6711Z" fill="#CCCCCC"/>
<path d="M81.5562 67.318C81.5562 68.6178 80.5028 69.6712 79.203 69.6712H64.861C64.2118 69.6712 63.623 69.4083 63.1971 68.982C62.7712 68.5561 62.5078 67.9672 62.5078 67.318C62.5078 66.0183 63.5613 64.9648 64.861 64.9648H79.203C79.8522 64.9648 80.4411 65.2278 80.867 65.6536C81.2929 66.08 81.5562 66.6689 81.5562 67.318Z" fill="#CCCCCC"/>
<path d="M81.5561 67.318C81.5561 68.6178 80.5026 69.6712 79.2029 69.6712H70.568C69.9175 69.6712 69.33 69.4083 68.9036 68.982C68.4778 68.5561 68.2148 67.9672 68.2148 67.318C68.2148 66.0183 69.2683 64.9648 70.568 64.9648H79.2029C79.8521 64.9648 80.4409 65.2278 80.8668 65.6536C81.2927 66.08 81.5561 66.6689 81.5561 67.318Z" fill="#E6E6E6"/>
<path d="M106.633 61.5251C106.633 62.8248 105.58 63.8783 104.28 63.8783H86.5392C85.8887 63.8783 85.3007 63.6153 84.8748 63.1895C84.4489 62.7631 84.1855 62.1743 84.1855 61.5251C84.1855 60.2253 85.2395 59.1719 86.5392 59.1719H104.28C104.929 59.1719 105.518 59.4348 105.944 59.8611C106.371 60.287 106.633 60.8759 106.633 61.5251V61.5251Z" fill="#72CEC0"/>
<path d="M106.634 61.5251C106.634 62.8248 105.58 63.8783 104.281 63.8783H92.0387C91.3896 63.8783 90.8007 63.6153 90.3744 63.1895C89.9485 62.7631 89.6855 62.1743 89.6855 61.5251C89.6855 60.2253 90.739 59.1719 92.0387 59.1719H104.281C104.93 59.1719 105.519 59.4348 105.945 59.8611C106.371 60.287 106.634 60.8759 106.634 61.5251Z" fill="#C9FFF7"/>
<path d="M86.0366 103.583C85.8678 103.876 85.4671 104.365 84.6815 104.365H59.3857C58.5988 104.365 58.1981 103.876 58.0292 103.583C57.8604 103.29 57.6358 102.698 58.0292 102.017L66.5673 87.229H77.4999L86.0366 102.017C86.4301 102.698 86.2055 103.29 86.0366 103.583Z" fill="#FC5F61"/>
<path d="M64.2501 100.207C63.8945 101.565 63.853 103.055 64.0439 104.365H59.3857C58.5988 104.365 58.1981 103.876 58.0292 103.583C57.8604 103.29 57.6358 102.698 58.0292 102.017L66.5673 87.229H67.6523L64.2501 100.207Z" fill="#E83842"/>
<path d="M73.98 97.5461C73.1579 97.5461 72.7667 96.4895 73.3929 95.9533C74.0156 95.4202 74.993 95.9641 74.8755 96.7744C74.812 97.2129 74.4221 97.5461 73.98 97.5461Z" fill="#E83842"/>
<path d="M69.987 60.4404C69.1969 60.4404 68.7909 59.4527 69.3473 58.8944C69.648 58.5932 70.1356 58.5464 70.489 58.7823C70.7987 58.9885 70.9532 59.3766 70.8681 59.739C70.7735 60.1437 70.4035 60.4404 69.987 60.4404Z" fill="#E83842"/>
<path d="M73.5876 57.0003C72.7687 57.0003 72.3685 55.9396 72.9996 55.4066C73.2999 55.1527 73.738 55.1203 74.0716 55.3305C74.3921 55.5327 74.5555 55.9297 74.4691 56.2994C74.3746 56.7032 74.0045 57.0003 73.5876 57.0003Z" fill="#E83842"/>
<path d="M71.6274 51.7514C71.2321 51.7514 70.8765 51.4857 70.7608 51.1089C70.646 50.733 70.7972 50.3112 71.1241 50.0933C71.7958 49.6449 72.7047 50.2788 72.5044 51.0662C72.4031 51.4632 72.038 51.7514 71.6274 51.7514V51.7514Z" fill="#E83842"/>
<path d="M103.255 85.42C102.451 85.42 102.05 84.3926 102.643 83.8479C103.212 83.3261 104.161 83.7425 104.161 84.5146C104.161 85.0067 103.748 85.42 103.255 85.42Z" fill="white"/>
<path d="M103.886 91.456C103.097 91.456 102.684 90.4678 103.246 89.9113C103.527 89.6331 103.963 89.5687 104.312 89.7538C104.647 89.9316 104.835 90.3102 104.781 90.6843C104.717 91.1233 104.327 91.456 103.886 91.456V91.456Z" fill="white"/>
<path d="M92.0815 98.2708C91.6944 98.2708 91.3441 98.0164 91.2226 97.6495C91.0938 97.2623 91.25 96.8229 91.5935 96.6032C92.2751 96.167 93.1701 96.8229 92.9536 97.6058C92.8469 97.993 92.484 98.2708 92.0815 98.2708V98.2708Z" fill="white"/>
<path d="M87.9187 90.6679C87.1007 90.6679 86.7036 89.613 87.3271 89.0786C87.6265 88.8216 88.065 88.7896 88.3995 88.9972C88.7169 89.1948 88.8816 89.5833 88.8042 89.9493C88.7169 90.3626 88.3419 90.6679 87.9187 90.6679V90.6679Z" fill="white"/>
<path d="M98.9579 88.4961C98.1489 88.4961 97.7482 87.4629 98.3506 86.9214C98.6509 86.6512 99.1002 86.6134 99.4423 86.8273C99.7552 87.0235 99.9177 87.4062 99.8462 87.7686C99.7633 88.1864 99.3834 88.4961 98.9579 88.4961V88.4961Z" fill="white"/>
<path d="M67.646 99.4214C67.2827 99.4214 66.9491 99.1972 66.8096 98.8627C66.6565 98.4944 66.7709 98.0519 67.0851 97.8056C67.7302 97.3009 68.6991 97.8826 68.5329 98.6934C68.4474 99.1112 68.0737 99.4214 67.646 99.4214Z" fill="#E83842"/>
<path d="M69.9977 93.565C69.6191 93.565 69.2733 93.3214 69.1455 92.9649C69.0095 92.5858 69.1486 92.1473 69.48 91.9177C70.1242 91.4716 71.0278 92.0375 70.8887 92.815C70.8121 93.2426 70.4335 93.565 69.9977 93.565Z" fill="#E83842"/>
</g>
<defs>
<clipPath id="clip0">
<rect width="202" height="104" fill="white"/>
</clipPath>
</defs>
</svg>
